{
.appVersion = "3197";
DisplayStrings = (
"/Idotaccent HHHHHEN/Ccaron HHHHHHH"
);
classes = (
{
automatic = 1;
code = "A Aacute Abreve Abreveacute Abrevedotbelow Abrevegrave Abrevehookabove Abrevetilde Acircumflex Acircumflexacute Acircumflexdotbelow Acircumflexgrave Acircumflexhookabove Acircumflextilde Adieresis Adotbelow Agrave Ahookabove Amacron Aogonek Aring Atilde AE B C Cacute Ccaron Ccedilla Cdotaccent D Dcaron Dcroat Ddotbelow Eth E Eacute Ecaron Ecircumflex Ecircumflexacute Ecircumflexdotbelow Ecircumflexgrave Ecircumflexhookabove Ecircumflextilde Edieresis Edotaccent Edotbelow Egrave Ehookabove Emacron Eogonek Etilde Schwa F G Gbreve Gcommaaccent Gdotaccent H Hbar I IJ Iacute Icircumflex Idieresis Idotaccent Idotbelow Igrave Ihookabove Imacron Iogonek Itilde J Jacute K Kcommaaccent L Lacute Lcaron Lcommaaccent Ldot Lslash M N Nacute Ncaron Ncommaaccent Ndotbelow Ntilde Eng O Oacute Ocircumflex Ocircumflexacute Ocircumflexdotbelow Ocircumflexgrave Ocircumflexhookabove Ocircumflextilde Odieresis Odotbelow Ograve Ohookabove Ohorn Ohornacute Ohorndotbelow Ohorngrave Ohornhookabove Ohorntilde Ohungarumlaut Omacron Oslash Otilde OE P Thorn Q R Racute Rcaron Rcommaaccent S Sacute Scaron Scedilla Scommaaccent Sdotbelow Germandbls T Tcaron Tcedilla Tcommaaccent Tdotbelow U Uacute Ubreve Ucircumflex Udieresis Udotbelow Ugrave Uhookabove Uhorn Uhornacute Uhorndotbelow Uhorngrave Uhornhookabove Uhorntilde Uhungarumlaut Umacron Uogonek Uring Utilde V W Wacute Wcircumflex Wdieresis Wgrave X Y Yacute Ycircumflex Ydieresis Ydotbelow Ygrave Yhookabove Ytilde Z Zacute Zcaron Zdotaccent";
name = Uppercase;
}
);
customParameters = (
{
name = "Use Typo Metrics";
value = 1;
},
{
name = fsType;
value = (
3
);
},
{
name = trademark;
value = "Sinar is a trademark of Holdon Typefoundry";
},
{
name = vendorID;
value = HLDN;
},
{
name = Axes;
value = (
{
Name = Weight;
Tag = wght;
}
);
}
);
date = "2019-01-31 09:25:26 +0000";
designer = "Fadhl Haqq";
disablesNiceNames = 1;

glyphs = (
{
glyphname = A;
lastChange = "2023-05-28 18:49:08 +0000";
layers = (
{
anchors = (
{
name = bottom;
position = "{306, 0}";
},
{
name = ogonek;
position = "{564, 0}";
},
{
name = top;
position = "{304, 700}";
}
);
background = {
paths = (
{
closed = 1;
nodes = (
"332 632 LINE",
"313 694 LINE",
"296 694 LINE",
"275 632 LINE"
);
}
);
};
layerId = master01;
paths = (
{
closed = 1;
nodes = (
"155 0 LINE",
"155 16 LINE",
"85 35 LINE",
"87 28 LINE",
"286 632 LINE",
"321 632 LINE",
"519 28 LINE",
"521 35 LINE",
"451 16 LINE",
"451 0 LINE",
"602 0 LINE",
"602 16 LINE",
"531 35 LINE",
"538 27 LINE",
"312 705 LINE",
"295 705 LINE",
"69 27 LINE",
"75 35 LINE",
"5 16 LINE",
"5 0 LINE"
);
},
{
closed = 1;
nodes = (
"456 236 LINE",
"456 261 LINE",
"151 261 LINE",
"151 236 LINE"
);
}
);
vertWidth = 750;
width = 607;
},
{
anchors = (
{
name = bottom;
position = "{340, 0}";
},
{
name = ogonek;
position = "{641, 0}";
},
{
name = top;
position = "{339, 700}";
}
);
background = {
paths = (
{
closed = 1;
nodes = (
"392 574 LINE",
"373 659 LINE",
"306 659 LINE",
"285 574 LINE"
);
}
);
};
layerId = "7F56E5C1-F146-4434-90E4-DA1B70285074";
paths = (
{
closed = 1;
nodes = (
"218 0 LINE",
"218 58 LINE",
"134 83 LINE",
"138 73 LINE",
"315 574 LINE",
"363 574 LINE",
"544 63 LINE",
"551 83 LINE",
"461 58 LINE",
"461 0 LINE",
"668 0 LINE",
"668 58 LINE",
"583 83 LINE",
"596 69 LINE",
"362 705 LINE",
"315 705 LINE",
"83 66 LINE",
"97 82 LINE",
"10 58 LINE",
"10 0 LINE"
);
},
{
closed = 1;
nodes = (
"515 209 LINE",
"500 291 LINE",
"187 291 LINE",
"167 209 LINE"
);
}
);
vertWidth = 750;
width = 678;
},
{
anchors = (
{
name = bottom;
position = "{341, 0}";
},
{
name = ogonek;
position = "{630, 0}";
},
{
name = top;
position = "{342, 700}";
}
);
background = {
paths = (
{
closed = 1;
nodes = (
"307 659 LINE",
"374 659 LINE",
"393 514 LINE",
"286 514 LINE"
);
}
);
};
layerId = "3CA830F5-1E41-4F35-86DC-34C8110F5ED1";
paths = (
{
closed = 1;
nodes = (
"268 0 LINE",
"268 138 LINE",
"159 188 LINE",
"186 126 LINE",
"317 514 LINE",
"364 514 LINE",
"495 126 LINE",
"522 188 LINE",
"413 138 LINE",
"413 0 LINE",
"666 0 LINE",
"666 138 LINE",
"557 188 LINE",
"613 127 LINE",
"402 705 LINE",
"279 705 LINE",
"68 127 LINE",
"124 188 LINE",
"15 138 LINE",
"15 0 LINE"
);
},
{
closed = 1;
nodes = (
"526 216 LINE",
"486 358 LINE",
"208 358 LINE",
"178 216 LINE"
);
}
);
userData = {
com.typemytype.robofont.guides = (
{
isGlobal = 0;
magnetic = 5;
x = 0;
y = 64;
}
);
};
vertWidth = 750;
width = 681;
}
);
leftKerningGroup = A;
rightKerningGroup = A;
rightMetricsKey = "=|";
unicode = 0041;
},
{
glyphname = AE;
lastChange = "2023-05-29 20:29:18 +0000";
layers = (
{
background = {
paths = (
{
closed = 1;
nodes = (
"150 0 LINE",
"150 14 LINE",
"81 39 LINE",
"74 17 LINE",
"401 700 LINE",
"386 700 LINE",
"54 11 LINE",
"72 39 LINE",
"-2 14 LINE",
"-2 0 LINE"
);
},
{
closed = 1;
nodes = (
"449 236 LINE",
"449 261 LINE",
"180 261 LINE",
"170 236 LINE"
);
},
{
closed = 1;
nodes = (
"455 0 LINE",
"455 700 LINE",
"439 700 LINE",
"439 0 LINE"
);
},
{
closed = 1;
nodes = (
"800 0 LINE",
"825 163 LINE",
"808 165 LINE",
"764 9 LINE",
"794 25 LINE",
"441 25 LINE",
"441 0 LINE"
);
},
{
closed = 1;
nodes = (
"684 349 LINE",
"684 374 LINE",
"448 374 LINE",
"448 349 LINE"
);
},
{
closed = 1;
nodes = (
"698 259 LINE",
"698 445 LINE",
"684 445 LINE",
"667 370 LINE",
"666 357 LINE",
"683 259 LINE"
);
},
{
closed = 1;
nodes = (
"815 557 LINE",
"790 700 LINE",
"386 700 LINE",
"386 675 LINE",
"782 675 LINE",
"749 698 LINE",
"798 554 LINE"
);
}
);
};
hints = (
{
origin = "{0, 9}";
type = Corner;
name = _corner.serifBottomLeft;
},
{
origin = "{0, 0}";
type = Corner;
name = _corner.serifBottomRight;
options = 1;
}
);
layerId = master01;
paths = (
{
closed = 1;
nodes = (
"68 0 LINE",
"417 688 LINE {name = \"🧨\";}",
"400 675 LINE",
"782 675 LINE",
"756 688 LINE",
"798 554 LINE",
"815 557 LINE",
"790 700 LINE",
"406 700 LINE",
"49 0 LINE"
);
},
{
closed = 1;
nodes = (
"449 236 LINE",
"449 261 LINE",
"190 261 LINE",
"180 236 LINE {name = \"🧨\";}"
);
},
{
closed = 1;
nodes = (
"800 0 LINE",
"825 163 LINE",
"808 165 LINE",
"768 11 LINE",
"794 25 LINE",
"447 25 LINE",
"455 15 LINE {name = \"🧨\";}",
"455 688 LINE {name = \"🧨\";}",
"439 688 LINE {name = \"🧨\";}",
"439 0 LINE {name = \"🧨\";}"
);
},
{
closed = 1;
nodes = (
"684 349 LINE",
"684 374 LINE",
"448 374 LINE",
"448 349 LINE"
);
},
{
closed = 1;
nodes = (
"698 259 LINE",
"698 445 LINE",
"684 445 LINE",
"667 370 LINE",
"666 357 LINE",
"683 259 LINE"
);
}
);
width = 860;
},
{
hints = (
{
origin = "{0, 9}";
type = Corner;
name = _corner.serifBottomLeft;
},
{
origin = "{0, 0}";
type = Corner;
name = _corner.serifBottomRight;
options = 1;
}
);
layerId = "7F56E5C1-F146-4434-90E4-DA1B70285074";
paths = (
{
closed = 1;
nodes = (
"89 0 LINE",
"406 640 LINE",
"378 615 LINE",
"770 615 LINE",
"735 637 LINE",
"775 550 LINE",
"810 557 LINE",
"795 700 LINE",
"385 700 LINE {name = \"🧨\";}",
"34 0 LINE"
);
},
{
closed = 1;
nodes = (
"476 209 LINE",
"476 291 LINE",
"218 291 LINE",
"168 209 LINE"
);
},
{
closed = 1;
nodes = (
"805 0 LINE",
"820 163 LINE",
"785 170 LINE",
"743 62 LINE",
"777 85 LINE",
"470 85 LINE",
"489 64 LINE",
"489 660 LINE {name = \"🧨\";}",
"434 660 LINE {name = \"🧨\";}",
"434 0 LINE {name = \"🧨\";}"
);
},
{
closed = 1;
nodes = (
"661 320 LINE",
"661 400 LINE",
"463 400 LINE",
"463 320 LINE"
);
},
{
closed = 1;
nodes = (
"703 259 LINE",
"703 446 LINE",
"661 446 LINE",
"640 370 LINE",
"639 347 LINE",
"660 259 LINE"
);
}
);
width = 850;
},
{
hints = (
{
origin = "{0, 9}";
scale = "{1.2, 1}";
type = Corner;
name = _corner.serifBottomLeft;
},
{
origin = "{0, 0}";
type = Corner;
name = _corner.serifBottomRight;
options = 1;
}
);
layerId = "3CA830F5-1E41-4F35-86DC-34C8110F5ED1";
paths = (
{
closed = 1;
nodes = (
"122 0 LINE",
"404 587 LINE",
"337 535 LINE",
"777 535 LINE",
"742 558 LINE",
"786 460 LINE",
"871 477 LINE",
"856 700 LINE",
"356 700 LINE {name = \"🧨\";}",
"1 0 LINE"
);
},
{
closed = 1;
nodes = (
"513 216 LINE",
"473 358 LINE",
"225 358 LINE",
"165 216 LINE"
);
},
{
closed = 1;
nodes = (
"866 0 LINE",
"881 243 LINE",
"796 260 LINE",
"751 142 LINE",
"785 165 LINE",
"522 165 LINE",
"550 135 LINE",
"550 581 LINE {name = \"🧨\";}",
"440 581 LINE {name = \"🧨\";}",
"440 0 LINE {name = \"🧨\";}"
);
},
{
closed = 1;
nodes = (
"692 280 LINE",
"692 430 LINE",
"479 430 LINE",
"479 280 LINE"
);
},
{
closed = 1;
nodes = (
"734 230 LINE",
"734 476 LINE",
"642 476 LINE",
"621 373 LINE",
"620 350 LINE",
"641 230 LINE"
);
}
);
width = 906;
}
);
leftKerningGroup = AE;
rightKerningGroup = E;
rightMetricsKey = E;
unicode = 00C6;
},
{
glyphname = B;
lastChange = "2023-05-28 10:48:55 +0000";
layers = (
{
background = {
hints = (
{
origin = "{0, 34}";
type = Corner;
name = _corner.serifBottomRight;
options = 1;
},
{
origin = "{0, 35}";
type = Corner;
name = _corner.serifBottomLeft;
}
);
paths = (
{
closed = 1;
nodes = (
"298 0 LINE SMOOTH",
"416 0 OFFCURVE",
"478 72 OFFCURVE",
"478 194 CURVE SMOOTH",
"478 330 OFFCURVE",
"400 383 OFFCURVE",
"287 383 CURVE SMOOTH",
"112 383 LINE",
"112 358 LINE",
"283 358 LINE SMOOTH",
"396 358 OFFCURVE",
"460 313 OFFCURVE",
"460 194 CURVE SMOOTH",
"460 88 OFFCURVE",
"409 25 OFFCURVE",
"307 25 CURVE SMOOTH",
"116 25 LINE",
"122 19 LINE",
"122 683 LINE",
"116 675 LINE",
"273 675 LINE SMOOTH",
"371 675 OFFCURVE",
"402 616 OFFCURVE",
"402 543 CURVE SMOOTH",
"402 452 OFFCURVE",
"353 409 OFFCURVE",
"292 380 CURVE",
"302 365 LINE",
"368 399 OFFCURVE",
"420 443 OFFCURVE",
"420 544 CURVE SMOOTH",
"420 636 OFFCURVE",
"376 700 OFFCURVE",
"279 700 CURVE SMOOTH",
"106 700 LINE",
"106 0 LINE"
);
}
);
};
layerId = master01;
paths = (
{
closed = 1;
nodes = (
"298 0 LINE SMOOTH",
"416 0 OFFCURVE",
"478 80 OFFCURVE",
"478 192 CURVE SMOOTH",
"478 318 OFFCURVE",
"400 383 OFFCURVE",
"287 383 CURVE SMOOTH",
"112 383 LINE",
"112 358 LINE",
"283 358 LINE SMOOTH",
"396 358 OFFCURVE",
"460 301 OFFCURVE",
"460 192 CURVE SMOOTH",
"460 96 OFFCURVE",
"409 25 OFFCURVE",
"307 25 CURVE SMOOTH",
"116 25 LINE",
"122 19 LINE",
"122 683 LINE",
"116 675 LINE",
"266 675 LINE SMOOTH",
"369 675 OFFCURVE",
"415 619 OFFCURVE",
"415 536 CURVE SMOOTH",
"415 445 OFFCURVE",
"360 399 OFFCURVE",
"295 380 CURVE",
"305 365 LINE",
"381 391 OFFCURVE",
"433 441 OFFCURVE",
"433 537 CURVE SMOOTH",
"433 640 OFFCURVE",
"372 700 OFFCURVE",
"272 700 CURVE SMOOTH",
"40 700 LINE",
"40 684 LINE",
"106 666 LINE",
"106 34 LINE",
"40 16 LINE",
"40 0 LINE"
);
}
);
vertWidth = 750;
width = 528;
},
{
layerId = "7F56E5C1-F146-4434-90E4-DA1B70285074";
paths = (
{
closed = 1;
nodes = (
"314 0 LINE SMOOTH",
"444 0 OFFCURVE",
"514 72 OFFCURVE",
"514 205 CURVE SMOOTH",
"514 354 OFFCURVE",
"426 409 OFFCURVE",
"301 409 CURVE SMOOTH",
"155 409 LINE",
"155 328 LINE",
"311 328 LINE SMOOTH",
"412 328 OFFCURVE",
"456 296 OFFCURVE",
"456 207 CURVE SMOOTH",
"456 127 OFFCURVE",
"421 85 OFFCURVE",
"340 85 CURVE SMOOTH",
"141 85 LINE",
"167 56 LINE",
"167 642 LINE",
"145 615 LINE",
"305 615 LINE SMOOTH",
"389 615 OFFCURVE",
"414 585 OFFCURVE",
"414 528 CURVE SMOOTH",
"414 469 OFFCURVE",
"387 432 OFFCURVE",
"334 407 CURVE",
"362 370 LINE",
"430 408 OFFCURVE",
"472 447 OFFCURVE",
"472 539 CURVE SMOOTH",
"472 644 OFFCURVE",
"417 700 OFFCURVE",
"291 700 CURVE SMOOTH",
"35 700 LINE",
"35 642 LINE",
"112 619 LINE",
"112 79 LINE",
"35 58 LINE",
"35 0 LINE"
);
}
);
vertWidth = 750;
width = 549;
},
{
layerId = "3CA830F5-1E41-4F35-86DC-34C8110F5ED1";
paths = (
{
closed = 1;
nodes = (
"310 0 LINE SMOOTH",
"460 0 OFFCURVE",
"540 82 OFFCURVE",
"540 226 CURVE SMOOTH",
"540 377 OFFCURVE",
"452 427 OFFCURVE",
"329 427 CURVE SMOOTH",
"141 427 LINE",
"141 286 LINE",
"345 286 LINE SMOOTH",
"403 286 OFFCURVE",
"427 268 OFFCURVE",
"427 224 CURVE SMOOTH",
"427 182 OFFCURVE",
"406 165 OFFCURVE",
"356 165 CURVE SMOOTH",
"170 165 LINE",
"208 126 LINE",
"208 590 LINE",
"170 535 LINE",
"314 535 LINE SMOOTH",
"374 535 OFFCURVE",
"393 513 OFFCURVE",
"393 485 CURVE SMOOTH",
"393 458 OFFCURVE",
"375 432 OFFCURVE",
"348 417 CURVE",
"416 370 LINE",
"475 414 OFFCURVE",
"506 454 OFFCURVE",
"506 532 CURVE SMOOTH",
"506 646 OFFCURVE",
"439 700 OFFCURVE",
"290 700 CURVE SMOOTH",
"30 700 LINE",
"30 562 LINE",
"98 531 LINE",
"98 169 LINE",
"30 138 LINE",
"30 0 LINE"
);
}
);
vertWidth = 750;
width = 570;
}
);
leftKerningGroup = H;
leftMetricsKey = H;
rightKerningGroup = B;
unicode = 0042;
},
{
glyphname = C;
lastChange = "2023-05-28 18:46:07 +0000";
layers = (
{
anchors = (
{
name = bottom;
position = "{339, 0}";
},
{
name = cedilla;
position = "{354, 0}";
},
{
name = top;
position = "{339, 700}";
}
);
layerId = master01;
paths = (
{
closed = 1;
nodes = (
"490 -5 OFFCURVE",
"575 59 OFFCURVE",
"619 156 CURVE",
"604 164 LINE",
"556 67 OFFCURVE",
"473 23 OFFCURVE",
"362 23 CURVE SMOOTH",
"179 23 OFFCURVE",
"78 143 OFFCURVE",
"78 353 CURVE SMOOTH",
"78 559 OFFCURVE",
"176 677 OFFCURVE",
"365 677 CURVE SMOOTH",
"475 677 OFFCURVE",
"537 636 OFFCURVE",
"568 608 CURVE",
"557 638 LINE",
"583 484 LINE",
"601 486 LINE",
"592 624 LINE",
"546 670 OFFCURVE",
"464 705 OFFCURVE",
"365 705 CURVE SMOOTH",
"170 705 OFFCURVE",
"60 566 OFFCURVE",
"60 353 CURVE SMOOTH",
"60 140 OFFCURVE",
"169 -5 OFFCURVE",
"362 -5 CURVE SMOOTH"
);
}
);
vertWidth = 750;
width = 672;
},
{
anchors = (
{
name = bottom;
position = "{344, 0}";
},
{
name = cedilla;
position = "{369, 0}";
},
{
name = top;
position = "{344, 700}";
}
);
layerId = "7F56E5C1-F146-4434-90E4-DA1B70285074";
paths = (
{
closed = 1;
nodes = (
"509 -10 OFFCURVE",
"589 65 OFFCURVE",
"639 160 CURVE",
"604 186 LINE",
"552 114 OFFCURVE",
"475 78 OFFCURVE",
"370 78 CURVE SMOOTH",
"201 78 OFFCURVE",
"113 170 OFFCURVE",
"113 345 CURVE SMOOTH",
"113 515 OFFCURVE",
"197 622 OFFCURVE",
"369 622 CURVE SMOOTH",
"443 622 OFFCURVE",
"513 603 OFFCURVE",
"561 566 CURVE",
"531 606 LINE",
"580 479 LINE",
"621 486 LINE",
"607 624 LINE",
"561 673 OFFCURVE",
"479 710 OFFCURVE",
"376 710 CURVE SMOOTH",
"173 710 OFFCURVE",
"55 558 OFFCURVE",
"55 342 CURVE SMOOTH",
"55 126 OFFCURVE",
"173 -10 OFFCURVE",
"366 -10 CURVE SMOOTH"
);
}
);
userData = {
com.typemytype.robofont.guides = (
{
isGlobal = 0;
magnetic = 5;
x = 777;
y = 0;
}
);
};
vertWidth = 750;
width = 679;
},
{
anchors = (
{
name = bottom;
position = "{336, 0}";
},
{
name = cedilla;
position = "{364, 0}";
},
{
name = top;
position = "{356, 700}";
}
);
layerId = "3CA830F5-1E41-4F35-86DC-34C8110F5ED1";
paths = (
{
closed = 1;
nodes = (
"498 -10 OFFCURVE",
"593 65 OFFCURVE",
"632 178 CURVE",
"557 235 LINE",
"513 179 OFFCURVE",
"441 158 OFFCURVE",
"365 158 CURVE SMOOTH",
"224 158 OFFCURVE",
"153 229 OFFCURVE",
"153 355 CURVE SMOOTH",
"153 473 OFFCURVE",
"214 542 OFFCURVE",
"368 542 CURVE SMOOTH",
"415 542 OFFCURVE",
"461 536 OFFCURVE",
"502 523 CURVE",
"477 550 LINE",
"533 419 LINE",
"621 435 LINE",
"602 644 LINE",
"554 682 OFFCURVE",
"468 710 OFFCURVE",
"373 710 CURVE SMOOTH",
"158 710 OFFCURVE",
"40 566 OFFCURVE",
"40 350 CURVE SMOOTH",
"40 134 OFFCURVE",
"158 -10 OFFCURVE",
"355 -10 CURVE SMOOTH"
);
}
);
userData = {
com.typemytype.robofont.guides = (
{
isGlobal = 0;
magnetic = 5;
x = 767;
y = 0;
}
);
};
vertWidth = 750;
width = 662;
}
);
leftKerningGroup = O;
leftMetricsKey = O;
rightKerningGroup = C;
unicode = 0043;
},
{
glyphname = D;
lastChange = "2023-05-24 15:54:36 +0000";
layers = (
{
anchors = (
{
name = bottom;
position = "{292, 0}";
},
{
name = center;
position = "{172, 350}";
},
{
name = top;
position = "{292, 700}";
}
);
hints = (
{
origin = "{0, 8}";
type = Corner;
name = _corner.serifBottomLeft;
},
{
origin = "{0, 7}";
type = Corner;
name = _corner.serifBottomRight;
options = 1;
}
);
layerId = master01;
paths = (
{
closed = 1;
nodes = (
"264 0 LINE SMOOTH",
"443 0 OFFCURVE",
"584 91 OFFCURVE",
"584 350 CURVE SMOOTH",
"584 608 OFFCURVE",
"443 700 OFFCURVE",
"264 700 CURVE SMOOTH",
"106 700 LINE",
"106 0 LINE"
);
},
{
closed = 1;
nodes = (
"122 685 LINE",
"114 675 LINE",
"272 675 LINE SMOOTH",
"481 675 OFFCURVE",
"566 542 OFFCURVE",
"566 350 CURVE SMOOTH",
"566 159 OFFCURVE",
"481 25 OFFCURVE",
"272 25 CURVE SMOOTH",
"114 25 LINE",
"122 17 LINE"
);
}
);
vertWidth = 750;
width = 644;
},
{
anchors = (
{
name = bottom;
position = "{313, 0}";
},
{
name = center;
position = "{173, 350}";
},
{
name = top;
position = "{313, 700}";
}
);
hints = (
{
origin = "{0, 8}";
type = Corner;
name = _corner.serifBottomLeft;
},
{
origin = "{0, 7}";
type = Corner;
name = _corner.serifBottomRight;
options = 1;
}
);
layerId = "7F56E5C1-F146-4434-90E4-DA1B70285074";
paths = (
{
closed = 1;
nodes = (
"290 0 LINE SMOOTH",
"455 0 OFFCURVE",
"610 91 OFFCURVE",
"610 350 CURVE SMOOTH",
"610 608 OFFCURVE",
"455 700 OFFCURVE",
"290 700 CURVE SMOOTH",
"112 700 LINE",
"112 0 LINE"
);
},
{
closed = 1;
nodes = (
"167 637 LINE",
"142 612 LINE",
"303 612 LINE SMOOTH",
"483 612 OFFCURVE",
"552 505 OFFCURVE",
"552 350 CURVE SMOOTH",
"552 196 OFFCURVE",
"483 88 OFFCURVE",
"303 88 CURVE SMOOTH",
"142 88 LINE",
"167 63 LINE"
);
}
);
vertWidth = 750;
width = 665;
},
{
anchors = (
{
name = bottom;
position = "{314, 0}";
},
{
name = center;
position = "{186, 350}";
},
{
name = top;
position = "{314, 700}";
}
);
hints = (
{
origin = "{0, 8}";
type = Corner;
name = _corner.serifBottomLeft;
},
{
origin = "{0, 7}";
type = Corner;
name = _corner.serifBottomRight;
options = 1;
}
);
layerId = "3CA830F5-1E41-4F35-86DC-34C8110F5ED1";
paths = (
{
closed = 1;
nodes = (
"306 0 LINE SMOOTH",
"491 0 OFFCURVE",
"621 91 OFFCURVE",
"621 350 CURVE SMOOTH",
"621 608 OFFCURVE",
"491 700 OFFCURVE",
"306 700 CURVE SMOOTH",
"98 700 LINE",
"98 0 LINE"
);
},
{
closed = 1;
nodes = (
"208 557 LINE",
"183 532 LINE",
"329 532 LINE SMOOTH",
"475 532 OFFCURVE",
"508 458 OFFCURVE",
"508 350 CURVE SMOOTH",
"508 243 OFFCURVE",
"475 168 OFFCURVE",
"329 168 CURVE SMOOTH",
"183 168 LINE",
"208 143 LINE"
);
}
);
vertWidth = 750;
width = 661;
}
);
leftKerningGroup = H;
leftMetricsKey = H;
rightKerningGroup = O;
rightMetricsKey = O;
unicode = 0044;
},
{
glyphname = E;
lastChange = "2023-04-18 06:35:21 +0000";
layers = (
{
anchors = (
{
name = bottom;
position = "{284, 0}";
},
{
name = ogonek;
position = "{467, 0}";
},
{
name = top;
position = "{284, 700}";
},
{
name = topleft;
position = "{20, 700}";
}
);
hints = (
{
origin = "{0, 14}";
type = Corner;
name = _corner.serifBottomRight;
options = 1;
},
{
origin = "{0, 15}";
type = Corner;
name = _corner.serifBottomLeft;
}
);
layerId = master01;
paths = (
{
closed = 1;
nodes = (
"467 0 LINE",
"492 163 LINE",
"475 165 LINE",
"435 9 LINE",
"461 25 LINE",
"115 25 LINE",
"122 19 LINE",
"122 684 LINE",
"116 675 LINE",
"449 675 LINE",
"421 693 LINE",
"465 554 LINE",
"482 557 LINE",
"457 700 LINE",
"106 700 LINE",
"106 0 LINE"
);
},
{
closed = 1;
nodes = (
"351 349 LINE",
"351 374 LINE",
"115 374 LINE",
"115 349 LINE"
);
},
{
closed = 1;
nodes = (
"365 259 LINE",
"365 445 LINE",
"351 445 LINE",
"334 370 LINE",
"333 357 LINE",
"350 259 LINE"
);
}
);
vertWidth = 750;
width = 527;
},
{
anchors = (
{
name = bottom;
position = "{294, 0}";
},
{
name = ogonek;
position = "{483, 0}";
},
{
name = top;
position = "{294, 700}";
},
{
name = topleft;
position = "{20, 700}";
}
);
hints = (
{
origin = "{0, 14}";
type = Corner;
name = _corner.serifBottomRight;
options = 1;
},
{
origin = "{0, 15}";
type = Corner;
name = _corner.serifBottomLeft;
}
);
layerId = "7F56E5C1-F146-4434-90E4-DA1B70285074";
paths = (
{
closed = 1;
nodes = (
"483 0 LINE",
"498 163 LINE",
"463 170 LINE",
"421 62 LINE",
"455 85 LINE",
"151 85 LINE",
"167 64 LINE",
"167 645 LINE",
"146 615 LINE",
"448 615 LINE",
"413 637 LINE",
"453 550 LINE",
"488 557 LINE",
"473 700 LINE",
"112 700 LINE",
"112 0 LINE"
);
},
{
closed = 1;
nodes = (
"339 320 LINE",
"339 400 LINE",
"141 400 LINE",
"141 320 LINE"
);
},
{
closed = 1;
nodes = (
"381 259 LINE",
"381 446 LINE",
"339 446 LINE",
"318 370 LINE",
"317 347 LINE",
"338 259 LINE"
);
}
);
vertWidth = 750;
width = 528;
},
{
anchors = (
{
name = bottom;
position = "{292, 0}";
},
{
name = ogonek;
position = "{524, 0}";
},
{
name = top;
position = "{292, 700}";
},
{
name = topleft;
position = "{20, 700}";
}
);
hints = (
{
origin = "{0, 14}";
type = Corner;
name = _corner.serifBottomRight;
options = 1;
},
{
origin = "{0, 15}";
type = Corner;
name = _corner.serifBottomLeft;
}
);
layerId = "3CA830F5-1E41-4F35-86DC-34C8110F5ED1";
paths = (
{
closed = 1;
nodes = (
"524 0 LINE",
"539 243 LINE",
"454 260 LINE",
"409 142 LINE",
"443 165 LINE",
"186 165 LINE",
"208 137 LINE",
"208 573 LINE",
"180 535 LINE",
"435 535 LINE",
"400 558 LINE",
"444 460 LINE",
"529 477 LINE",
"514 700 LINE",
"98 700 LINE",
"98 0 LINE"
);
},
{
closed = 1;
nodes = (
"350 280 LINE",
"350 430 LINE",
"137 430 LINE",
"137 280 LINE"
);
},
{
closed = 1;
nodes = (
"392 230 LINE",
"392 476 LINE",
"300 476 LINE",
"279 373 LINE",
"278 350 LINE",
"299 230 LINE"
);
}
);
vertWidth = 750;
width = 564;
}
);
leftKerningGroup = H;
leftMetricsKey = H;
rightKerningGroup = E;
unicode = 0045;
},
{
glyphname = Schwa;
lastChange = "2023-05-24 15:54:36 +0000";
layers = (
{
anchors = (
{
name = bottom;
position = "{336, 0}";
},
{
name = top;
position = "{336, 700}";
}
);
layerId = master01;
paths = (
{
closed = 1;
nodes = (
"510 -5 OFFCURVE",
"612 139 OFFCURVE",
"612 352 CURVE SMOOTH",
"612 568 OFFCURVE",
"508 705 OFFCURVE",
"327 705 CURVE SMOOTH",
"149 705 OFFCURVE",
"28 573 OFFCURVE",
"40 362 CURVE",
"601 362 LINE",
"601 387 LINE",
"53 387 LINE",
"57 382 LINE",
"53 568 OFFCURVE",
"165 677 OFFCURVE",
"326 677 CURVE SMOOTH",
"501 677 OFFCURVE",
"594 554 OFFCURVE",
"594 351 CURVE SMOOTH",
"594 148 OFFCURVE",
"500 23 OFFCURVE",
"323 23 CURVE SMOOTH",
"203 23 OFFCURVE",
"107 78 OFFCURVE",
"65 184 CURVE",
"50 178 LINE",
"87 71 OFFCURVE",
"188 -5 OFFCURVE",
"323 -5 CURVE SMOOTH"
);
}
);
width = 672;
},
{
anchors = (
{
name = bottom;
position = "{357, 0}";
},
{
name = top;
position = "{357, 700}";
}
);
layerId = "7F56E5C1-F146-4434-90E4-DA1B70285074";
paths = (
{
closed = 1;
nodes = (
"546 -10 OFFCURVE",
"658 134 OFFCURVE",
"658 349 CURVE SMOOTH",
"658 566 OFFCURVE",
"543 710 OFFCURVE",
"358 710 CURVE SMOOTH",
"197 710 OFFCURVE",
"43 601 OFFCURVE",
"65 327 CURVE",
"625 327 LINE",
"625 412 LINE",
"101 412 LINE",
"119 383 LINE",
"125 561 OFFCURVE",
"235 622 OFFCURVE",
"359 622 CURVE SMOOTH",
"521 622 OFFCURVE",
"600 518 OFFCURVE",
"600 348 CURVE SMOOTH",
"600 174 OFFCURVE",
"517 78 OFFCURVE",
"348 78 CURVE SMOOTH",
"245 78 OFFCURVE",
"163 114 OFFCURVE",
"109 186 CURVE",
"74 160 LINE",
"124 65 OFFCURVE",
"209 -10 OFFCURVE",
"351 -10 CURVE SMOOTH"
);
}
);
width = 713;
},
{
anchors = (
{
name = bottom;
position = "{336, 0}";
},
{
name = top;
position = "{336, 700}";
}
);
layerId = "3CA830F5-1E41-4F35-86DC-34C8110F5ED1";
paths = (
{
closed = 1;
nodes = (
"507 -10 OFFCURVE",
"622 131 OFFCURVE",
"622 356 CURVE SMOOTH",
"622 565 OFFCURVE",
"522 710 OFFCURVE",
"328 710 CURVE SMOOTH",
"130 710 OFFCURVE",
"14 560 OFFCURVE",
"35 325 CURVE",
"565 325 LINE",
"565 410 LINE",
"103 410 LINE",
"147 361 LINE",
"148 480 OFFCURVE",
"207 542 OFFCURVE",
"326 542 CURVE SMOOTH",
"450 542 OFFCURVE",
"509 475 OFFCURVE",
"509 354 CURVE SMOOTH",
"509 228 OFFCURVE",
"446 158 OFFCURVE",
"308 158 CURVE SMOOTH",
"233 158 OFFCURVE",
"159 179 OFFCURVE",
"105 235 CURVE",
"30 178 LINE",
"70 73 OFFCURVE",
"167 -10 OFFCURVE",
"315 -10 CURVE SMOOTH"
);
}
);
width = 662;
}
);
leftKerningGroup = O;
rightKerningGroup = O;
rightMetricsKey = O;
unicode = 018F;
},
{
glyphname = F;
lastChange = "2023-05-28 10:53:57 +0000";
layers = (
{
background = {
components = (
{
name = _corner.serifBottomLeft;
transform = "{1, 0, 0, -1, 106, 700}";
},
{
name = _corner.serifBottomLeft;
transform = "{1, 0, 0, 1, 106, 0}";
},
{
name = _corner.serifBottomRight;
transform = "{1, 0, 0, 1, 122, 0}";
}
);
paths = (
{
closed = 1;
nodes = (
"122 0 LINE",
"122 700 LINE",
"106 700 LINE",
"106 0 LINE"
);
},
{
closed = 1;
nodes = (
"361 339 LINE",
"361 364 LINE",
"115 364 LINE",
"115 339 LINE"
);
},
{
closed = 1;
nodes = (
"375 249 LINE",
"375 435 LINE",
"361 435 LINE",
"344 360 LINE",
"343 347 LINE",
"360 249 LINE"
);
},
{
closed = 1;
nodes = (
"477 675 LINE",
"477 700 LINE",
"118 700 LINE",
"118 675 LINE"
);
},
{
closed = 1;
nodes = (
"492 557 LINE",
"477 700 LINE",
"441 684 LINE",
"475 554 LINE"
);
}
);
};
hints = (
{
origin = "{0, 8}";
type = Corner;
name = _corner.serifBottomRight;
options = 1;
},
{
origin = "{0, 9}";
type = Corner;
name = _corner.serifBottomLeft;
},
{
origin = "{0, 0}";
type = Corner;
name = _corner.serifBottomRight;
options = 1;
}
);
layerId = master01;
paths = (
{
closed = 1;
nodes = (
"122 0 LINE",
"122 684 LINE",
"116 675 LINE",
"436 675 LINE",
"408 693 LINE",
"452 554 LINE",
"469 557 LINE",
"444 700 LINE",
"106 700 LINE",
"106 0 LINE"
);
},
{
closed = 1;
nodes = (
"338 339 LINE",
"338 360 LINE",
"115 360 LINE",
"115 339 LINE"
);
},
{
closed = 1;
nodes = (
"352 247 LINE",
"352 433 LINE",
"338 433 LINE",
"321 358 LINE",
"320 345 LINE",
"337 247 LINE"
);
}
);
vertWidth = 750;
width = 491;
},
{
hints = (
{
origin = "{0, 8}";
type = Corner;
name = _corner.serifBottomRight;
options = 1;
},
{
origin = "{0, 9}";
type = Corner;
name = _corner.serifBottomLeft;
},
{
origin = "{0, 0}";
type = Corner;
name = _corner.serifBottomRight;
options = 1;
}
);
layerId = "7F56E5C1-F146-4434-90E4-DA1B70285074";
paths = (
{
closed = 1;
nodes = (
"167 0 LINE",
"167 645 LINE",
"146 615 LINE",
"448 615 LINE",
"413 637 LINE",
"453 550 LINE",
"488 557 LINE",
"473 700 LINE",
"112 700 LINE",
"112 0 LINE"
);
},
{
closed = 1;
nodes = (
"339 303 LINE",
"339 383 LINE",
"141 383 LINE",
"141 303 LINE"
);
},
{
closed = 1;
nodes = (
"381 245 LINE",
"381 432 LINE",
"339 432 LINE",
"318 356 LINE",
"317 333 LINE",
"338 245 LINE"
);
}
);
vertWidth = 750;
width = 508;
},
{
hints = (
{
origin = "{0, 8}";
type = Corner;
name = _corner.serifBottomRight;
options = 1;
},
{
origin = "{0, 9}";
type = Corner;
name = _corner.serifBottomLeft;
},
{
origin = "{0, 0}";
type = Corner;
name = _corner.serifBottomRight;
options = 1;
}
);
layerId = "3CA830F5-1E41-4F35-86DC-34C8110F5ED1";
paths = (
{
closed = 1;
nodes = (
"208 0 LINE",
"208 573 LINE",
"180 535 LINE",
"415 535 LINE",
"380 558 LINE",
"424 460 LINE",
"509 477 LINE",
"494 700 LINE",
"98 700 LINE",
"98 0 LINE"
);
},
{
closed = 1;
nodes = (
"350 277 LINE",
"350 408 LINE",
"137 408 LINE",
"137 277 LINE"
);
},
{
closed = 1;
nodes = (
"392 224 LINE",
"392 456 LINE",
"300 456 LINE",
"279 360 LINE",
"278 337 LINE",
"299 224 LINE"
);
}
);
vertWidth = 750;
width = 534;
}
);
leftKerningGroup = H;
leftMetricsKey = H;
rightKerningGroup = F;
unicode = 0046;
},
{
glyphname = G;
lastChange = "2023-05-24 10:49:12 +0000";
layers = (
{
anchors = (
{
name = bottom;
position = "{374, 0}";
},
{
name = top;
position = "{374, 700}";
}
);
layerId = master01;
paths = (
{
closed = 1;
nodes = (
"488 -5 OFFCURVE",
"582 41 OFFCURVE",
"632 99 CURVE",
"622 110 LINE",
"569 58 OFFCURVE",
"482 23 OFFCURVE",
"374 23 CURVE SMOOTH",
"171 23 OFFCURVE",
"78 150 OFFCURVE",
"78 352 CURVE SMOOTH",
"78 558 OFFCURVE",
"174 677 OFFCURVE",
"373 677 CURVE SMOOTH",
"467 677 OFFCURVE",
"520 650 OFFCURVE",
"550 626 CURVE",
"540 641 LINE",
"563 504 LINE",
"581 506 LINE",
"572 644 LINE",
"532 679 OFFCURVE",
"461 705 OFFCURVE",
"374 705 CURVE SMOOTH",
"174 705 OFFCURVE",
"60 571 OFFCURVE",
"60 352 CURVE SMOOTH",
"60 132 OFFCURVE",
"174 -5 OFFCURVE",
"374 -5 CURVE SMOOTH"
);
},
{
closed = 1;
nodes = (
"576 63 LINE",
"576 345 LINE",
"573 326 LINE",
"640 341 LINE",
"640 354 LINE",
"353 354 LINE",
"353 340 LINE",
"564 326 LINE",
"560 345 LINE",
"560 54 LINE"
);
}
);
vertWidth = 750;
width = 687;
},
{
anchors = (
{
name = bottom;
position = "{378, 0}";
},
{
name = top;
position = "{376, 700}";
}
);
background = {
paths = (
{
closed = 1;
nodes = (
"492 -10 OFFCURVE",
"585 35 OFFCURVE",
"635 94 CURVE",
"622 118 LINE",
"570 95 OFFCURVE",
"484 80 OFFCURVE",
"403 80 CURVE SMOOTH",
"196 80 OFFCURVE",
"113 178 OFFCURVE",
"113 353 CURVE SMOOTH",
"113 523 OFFCURVE",
"191 622 OFFCURVE",
"367 622 CURVE SMOOTH",
"442 622 OFFCURVE",
"507 604 OFFCURVE",
"550 568 CURVE",
"525 594 LINE",
"573 479 LINE",
"621 486 LINE",
"607 624 LINE",
"561 673 OFFCURVE",
"479 710 OFFCURVE",
"376 710 CURVE SMOOTH",
"173 710 OFFCURVE",
"55 566 OFFCURVE",
"55 350 CURVE SMOOTH",
"55 134 OFFCURVE",
"173 -10 OFFCURVE",
"378 -10 CURVE SMOOTH"
);
},
{
closed = 1;
nodes = (
"581 73 LINE",
"581 302 LINE",
"557 265 LINE",
"645 296 LINE",
"645 354 LINE",
"358 354 LINE",
"358 287 LINE",
"534 266 LINE",
"526 296 LINE",
"526 73 LINE"
);
}
);
};
layerId = "7F56E5C1-F146-4434-90E4-DA1B70285074";
paths = (
{
closed = 1;
nodes = (
"492 -10 OFFCURVE",
"585 35 OFFCURVE",
"635 94 CURVE",
"622 118 LINE",
"570 95 OFFCURVE",
"484 80 OFFCURVE",
"403 80 CURVE SMOOTH",
"196 80 OFFCURVE",
"113 178 OFFCURVE",
"113 353 CURVE SMOOTH",
"113 523 OFFCURVE",
"192 622 OFFCURVE",
"369 622 CURVE SMOOTH",
"431 622 OFFCURVE",
"491 610 OFFCURVE",
"531 586 CURVE",
"501 626 LINE",
"550 499 LINE",
"591 506 LINE",
"577 644 LINE",
"537 682 OFFCURVE",
"466 710 OFFCURVE",
"376 710 CURVE SMOOTH",
"173 710 OFFCURVE",
"55 566 OFFCURVE",
"55 350 CURVE SMOOTH",
"55 134 OFFCURVE",
"173 -10 OFFCURVE",
"378 -10 CURVE SMOOTH"
);
},
{
closed = 1;
nodes = (
"581 73 LINE",
"581 302 LINE",
"557 265 LINE",
"645 296 LINE",
"645 354 LINE",
"358 354 LINE",
"358 296 LINE",
"534 266 LINE",
"526 296 LINE",
"526 73 LINE"
);
}
);
vertWidth = 750;
width = 695;
},
{
anchors = (
{
name = bottom;
position = "{373, 0}";
},
{
name = top;
position = "{373, 700}";
}
);
background = {
paths = (
{
closed = 1;
nodes = (
"496 -10 OFFCURVE",
"596 37 OFFCURVE",
"647 108 CURVE",
"611 181 LINE",
"564 162 OFFCURVE",
"469 148 OFFCURVE",
"395 148 CURVE SMOOTH",
"224 148 OFFCURVE",
"153 216 OFFCURVE",
"153 345 CURVE SMOOTH",
"153 466 OFFCURVE",
"215 542 OFFCURVE",
"369 542 CURVE SMOOTH",
"414 542 OFFCURVE",
"461 536 OFFCURVE",
"500 523 CURVE",
"482 538 LINE",
"533 419 LINE",
"621 426 LINE",
"602 644 LINE",
"554 682 OFFCURVE",
"468 710 OFFCURVE",
"373 710 CURVE SMOOTH",
"158 710 OFFCURVE",
"40 559 OFFCURVE",
"40 343 CURVE SMOOTH",
"40 127 OFFCURVE",
"158 -10 OFFCURVE",
"373 -10 CURVE SMOOTH"
);
},
{
closed = 1;
nodes = (
"576 130 LINE",
"576 262 LINE",
"552 225 LINE",
"640 256 LINE",
"640 368 LINE",
"353 368 LINE",
"353 247 LINE",
"529 226 LINE",
"466 256 LINE",
"466 130 LINE"
);
}
);
};
layerId = "3CA830F5-1E41-4F35-86DC-34C8110F5ED1";
paths = (
{
closed = 1;
nodes = (
"496 -10 OFFCURVE",
"586 37 OFFCURVE",
"647 108 CURVE",
"611 181 LINE",
"562 162 OFFCURVE",
"461 148 OFFCURVE",
"387 148 CURVE SMOOTH",
"226 148 OFFCURVE",
"153 215 OFFCURVE",
"153 346 CURVE SMOOTH",
"153 466 OFFCURVE",
"215 542 OFFCURVE",
"369 542 CURVE SMOOTH",
"407 542 OFFCURVE",
"447 538 OFFCURVE",
"480 529 CURVE",
"462 544 LINE",
"512 445 LINE",
"600 462 LINE",
"582 650 LINE",
"538 685 OFFCURVE",
"460 710 OFFCURVE",
"373 710 CURVE SMOOTH",
"158 710 OFFCURVE",
"40 559 OFFCURVE",
"40 343 CURVE SMOOTH",
"40 127 OFFCURVE",
"158 -10 OFFCURVE",
"373 -10 CURVE SMOOTH"
);
},
{
closed = 1;
nodes = (
"576 130 LINE",
"576 262 LINE",
"552 225 LINE",
"640 256 LINE",
"640 368 LINE",
"353 368 LINE",
"353 256 LINE",
"529 226 LINE",
"466 256 LINE",
"466 130 LINE"
);
}
);
vertWidth = 750;
width = 680;
}
);
leftKerningGroup = O;
leftMetricsKey = O;
rightKerningGroup = G;
unicode = 0047;
},
{
glyphname = H;
lastChange = "2023-05-21 19:10:12 +0000";
layers = (
{
hints = (
{
origin = "{1, 3}";
type = Corner;
name = _corner.serifBottomLeft;
},
{
origin = "{0, 3}";
type = Corner;
name = _corner.serifBottomLeft;
},
{
origin = "{0, 1}";
type = Corner;
name = _corner.serifBottomLeft;
},
{
origin = "{1, 1}";
type = Corner;
name = _corner.serifBottomLeft;
},
{
origin = "{1, 2}";
type = Corner;
name = _corner.serifBottomRight;
options = 1;
},
{
origin = "{0, 2}";
type = Corner;
name = _corner.serifBottomRight;
options = 1;
},
{
origin = "{0, 0}";
type = Corner;
name = _corner.serifBottomRight;
options = 1;
},
{
origin = "{1, 0}";
type = Corner;
name = _corner.serifBottomRight;
options = 1;
}
);
layerId = master01;
paths = (
{
closed = 1;
nodes = (
"560 0 LINE",
"560 700 LINE",
"544 700 LINE",
"544 0 LINE"
);
},
{
closed = 1;
nodes = (
"122 0 LINE",
"122 700 LINE",
"106 700 LINE",
"106 0 LINE"
);
},
{
closed = 1;
nodes = (
"553 345 LINE",
"553 370 LINE",
"115 370 LINE",
"115 345 LINE"
);
}
);
userData = {
com.typemytype.robofont.guides = (
{
isGlobal = 0;
magnetic = 5;
x = 0;
y = 280;
}
);
};
vertWidth = 750;
width = 666;
},
{
hints = (
{
origin = "{1, 3}";
type = Corner;
name = _corner.serifBottomLeft;
},
{
origin = "{1, 1}";
type = Corner;
name = _corner.serifBottomLeft;
},
{
origin = "{0, 1}";
type = Corner;
name = _corner.serifBottomLeft;
},
{
origin = "{0, 3}";
type = Corner;
name = _corner.serifBottomLeft;
},
{
origin = "{1, 0}";
type = Corner;
name = _corner.serifBottomRight;
options = 1;
},
{
origin = "{0, 0}";
type = Corner;
name = _corner.serifBottomRight;
options = 1;
},
{
origin = "{0, 2}";
type = Corner;
name = _corner.serifBottomRight;
options = 1;
},
{
origin = "{1, 2}";
type = Corner;
name = _corner.serifBottomRight;
options = 1;
}
);
layerId = "7F56E5C1-F146-4434-90E4-DA1B70285074";
paths = (
{
closed = 1;
nodes = (
"601 0 LINE",
"601 700 LINE",
"546 700 LINE",
"546 0 LINE"
);
},
{
closed = 1;
nodes = (
"167 0 LINE",
"167 700 LINE",
"112 700 LINE",
"112 0 LINE"
);
},
{
closed = 1;
nodes = (
"571 307 LINE",
"571 392 LINE",
"143 392 LINE",
"143 307 LINE"
);
}
);
userData = {
com.typemytype.robofont.guides = (
{
isGlobal = 0;
magnetic = 5;
x = 0;
y = 657;
}
);
};
width = 713;
},
{
hints = (
{
origin = "{1, 3}";
type = Corner;
name = _corner.serifBottomLeft;
},
{
origin = "{0, 3}";
type = Corner;
name = _corner.serifBottomLeft;
},
{
origin = "{0, 1}";
type = Corner;
name = _corner.serifBottomLeft;
},
{
origin = "{1, 1}";
type = Corner;
name = _corner.serifBottomLeft;
},
{
origin = "{1, 2}";
type = Corner;
name = _corner.serifBottomRight;
options = 1;
},
{
origin = "{0, 2}";
type = Corner;
name = _corner.serifBottomRight;
options = 1;
},
{
origin = "{0, 0}";
type = Corner;
name = _corner.serifBottomRight;
options = 1;
},
{
origin = "{1, 0}";
type = Corner;
name = _corner.serifBottomRight;
options = 1;
}
);
layerId = "3CA830F5-1E41-4F35-86DC-34C8110F5ED1";
paths = (
{
closed = 1;
nodes = (
"617 0 LINE",
"617 700 LINE",
"507 700 LINE",
"507 0 LINE"
);
},
{
closed = 1;
nodes = (
"208 0 LINE",
"208 700 LINE",
"98 700 LINE",
"98 0 LINE"
);
},
{
closed = 1;
nodes = (
"542 267 LINE",
"542 432 LINE",
"139 432 LINE",
"139 267 LINE"
);
}
);
userData = {
com.typemytype.robofont.guides = (
{
isGlobal = 0;
magnetic = 5;
x = 0;
y = 657;
}
);
};
width = 715;
},
{
associatedMasterId = "7F56E5C1-F146-4434-90E4-DA1B70285074";
layerId = "B49519BE-4AE6-40FF-B22D-9542B16A4142";
name = "Apr 16 19, 21:45";
paths = (
{
closed = 1;
nodes = (
"544 0 LINE",
"693 700 LINE",
"638 700 LINE",
"489 0 LINE"
);
},
{
closed = 1;
nodes = (
"110 0 LINE",
"259 700 LINE",
"204 700 LINE",
"55 0 LINE"
);
},
{
closed = 1;
nodes = (
"589 307 LINE",
"607 392 LINE",
"179 392 LINE",
"161 307 LINE"
);
},
{
closed = 1;
nodes = (
"85 0 LINE",
"72 79 LINE",
"-10 58 LINE",
"-10 0 LINE"
);
},
{
closed = 1;
nodes = (
"114 642 LINE",
"187 621 LINE",
"234 700 LINE",
"114 700 LINE"
);
},
{
closed = 1;
nodes = (
"199 0 LINE",
"199 58 LINE",
"127 81 LINE",
"80 0 LINE"
);
},
{
closed = 1;
nodes = (
"242 619 LINE",
"323 642 LINE",
"323 700 LINE",
"229 700 LINE"
);
},
{
closed = 1;
nodes = (
"519 0 LINE",
"506 79 LINE",
"424 58 LINE",
"424 0 LINE"
);
},
{
closed = 1;
nodes = (
"633 0 LINE",
"633 58 LINE",
"561 81 LINE",
"514 0 LINE"
);
},
{
closed = 1;
nodes = (
"676 619 LINE",
"757 642 LINE",
"757 700 LINE",
"663 700 LINE"
);
},
{
closed = 1;
nodes = (
"548 642 LINE",
"621 621 LINE",
"668 700 LINE",
"548 700 LINE"
);
}
);
userData = {
com.typemytype.robofont.guides = (
{
isGlobal = 0;
magnetic = 5;
x = 0;
y = 657;
}
);
};
width = 742;
}
);
leftKerningGroup = H;
rightKerningGroup = H;
rightMetricsKey = "=|";
unicode = 0048;
},
{
glyphname = Hbar;
lastChange = "2023-05-24 10:46:21 +0000";
layers = (
{
hints = (
{
origin = "{1, 3}";
type = Corner;
name = _corner.serifBottomLeft;
},
{
origin = "{0, 3}";
type = Corner;
name = _corner.serifBottomLeft;
},
{
origin = "{0, 1}";
type = Corner;
name = _corner.serifBottomLeft;
},
{
origin = "{1, 1}";
type = Corner;
name = _corner.serifBottomLeft;
},
{
origin = "{1, 2}";
type = Corner;
name = _corner.serifBottomRight;
options = 1;
},
{
origin = "{0, 2}";
type = Corner;
name = _corner.serifBottomRight;
options = 1;
},
{
origin = "{0, 0}";
type = Corner;
name = _corner.serifBottomRight;
options = 1;
},
{
origin = "{1, 0}";
type = Corner;
name = _corner.serifBottomRight;
options = 1;
}
);
layerId = master01;
paths = (
{
closed = 1;
nodes = (
"565 0 LINE",
"565 700 LINE",
"549 700 LINE",
"549 0 LINE"
);
},
{
closed = 1;
nodes = (
"127 0 LINE",
"127 700 LINE",
"111 700 LINE",
"111 0 LINE"
);
},
{
closed = 1;
nodes = (
"558 345 LINE",
"558 370 LINE",
"120 370 LINE",
"120 345 LINE"
);
},
{
closed = 1;
nodes = (
"628 543 LINE",
"632 548 LINE",
"624 559 LINE",
"44 559 LINE",
"40 555 LINE",
"49 543 LINE"
);
}
);
width = 672;
},
{
hints = (
{
origin = "{1, 3}";
type = Corner;
name = _corner.serifBottomLeft;
},
{
origin = "{1, 1}";
type = Corner;
name = _corner.serifBottomLeft;
},
{
origin = "{0, 1}";
type = Corner;
name = _corner.serifBottomLeft;
},
{
origin = "{0, 3}";
type = Corner;
name = _corner.serifBottomLeft;
},
{
origin = "{1, 0}";
type = Corner;
name = _corner.serifBottomRight;
options = 1;
},
{
origin = "{0, 0}";
type = Corner;
name = _corner.serifBottomRight;
options = 1;
},
{
origin = "{0, 2}";
type = Corner;
name = _corner.serifBottomRight;
options = 1;
},
{
origin = "{1, 2}";
type = Corner;
name = _corner.serifBottomRight;
options = 1;
}
);
layerId = "7F56E5C1-F146-4434-90E4-DA1B70285074";
paths = (
{
closed = 1;
nodes = (
"605 0 LINE",
"605 700 LINE",
"550 700 LINE",
"550 0 LINE"
);
},
{
closed = 1;
nodes = (
"171 0 LINE",
"171 700 LINE",
"116 700 LINE",
"116 0 LINE"
);
},
{
closed = 1;
nodes = (
"575 307 LINE",
"575 392 LINE",
"147 392 LINE",
"147 307 LINE"
);
},
{
closed = 1;
nodes = (
"653 493 LINE",
"677 538 LINE",
"669 549 LINE",
"59 549 LINE",
"35 505 LINE",
"44 493 LINE"
);
}
);
width = 717;
},
{
hints = (
{
origin = "{1, 3}";
type = Corner;
name = _corner.serifBottomLeft;
},
{
origin = "{0, 3}";
type = Corner;
name = _corner.serifBottomLeft;
},
{
origin = "{0, 1}";
type = Corner;
name = _corner.serifBottomLeft;
},
{
origin = "{1, 1}";
type = Corner;
name = _corner.serifBottomLeft;
},
{
origin = "{1, 2}";
type = Corner;
name = _corner.serifBottomRight;
options = 1;
},
{
origin = "{0, 2}";
type = Corner;
name = _corner.serifBottomRight;
options = 1;
},
{
origin = "{0, 0}";
type = Corner;
name = _corner.serifBottomRight;
options = 1;
},
{
origin = "{1, 0}";
type = Corner;
name = _corner.serifBottomRight;
options = 1;
}
);
layerId = "3CA830F5-1E41-4F35-86DC-34C8110F5ED1";
paths = (
{
closed = 1;
nodes = (
"632 0 LINE",
"632 700 LINE",
"522 700 LINE",
"522 0 LINE"
);
},
{
closed = 1;
nodes = (
"223 0 LINE",
"223 700 LINE",
"113 700 LINE",
"113 0 LINE"
);
},
{
closed = 1;
nodes = (
"557 267 LINE",
"557 392 LINE",
"154 392 LINE",
"154 267 LINE"
);
},
{
closed = 1;
nodes = (
"688 436 LINE",
"712 481 LINE",
"704 492 LINE",
"54 492 LINE",
"30 448 LINE",
"39 436 LINE"
);
}
);
width = 742;
}
);
leftKerningGroup = H;
leftMetricsKey = H;
rightKerningGroup = H;
rightMetricsKey = H;
unicode = 0126;
},
{
glyphname = I;
lastChange = "2023-04-18 06:35:21 +0000";
layers = (
{
anchors = (
{
name = bottom;
position = "{114, 0}";
},
{
name = ogonek;
position = "{184, 0}";
},
{
name = top;
position = "{114, 700}";
},
{
name = topleft;
position = "{20, 700}";
}
);
hints = (
{
origin = "{0, 0}";
type = Corner;
name = _corner.serifBottomRight;
options = 1;
},
{
origin = "{0, 1}";
type = Corner;
name = _corner.serifBottomLeft;
},
{
origin = "{0, 2}";
type = Corner;
name = _corner.serifBottomRight;
options = 1;
},
{
origin = "{0, 3}";
type = Corner;
name = _corner.serifBottomLeft;
}
);
layerId = master01;
paths = (
{
closed = 1;
nodes = (
"122 0 LINE",
"122 700 LINE",
"106 700 LINE",
"106 0 LINE"
);
}
);
vertWidth = 750;
width = 228;
},
{
anchors = (
{
name = bottom;
position = "{140, 0}";
},
{
name = ogonek;
position = "{212, 0}";
},
{
name = top;
position = "{140, 700}";
},
{
name = topleft;
position = "{20, 700}";
}
);
hints = (
{
origin = "{0, 0}";
type = Corner;
name = _corner.serifBottomRight;
options = 1;
},
{
origin = "{0, 1}";
type = Corner;
name = _corner.serifBottomLeft;
},
{
origin = "{0, 2}";
type = Corner;
name = _corner.serifBottomRight;
options = 1;
},
{
origin = "{0, 3}";
type = Corner;
name = _corner.serifBottomLeft;
}
);
layerId = "7F56E5C1-F146-4434-90E4-DA1B70285074";
paths = (
{
closed = 1;
nodes = (
"167 0 LINE",
"167 700 LINE",
"112 700 LINE",
"112 0 LINE"
);
}
);
width = 279;
},
{
anchors = (
{
name = bottom;
position = "{153, 0}";
},
{
name = ogonek;
position = "{208, 0}";
},
{
name = top;
position = "{153, 700}";
},
{
name = topleft;
position = "{20, 700}";
}
);
hints = (
{
origin = "{0, 0}";
type = Corner;
name = _corner.serifBottomRight;
options = 1;
},
{
origin = "{0, 1}";
type = Corner;
name = _corner.serifBottomLeft;
},
{
origin = "{0, 2}";
type = Corner;
name = _corner.serifBottomRight;
options = 1;
},
{
origin = "{0, 3}";
type = Corner;
name = _corner.serifBottomLeft;
}
);
layerId = "3CA830F5-1E41-4F35-86DC-34C8110F5ED1";
paths = (
{
closed = 1;
nodes = (
"208 0 LINE",
"208 700 LINE",
"98 700 LINE",
"98 0 LINE"
);
}
);
width = 306;
}
);
leftKerningGroup = H;
leftMetricsKey = H;
rightKerningGroup = H;
rightMetricsKey = H;
unicode = 0049;
},
{
glyphname = J;
lastChange = "2023-05-28 18:43:52 +0000";
layers = (
{
anchors = (
{
name = bottom;
position = "{131, 0}";
},
{
name = top;
position = "{131, 700}";
}
);
background = {
paths = (
{
closed = 1;
nodes = (
"129 -93 OFFCURVE",
"165 17 OFFCURVE",
"165 140 CURVE SMOOTH",
"165 700 LINE",
"149 700 LINE",
"149 141 LINE SMOOTH",
"149 8 OFFCURVE",
"109 -77 OFFCURVE",
"-25 -107 CURVE",
"-8 -135 LINE"
);
}
);
};
hints = (
{
origin = "{0, 3}";
type = Corner;
name = _corner.serifBottomLeft;
},
{
origin = "{0, 4}";
type = Corner;
name = _corner.serifBottomRight;
options = 1;
}
);
layerId = master01;
paths = (
{
closed = 1;
nodes = (
"138 20 OFFCURVE",
"165 66 OFFCURVE",
"165 200 CURVE SMOOTH",
"165 700 LINE",
"149 700 LINE",
"149 201 LINE SMOOTH",
"149 61 OFFCURVE",
"119 38 OFFCURVE",
"15 23 CURVE",
"32 -5 LINE"
);
}
);
vertWidth = 750;
width = 261;
},
{
anchors = (
{
name = bottom;
position = "{148, 0}";
},
{
name = top;
position = "{148, 700}";
}
);
background = {
paths = (
{
closed = 1;
nodes = (
"155 -123 OFFCURVE",
"194 -13 OFFCURVE",
"194 110 CURVE SMOOTH",
"194 700 LINE",
"139 700 LINE",
"139 101 LINE SMOOTH",
"139 5 OFFCURVE",
"99 -54 OFFCURVE",
"-35 -77 CURVE",
"6 -165 LINE"
);
}
);
};
hints = (
{
origin = "{0, 3}";
type = Corner;
name = _corner.serifBottomLeft;
},
{
origin = "{0, 4}";
type = Corner;
name = _corner.serifBottomRight;
options = 1;
}
);
layerId = "7F56E5C1-F146-4434-90E4-DA1B70285074";
paths = (
{
closed = 1;
nodes = (
"163 10 OFFCURVE",
"194 112 OFFCURVE",
"194 225 CURVE SMOOTH",
"194 700 LINE",
"139 700 LINE",
"139 216 LINE SMOOTH",
"139 132 OFFCURVE",
"108 81 OFFCURVE",
"5 78 CURVE",
"46 -10 LINE"
);
}
);
vertWidth = 750;
width = 296;
},
{
anchors = (
{
name = bottom;
position = "{179, 0}";
},
{
name = top;
position = "{179, 700}";
}
);
background = {
paths = (
{
closed = 1;
nodes = (
"219 -173 OFFCURVE",
"269 -63 OFFCURVE",
"269 60 CURVE SMOOTH",
"269 700 LINE",
"159 700 LINE",
"159 91 LINE SMOOTH",
"159 6 OFFCURVE",
"114 -29 OFFCURVE",
"-35 -47 CURVE",
"26 -215 LINE"
);
}
);
};
hints = (
{
origin = "{0, 3}";
type = Corner;
name = _corner.serifBottomLeft;
},
{
origin = "{0, 4}";
type = Corner;
name = _corner.serifBottomRight;
options = 1;
}
);
layerId = "3CA830F5-1E41-4F35-86DC-34C8110F5ED1";
paths = (
{
closed = 1;
nodes = (
"230 15 OFFCURVE",
"269 125 OFFCURVE",
"269 243 CURVE SMOOTH",
"269 700 LINE",
"159 700 LINE",
"159 274 LINE SMOOTH",
"159 196 OFFCURVE",
"127 160 OFFCURVE",
"15 156 CURVE",
"76 -12 LINE"
);
}
);
vertWidth = 750;
width = 357;
}
);
leftKerningGroup = J;
rightKerningGroup = J;
rightMetricsKey = U;
unicode = 004A;
},
{
glyphname = K;
lastChange = "2023-05-24 10:51:10 +0000";
layers = (
{
anchors = (
{
name = bottom;
position = "{299, 0}";
},
{
name = top;
position = "{299, 700}";
}
);
background = {
hints = (
{
place = "{122, 0}";
type = Corner;
name = _corner.serifBottomRight;
options = 1;
},
{
place = "{122, 0}";
type = Corner;
name = _corner.serifBottomLeft;
},
{
place = "{106, 0}";
type = Corner;
name = _corner.serifBottomRight;
options = 1;
},
{
place = "{106, 0}";
type = Corner;
name = _corner.serifBottomLeft;
},
{
origin = "{1, 0}";
type = Corner;
name = _corner.serifBottomRight;
options = 1;
},
{
origin = "{1, 1}";
type = Corner;
name = _corner.serifBottomLeft;
},
{
origin = "{1, 2}";
type = Corner;
name = _corner.serifBottomRight;
options = 1;
},
{
origin = "{1, 3}";
type = Corner;
name = _corner.serifBottomLeft;
}
);
paths = (
{
closed = 1;
nodes = (
"577 20 LINE",
"377 58 OFFCURVE",
"402 351 OFFCURVE",
"252 351 CURVE",
"241 335 LINE",
"389 335 OFFCURVE",
"363 34 OFFCURVE",
"560 -5 CURVE"
);
},
{
closed = 1;
nodes = (
"122 0 LINE",
"122 700 LINE",
"106 700 LINE",
"106 0 LINE"
);
},
{
closed = 1;
nodes = (
"262 335 LINE",
"273 360 LINE",
"115 360 LINE",
"115 335 LINE"
);
},
{
closed = 1;
nodes = (
"498 697 LINE",
"477 697 LINE",
"253 351 LINE",
"264 340 LINE"
);
},
{
closed = 1;
nodes = (
"471 686 LINE",
"481 686 LINE",
"472 662 LINE",
"540 686 LINE",
"540 700 LINE",
"392 700 LINE",
"392 686 LINE",
"456 661 LINE"
);
}
);
};
hints = (
{
origin = "{1, 0}";
type = Corner;
name = _corner.serifBottomRight;
options = 1;
},
{
origin = "{1, 1}";
type = Corner;
name = _corner.serifBottomLeft;
},
{
origin = "{1, 2}";
type = Corner;
name = _corner.serifBottomRight;
options = 1;
},
{
origin = "{1, 3}";
type = Corner;
name = _corner.serifBottomLeft;
},
{
origin = "{0, 12}";
type = Corner;
name = _corner.serifBottomLeft;
},
{
origin = "{0, 0}";
scale = "{0.9, 1}";
type = Corner;
name = _corner.serifBottomRight;
options = 1;
}
);
layerId = master01;
paths = (
{
closed = 1;
nodes = (
"532 0 LINE",
"257 352 LINE",
"257 344 LINE",
"489 674 LINE",
"479 664 LINE",
"540 684 LINE",
"540 700 LINE",
"397 700 LINE",
"397 684 LINE",
"471 664 LINE",
"467 671 LINE",
"238 348 LINE",
"511 0 LINE"
);
},
{
closed = 1;
nodes = (
"122 0 LINE",
"122 700 LINE",
"106 700 LINE",
"106 0 LINE"
);
},
{
closed = 1;
nodes = (
"253 335 LINE",
"253 360 LINE {name = \"🧨\";}",
"115 360 LINE",
"115 335 LINE"
);
}
);
vertWidth = 750;
width = 591;
},
{
anchors = (
{
name = bottom;
position = "{314, 0}";
},
{
name = top;
position = "{324, 700}";
}
);
background = {
hints = (
{
place = "{167, 0}";
type = Corner;
name = _corner.serifBottomRight;
options = 1;
},
{
place = "{167, 0}";
type = Corner;
name = _corner.serifBottomLeft;
},
{
place = "{112, 0}";
type = Corner;
name = _corner.serifBottomRight;
options = 1;
},
{
place = "{112, 0}";
type = Corner;
name = _corner.serifBottomLeft;
},
{
origin = "{4, 0}";
type = Corner;
name = _corner.serifBottomRight;
options = 1;
},
{
origin = "{4, 1}";
type = Corner;
name = _corner.serifBottomLeft;
},
{
origin = "{4, 2}";
type = Corner;
name = _corner.serifBottomRight;
options = 1;
},
{
origin = "{4, 3}";
type = Corner;
name = _corner.serifBottomLeft;
}
);
paths = (
{
closed = 1;
nodes = (
"602 72 LINE",
"428 101 OFFCURVE",
"440 345 OFFCURVE",
"268 361 CURVE",
"247 310 LINE",
"413 310 OFFCURVE",
"382 18 OFFCURVE",
"565 -10 CURVE"
);
},
{
closed = 1;
nodes = (
"151 310 LINE",
"268 310 LINE",
"279 390 LINE",
"151 390 LINE"
);
},
{
closed = 1;
nodes = (
"302 338 LINE",
"545 697 LINE",
"477 697 LINE",
"249 351 LINE"
);
},
{
closed = 1;
nodes = (
"487 642 LINE",
"479 612 LINE",
"565 642 LINE",
"565 700 LINE",
"378 700 LINE",
"378 642 LINE",
"456 611 LINE",
"473 642 LINE"
);
},
{
closed = 1;
nodes = (
"167 0 LINE",
"167 700 LINE",
"112 700 LINE",
"112 0 LINE"
);
}
);
};
hints = (
{
origin = "{1, 0}";
type = Corner;
name = _corner.serifBottomRight;
options = 1;
},
{
origin = "{1, 1}";
type = Corner;
name = _corner.serifBottomLeft;
},
{
origin = "{1, 2}";
type = Corner;
name = _corner.serifBottomRight;
options = 1;
},
{
origin = "{1, 3}";
type = Corner;
name = _corner.serifBottomLeft;
},
{
origin = "{0, 12}";
scale = "{0.8, 1}";
type = Corner;
name = _corner.serifBottomLeft;
},
{
origin = "{0, 0}";
scale = "{1.06, 1}";
type = Corner;
name = _corner.serifBottomRight;
options = 1;
}
);
layerId = "7F56E5C1-F146-4434-90E4-DA1B70285074";
paths = (
{
closed = 1;
nodes = (
"585 0 LINE",
"308 361 LINE",
"308 350 LINE",
"524 633 LINE",
"503 618 LINE",
"595 642 LINE",
"595 700 LINE",
"393 700 LINE",
"393 642 LINE",
"465 615 LINE",
"464 633 LINE",
"248 350 LINE",
"518 0 LINE"
);
},
{
closed = 1;
nodes = (
"167 0 LINE",
"167 700 LINE",
"112 700 LINE",
"112 0 LINE"
);
},
{
closed = 1;
nodes = (
"294 310 LINE",
"294 390 LINE",
"151 390 LINE",
"151 310 LINE"
);
}
);
vertWidth = 750;
width = 647;
},
{
anchors = (
{
name = bottom;
position = "{337, 0}";
},
{
name = top;
position = "{337, 700}";
}
);
background = {
hints = (
{
origin = "{4, 0}";
type = Corner;
name = _corner.serifBottomRight;
options = 1;
},
{
origin = "{4, 1}";
type = Corner;
name = _corner.serifBottomLeft;
},
{
origin = "{4, 2}";
type = Corner;
name = _corner.serifBottomRight;
options = 1;
},
{
origin = "{4, 3}";
type = Corner;
name = _corner.serifBottomLeft;
}
);
paths = (
{
closed = 1;
nodes = (
"633 155 LINE",
"426 183 OFFCURVE",
"453 381 OFFCURVE",
"254 381 CURVE",
"233 275 LINE",
"383 275 OFFCURVE",
"344 5 OFFCURVE",
"566 -10 CURVE"
);
},
{
closed = 1;
nodes = (
"137 275 LINE",
"254 275 LINE",
"295 410 LINE",
"137 410 LINE"
);
},
{
closed = 1;
nodes = (
"335 328 LINE",
"540 592 LINE",
"463 654 LINE",
"236 351 LINE"
);
},
{
closed = 1;
nodes = (
"461 562 LINE",
"453 532 LINE",
"576 562 LINE",
"576 700 LINE",
"324 700 LINE",
"324 562 LINE",
"412 531 LINE",
"429 562 LINE"
);
},
{
closed = 1;
nodes = (
"208 0 LINE",
"208 700 LINE",
"98 700 LINE",
"98 0 LINE"
);
}
);
};
hints = (
{
origin = "{1, 0}";
type = Corner;
name = _corner.serifBottomRight;
options = 1;
},
{
origin = "{1, 1}";
type = Corner;
name = _corner.serifBottomLeft;
},
{
origin = "{1, 2}";
type = Corner;
name = _corner.serifBottomRight;
options = 1;
},
{
origin = "{1, 3}";
type = Corner;
name = _corner.serifBottomLeft;
},
{
origin = "{0, 12}";
type = Corner;
name = _corner.serifBottomLeft;
},
{
origin = "{0, 0}";
scale = "{1.33, 1}";
type = Corner;
name = _corner.serifBottomRight;
options = 1;
}
);
layerId = "3CA830F5-1E41-4F35-86DC-34C8110F5ED1";
paths = (
{
closed = 1;
nodes = (
"704 0 LINE",
"361 384 LINE",
"361 354 LINE",
"568 563 LINE",
"494 515 LINE",
"615 562 LINE",
"615 700 LINE",
"351 700 LINE",
"351 562 LINE",
"452 511 LINE",
"444 563 LINE",
"245 361 LINE",
"571 0 LINE"
);
},
{
closed = 1;
nodes = (
"208 0 LINE",
"208 700 LINE",
"98 700 LINE",
"98 0 LINE"
);
},
{
closed = 1;
nodes = (
"350 275 LINE",
"350 410 LINE",
"137 410 LINE",
"137 275 LINE"
);
}
);
vertWidth = 750;
width = 663;
}
);
leftKerningGroup = H;
leftMetricsKey = H;
rightKerningGroup = K;
unicode = 004B;
},
{
glyphname = L;
lastChange = "2023-05-24 10:52:58 +0000";
layers = (
{
anchors = (
{
name = bottom;
position = "{259, 0}";
},
{
name = center;
position = "{129, 350}";
},
{
name = top;
position = "{114, 700}";
},
{
name = topright;
position = "{203, 445}";
}
);
hints = (
{
origin = "{0, 8}";
type = Corner;
name = _corner.serifBottomRight;
options = 1;
},
{
origin = "{0, 9}";
type = Corner;
name = _corner.serifBottomLeft;
},
{
origin = "{0, 7}";
type = Corner;
name = _corner.serifBottomLeft;
}
);
layerId = master01;
paths = (
{
closed = 1;
nodes = (
"457 0 LINE",
"482 163 LINE",
"465 165 LINE",
"425 9 LINE",
"451 25 LINE",
"115 25 LINE",
"122 19 LINE",
"122 700 LINE",
"106 700 LINE",
"106 0 LINE"
);
}
);
width = 517;
},
{
anchors = (
{
name = bottom;
position = "{264, 0}";
},
{
name = center;
position = "{154, 350}";
},
{
name = top;
position = "{140, 700}";
},
{
name = topright;
position = "{253, 445}";
}
);
hints = (
{
origin = "{0, 8}";
type = Corner;
name = _corner.serifBottomRight;
options = 1;
},
{
origin = "{0, 9}";
type = Corner;
name = _corner.serifBottomLeft;
},
{
origin = "{0, 7}";
type = Corner;
name = _corner.serifBottomLeft;
}
);
layerId = "7F56E5C1-F146-4434-90E4-DA1B70285074";
paths = (
{
closed = 1;
nodes = (
"483 0 LINE",
"498 163 LINE",
"463 170 LINE",
"421 62 LINE",
"455 85 LINE",
"151 85 LINE",
"167 64 LINE",
"167 700 LINE",
"112 700 LINE",
"112 0 LINE"
);
}
);
width = 528;
},
{
anchors = (
{
name = bottom;
position = "{282, 0}";
},
{
name = center;
position = "{162, 350}";
},
{
name = top;
position = "{153, 700}";
},
{
name = topright;
position = "{283, 459}";
}
);
hints = (
{
origin = "{0, 8}";
type = Corner;
name = _corner.serifBottomRight;
options = 1;
},
{
origin = "{0, 9}";
type = Corner;
name = _corner.serifBottomLeft;
},
{
origin = "{0, 7}";
type = Corner;
name = _corner.serifBottomLeft;
}
);
layerId = "3CA830F5-1E41-4F35-86DC-34C8110F5ED1";
paths = (
{
closed = 1;
nodes = (
"524 0 LINE",
"539 243 LINE",
"454 260 LINE",
"409 142 LINE",
"443 165 LINE",
"186 165 LINE",
"208 137 LINE",
"208 700 LINE",
"98 700 LINE",
"98 0 LINE"
);
}
);
width = 564;
}
);
leftKerningGroup = H;
leftMetricsKey = H;
rightKerningGroup = L;
unicode = 004C;
},
{
glyphname = M;
lastChange = "2023-05-28 18:49:01 +0000";
layers = (
{
background = {
paths = (
{
closed = 1;
nodes = (
"451 0 LINE",
"693 627 LINE",
"659 614 LINE",
"746 614 LINE",
"718 629 LINE",
"805 0 LINE",
"821 0 LINE",
"723 705 LINE",
"707 705 LINE",
"466 91 LINE",
"415 91 LINE",
"175 705 LINE",
"159 705 LINE",
"61 0 LINE",
"76 0 LINE",
"164 629 LINE",
"136 614 LINE",
"223 614 LINE",
"189 627 LINE",
"430 0 LINE"
);
}
);
};
hints = (
{
origin = "{0, 11}";
type = Corner;
name = _corner.serifBottomLeft;
},
{
origin = "{0, 21}";
type = Corner;
name = _corner.serifBottomLeft;
},
{
origin = "{0, 12}";
type = Corner;
name = _corner.serifBottomRight;
options = 1;
},
{
origin = "{0, 0}";
type = Corner;
name = _corner.serifBottomRight;
options = 1;
}
);
layerId = master01;
paths = (
{
closed = 1;
nodes = (
"96 0 LINE",
"187 659 LINE",
"173 614 LINE",
"224 614 LINE",
"197 653 LINE",
"430 0 LINE",
"451 0 LINE",
"684 649 LINE",
"659 614 LINE",
"708 614 LINE",
"694 650 LINE",
"785 0 LINE",
"801 0 LINE",
"703 705 LINE",
"687 705 LINE",
"450 48 LINE",
"473 79 LINE {name = \"🧨\";}",
"407 79 LINE",
"431 48 LINE",
"195 705 LINE",
"179 705 LINE",
"81 0 LINE"
);
}
);
vertWidth = 750;
width = 882;
},
{
hints = (
{
origin = "{0, 21}";
type = Corner;
name = _corner.serifBottomLeft;
},
{
origin = "{0, 11}";
type = Corner;
name = _corner.serifBottomLeft;
},
{
origin = "{0, 0}";
type = Corner;
name = _corner.serifBottomRight;
options = 1;
},
{
origin = "{0, 12}";
type = Corner;
name = _corner.serifBottomRight;
options = 1;
}
);
layerId = "7F56E5C1-F146-4434-90E4-DA1B70285074";
paths = (
{
closed = 1;
nodes = (
"145 0 LINE",
"223 569 LINE",
"195 544 LINE",
"274 544 LINE",
"240 567 LINE",
"438 0 LINE",
"498 0 LINE",
"697 567 LINE",
"663 544 LINE",
"742 544 LINE",
"714 569 LINE",
"792 0 LINE",
"850 0 LINE",
"752 705 LINE",
"688 705 LINE",
"477 98 LINE",
"511 121 LINE",
"426 121 LINE",
"460 98 LINE",
"249 705 LINE",
"186 705 LINE",
"89 0 LINE"
);
}
);
vertWidth = 750;
width = 939;
},
{
hints = (
{
origin = "{0, 21}";
type = Corner;
name = _corner.serifBottomLeft;
},
{
origin = "{0, 11}";
type = Corner;
name = _corner.serifBottomLeft;
},
{
origin = "{0, 12}";
type = Corner;
name = _corner.serifBottomRight;
options = 1;
},
{
origin = "{0, 0}";
type = Corner;
name = _corner.serifBottomRight;
options = 1;
}
);
layerId = "3CA830F5-1E41-4F35-86DC-34C8110F5ED1";
paths = (
{
closed = 1;
nodes = (
"180 0 LINE",
"241 458 LINE",
"213 433 LINE",
"286 433 LINE",
"252 456 LINE",
"403 0 LINE",
"533 0 LINE",
"685 456 LINE",
"651 433 LINE",
"724 433 LINE",
"696 458 LINE",
"757 0 LINE",
"874 0 LINE",
"776 705 LINE",
"660 705 LINE",
"474 181 LINE",
"508 204 LINE",
"428 204 LINE",
"462 181 LINE",
"277 705 LINE",
"161 705 LINE",
"64 0 LINE"
);
}
);
vertWidth = 750;
width = 938;
}
);
leftKerningGroup = M;
rightKerningGroup = M;
rightMetricsKey = "=|";
unicode = 004D;
},
{
glyphname = N;
lastChange = "2023-05-24 11:28:47 +0000";
layers = (
{
anchors = (
{
name = bottom;
position = "{329, 0}";
},
{
name = top;
position = "{329, 700}";
}
);
hints = (
{
origin = "{0, 6}";
type = Corner;
name = _corner.serifBottomRight;
options = 1;
},
{
origin = "{0, 11}";
type = Corner;
name = _corner.serifBottomLeft;
},
{
origin = "{0, 5}";
type = Corner;
name = _corner.serifBottomLeft;
},
{
origin = "{0, 0}";
type = Corner;
name = _corner.serifBottomRight;
options = 1;
},
{
origin = "{0, 10}";
type = Corner;
name = _corner.serifBottomRight;
options = 1;
}
);
layerId = master01;
paths = (
{
closed = 1;
nodes = (
"122 0 LINE",
"122 683 LINE",
"113 672 LINE",
"540 0 LINE",
"556 0 LINE",
"556 700 LINE",
"540 700 LINE",
"540 17 LINE",
"553 28 LINE",
"122 700 LINE",
"106 700 LINE",
"106 0 LINE"
);
}
);
vertWidth = 750;
width = 657;
},
{
anchors = (
{
name = bottom;
position = "{352, 0}";
},
{
name = top;
position = "{352, 700}";
}
);
hints = (
{
origin = "{0, 0}";
type = Corner;
name = _corner.serifBottomRight;
options = 1;
},
{
origin = "{0, 6}";
type = Corner;
name = _corner.serifBottomRight;
options = 1;
},
{
origin = "{0, 11}";
type = Corner;
name = _corner.serifBottomLeft;
},
{
origin = "{0, 5}";
type = Corner;
name = _corner.serifBottomLeft;
},
{
origin = "{0, 10}";
type = Corner;
name = _corner.serifBottomRight;
options = 1;
}
);
layerId = "7F56E5C1-F146-4434-90E4-DA1B70285074";
paths = (
{
closed = 1;
nodes = (
"167 0 LINE",
"167 588 LINE",
"153 584 LINE",
"546 0 LINE",
"601 0 LINE",
"601 700 LINE",
"546 700 LINE",
"546 109 LINE",
"560 113 LINE",
"167 700 LINE",
"112 700 LINE",
"112 0 LINE"
);
}
);
vertWidth = 750;
width = 703;
},
{
anchors = (
{
name = bottom;
position = "{360, 0}";
},
{
name = top;
position = "{360, 700}";
}
);
hints = (
{
origin = "{0, 0}";
type = Corner;
name = _corner.serifBottomRight;
options = 1;
},
{
origin = "{0, 6}";
type = Corner;
name = _corner.serifBottomRight;
options = 1;
},
{
origin = "{0, 5}";
type = Corner;
name = _corner.serifBottomLeft;
},
{
origin = "{0, 10}";
type = Corner;
name = _corner.serifBottomRight;
options = 1;
},
{
origin = "{0, 11}";
type = Corner;
name = _corner.serifBottomLeft;
}
);
layerId = "3CA830F5-1E41-4F35-86DC-34C8110F5ED1";
paths = (
{
closed = 1;
nodes = (
"208 0 LINE",
"208 448 LINE",
"193 443 LINE",
"522 0 LINE",
"632 0 LINE",
"632 700 LINE",
"522 700 LINE",
"522 247 LINE",
"537 252 LINE",
"208 700 LINE",
"98 700 LINE",
"98 0 LINE"
);
}
);
vertWidth = 750;
width = 720;
}
);
leftKerningGroup = H;
leftMetricsKey = H;
rightKerningGroup = N;
unicode = 004E;
},
{
glyphname = Eng;
lastChange = "2023-04-18 06:35:21 +0000";
layers = (
{
components = (
{
name = N;
}
);
layerId = master01;
paths = (
{
closed = 1;
nodes = (
"526 -213 OFFCURVE",
"556 -142 OFFCURVE",
"556 1 CURVE",
"540 1 LINE",
"540 -145 OFFCURVE",
"507 -197 OFFCURVE",
"396 -227 CURVE",
"413 -255 LINE"
);
}
);
width = 657;
},
{
components = (
{
name = N;
}
);
layerId = "7F56E5C1-F146-4434-90E4-DA1B70285074";
paths = (
{
closed = 1;
nodes = (
"566 -229 OFFCURVE",
"602 -121 OFFCURVE",
"601 9 CURVE",
"546 0 LINE",
"546 -103 OFFCURVE",
"511 -160 OFFCURVE",
"392 -172 CURVE",
"433 -260 LINE"
);
}
);
width = 703;
},
{
background = {
components = (
{
name = N;
}
);
paths = (
{
closed = 1;
nodes = (
"522 6 LINE",
"522 -55 OFFCURVE",
"477 -79 OFFCURVE",
"328 -92 CURVE",
"389 -260 LINE",
"582 -220 OFFCURVE",
"632 -114 OFFCURVE",
"632 5 CURVE"
);
}
);
};
components = (
{
name = N;
}
);
layerId = "3CA830F5-1E41-4F35-86DC-34C8110F5ED1";
paths = (
{
closed = 1;
nodes = (
"596 -220 OFFCURVE",
"632 -114 OFFCURVE",
"632 5 CURVE",
"522 6 LINE",
"522 -55 OFFCURVE",
"493 -79 OFFCURVE",
"398 -92 CURVE",
"459 -260 LINE"
);
}
);
width = 720;
}
);
leftKerningGroup = H;
leftMetricsKey = N;
rightKerningGroup = N;
rightMetricsKey = N;
unicode = 014A;
},
{
glyphname = O;
lastChange = "2023-05-28 18:47:10 +0000";
layers = (
{
anchors = (
{
name = bottom;
position = "{360, 0}";
},
{
name = center;
position = "{360, 350}";
},
{
name = ogonek;
position = "{644, 10}";
},
{
name = top;
position = "{360, 700}";
},
{
name = topleft;
position = "{25, 700}";
},
{
name = topright;
position = "{573, 700}";
}
);
layerId = master01;
paths = (
{
closed = 1;
nodes = (
"550 -5 OFFCURVE",
"660 137 OFFCURVE",
"660 350 CURVE SMOOTH",
"660 563 OFFCURVE",
"550 705 OFFCURVE",
"360 705 CURVE SMOOTH",
"171 705 OFFCURVE",
"60 563 OFFCURVE",
"60 350 CURVE SMOOTH",
"60 137 OFFCURVE",
"171 -5 OFFCURVE",
"360 -5 CURVE SMOOTH"
);
},
{
closed = 1;
nodes = (
"176 23 OFFCURVE",
"78 147 OFFCURVE",
"78 350 CURVE SMOOTH",
"78 553 OFFCURVE",
"176 677 OFFCURVE",
"360 677 CURVE SMOOTH",
"543 677 OFFCURVE",
"642 553 OFFCURVE",
"642 350 CURVE SMOOTH",
"642 147 OFFCURVE",
"543 23 OFFCURVE",
"360 23 CURVE SMOOTH"
);
}
);
vertWidth = 750;
width = 720;
},
{
anchors = (
{
name = bottom;
position = "{375, 0}";
},
{
name = center;
position = "{375, 350}";
},
{
name = ogonek;
position = "{675, 10}";
},
{
name = top;
position = "{375, 700}";
},
{
name = topleft;
position = "{20, 700}";
},
{
name = topright;
position = "{580, 700}";
}
);
layerId = "7F56E5C1-F146-4434-90E4-DA1B70285074";
paths = (
{
closed = 1;
nodes = (
"573 -10 OFFCURVE",
"689 134 OFFCURVE",
"689 350 CURVE SMOOTH {name = sh02;}",
"689 566 OFFCURVE",
"573 710 OFFCURVE",
"373 710 CURVE SMOOTH {name = at01;}",
"173 710 OFFCURVE",
"55 566 OFFCURVE",
"55 350 CURVE SMOOTH {name = sh01;}",
"55 134 OFFCURVE",
"173 -10 OFFCURVE",
"373 -10 CURVE SMOOTH {name = ab01;}"
);
},
{
closed = 1;
nodes = (
"203 78 OFFCURVE",
"113 176 OFFCURVE",
"113 350 CURVE SMOOTH {name = sh03;}",
"113 523 OFFCURVE",
"202 622 OFFCURVE",
"371 622 CURVE SMOOTH {name = sv02;}",
"540 622 OFFCURVE",
"631 522 OFFCURVE",
"631 350 CURVE SMOOTH {name = ah01;}",
"631 177 OFFCURVE",
"539 78 OFFCURVE",
"371 78 CURVE SMOOTH {name = sv01;}"
);
}
);
vertWidth = 750;
width = 744;
},
{
anchors = (
{
name = bottom;
position = "{360, 0}";
},
{
name = center;
position = "{360, 350}";
},
{
name = ogonek;
position = "{652, 10}";
},
{
name = top;
position = "{360, 700}";
},
{
name = topleft;
position = "{15, 700}";
},
{
name = topright;
position = "{535, 700}";
}
);
layerId = "3CA830F5-1E41-4F35-86DC-34C8110F5ED1";
paths = (
{
closed = 1;
nodes = (
"562 -10 OFFCURVE",
"680 134 OFFCURVE",
"680 350 CURVE SMOOTH",
"680 566 OFFCURVE",
"562 710 OFFCURVE",
"360 710 CURVE SMOOTH",
"158 710 OFFCURVE",
"40 566 OFFCURVE",
"40 350 CURVE SMOOTH",
"40 134 OFFCURVE",
"158 -10 OFFCURVE",
"360 -10 CURVE SMOOTH"
);
},
{
closed = 1;
nodes = (
"222 158 OFFCURVE",
"153 227 OFFCURVE",
"153 349 CURVE SMOOTH",
"153 472 OFFCURVE",
"224 542 OFFCURVE",
"359 542 CURVE SMOOTH",
"493 542 OFFCURVE",
"567 472 OFFCURVE",
"567 350 CURVE SMOOTH",
"567 227 OFFCURVE",
"491 158 OFFCURVE",
"357 158 CURVE SMOOTH"
);
}
);
vertWidth = 750;
width = 720;
}
);
leftKerningGroup = O;
rightKerningGroup = O;
rightMetricsKey = "=|";
unicode = 004F;
},
{
glyphname = OE;
lastChange = "2023-05-24 02:03:56 +0000";
layers = (
{
layerId = master01;
paths = (
{
closed = 1;
nodes = (
"821 0 LINE",
"846 163 LINE",
"829 165 LINE",
"785 9 LINE",
"815 25 LINE",
"412 25 LINE SMOOTH",
"194 25 OFFCURVE",
"78 148 OFFCURVE",
"78 350 CURVE SMOOTH",
"78 552 OFFCURVE",
"194 675 OFFCURVE",
"412 675 CURVE SMOOTH",
"803 675 LINE",
"770 698 LINE",
"819 554 LINE",
"836 557 LINE",
"811 700 LINE",
"412 700 LINE SMOOTH",
"190 700 OFFCURVE",
"60 560 OFFCURVE",
"60 350 CURVE SMOOTH",
"60 140 OFFCURVE",
"190 0 OFFCURVE",
"412 0 CURVE SMOOTH"
);
},
{
closed = 1;
nodes = (
"476 10 LINE {name = \"🧨\";}",
"476 688 LINE {name = \"🧨\";}",
"460 688 LINE {name = \"🧨\";}",
"460 10 LINE {name = \"🧨\";}"
);
},
{
closed = 1;
nodes = (
"705 351 LINE",
"705 372 LINE",
"469 372 LINE",
"469 351 LINE"
);
},
{
closed = 1;
nodes = (
"719 259 LINE",
"719 445 LINE",
"705 445 LINE",
"688 370 LINE",
"687 357 LINE",
"704 259 LINE"
);
}
);
width = 881;
},
{
layerId = "7F56E5C1-F146-4434-90E4-DA1B70285074";
paths = (
{
closed = 1;
nodes = (
"835 0 LINE",
"850 163 LINE",
"815 170 LINE",
"773 62 LINE",
"807 85 LINE",
"404 85 LINE SMOOTH",
"202 85 OFFCURVE",
"113 171 OFFCURVE",
"113 350 CURVE SMOOTH {name = sh03;}",
"113 529 OFFCURVE",
"202 615 OFFCURVE",
"404 615 CURVE SMOOTH",
"800 615 LINE",
"765 637 LINE",
"805 550 LINE",
"840 557 LINE",
"825 700 LINE",
"404 700 LINE SMOOTH",
"175 700 OFFCURVE",
"55 570 OFFCURVE",
"55 350 CURVE SMOOTH {name = sh01;}",
"55 130 OFFCURVE",
"175 0 OFFCURVE",
"404 0 CURVE SMOOTH"
);
},
{
closed = 1;
nodes = (
"519 40 LINE {name = \"🧨\";}",
"519 650 LINE {name = \"🧨\";}",
"464 650 LINE {name = \"🧨\";}",
"464 40 LINE {name = \"🧨\";}"
);
},
{
closed = 1;
nodes = (
"691 329 LINE",
"691 390 LINE",
"493 390 LINE",
"493 329 LINE"
);
},
{
closed = 1;
nodes = (
"733 259 LINE",
"733 446 LINE",
"691 446 LINE",
"670 370 LINE",
"669 347 LINE",
"690 259 LINE"
);
}
);
width = 880;
},
{
layerId = "3CA830F5-1E41-4F35-86DC-34C8110F5ED1";
paths = (
{
closed = 1;
nodes = (
"851 0 LINE",
"866 243 LINE",
"781 260 LINE",
"736 142 LINE",
"770 165 LINE",
"359 165 LINE SMOOTH",
"222 165 OFFCURVE",
"153 231 OFFCURVE",
"153 349 CURVE SMOOTH",
"153 468 OFFCURVE",
"224 535 OFFCURVE",
"359 535 CURVE SMOOTH",
"762 535 LINE",
"727 558 LINE",
"771 460 LINE",
"856 477 LINE",
"841 700 LINE",
"359 700 LINE SMOOTH",
"158 700 OFFCURVE",
"40 560 OFFCURVE",
"40 350 CURVE SMOOTH",
"40 140 OFFCURVE",
"158 0 OFFCURVE",
"359 0 CURVE SMOOTH"
);
},
{
closed = 1;
nodes = (
"535 90 LINE {name = \"🧨\";}",
"535 640 LINE {name = \"🧨\";}",
"425 640 LINE {name = \"🧨\";}",
"425 90 LINE {name = \"🧨\";}"
);
},
{
closed = 1;
nodes = (
"677 290 LINE",
"677 421 LINE",
"464 421 LINE",
"464 290 LINE"
);
},
{
closed = 1;
nodes = (
"719 237 LINE",
"719 469 LINE",
"627 469 LINE",
"606 373 LINE",
"605 350 LINE",
"626 237 LINE"
);
}
);
width = 891;
}
);
leftKerningGroup = O;
leftMetricsKey = O;
rightKerningGroup = E;
rightMetricsKey = E;
unicode = 0152;
},
{
glyphname = P;
lastChange = "2023-05-24 11:16:49 +0000";
layers = (
{
hints = (
{
origin = "{0, 20}";
type = Corner;
name = _corner.serifBottomLeft;
},
{
origin = "{0, 0}";
type = Corner;
name = _corner.serifBottomRight;
options = 1;
},
{
origin = "{0, 19}";
type = Corner;
name = _corner.serifBottomRight;
options = 1;
}
);
layerId = master01;
paths = (
{
closed = 1;
nodes = (
"122 0 LINE",
"122 683 LINE",
"114 675 LINE",
"266 675 LINE SMOOTH",
"381 675 OFFCURVE",
"442 619 OFFCURVE",
"442 503 CURVE SMOOTH",
"442 397 OFFCURVE",
"389 320 OFFCURVE",
"252 320 CURVE SMOOTH",
"117 320 LINE",
"117 300 LINE",
"252 300 LINE SMOOTH",
"345 300 OFFCURVE",
"461 340 OFFCURVE",
"461 503 CURVE SMOOTH",
"461 641 OFFCURVE",
"375 700 OFFCURVE",
"266 700 CURVE SMOOTH",
"106 700 LINE",
"106 0 LINE"
);
}
);
vertWidth = 750;
width = 496;
},
{
hints = (
{
origin = "{0, 20}";
type = Corner;
name = _corner.serifBottomLeft;
},
{
origin = "{0, 0}";
type = Corner;
name = _corner.serifBottomRight;
options = 1;
},
{
origin = "{0, 19}";
type = Corner;
name = _corner.serifBottomRight;
options = 1;
}
);
layerId = "7F56E5C1-F146-4434-90E4-DA1B70285074";
paths = (
{
closed = 1;
nodes = (
"167 0 LINE",
"167 640 LINE",
"142 615 LINE",
"310 615 LINE SMOOTH",
"395 615 OFFCURVE",
"433 575 OFFCURVE",
"433 489 CURVE SMOOTH",
"433 411 OFFCURVE",
"402 350 OFFCURVE",
"294 350 CURVE SMOOTH",
"153 350 LINE",
"153 295 LINE",
"283 295 LINE SMOOTH",
"382 295 OFFCURVE",
"491 340 OFFCURVE",
"491 499 CURVE SMOOTH",
"491 645 OFFCURVE",
"399 700 OFFCURVE",
"297 700 CURVE SMOOTH",
"112 700 LINE",
"112 0 LINE"
);
}
);
vertWidth = 750;
width = 531;
},
{
background = {
hints = (
{
origin = "{0, 8}";
type = Corner;
name = _corner.serifBottomRight;
options = 1;
},
{
origin = "{0, 9}";
type = Corner;
name = _corner.serifBottomLeft;
},
{
origin = "{0, 10}";
type = Corner;
name = _corner.serifBottomRight;
options = 1;
}
);
paths = (
{
closed = 1;
nodes = (
"192 265 LINE",
"254 265 LINE SMOOTH",
"392 265 OFFCURVE",
"502 312 OFFCURVE",
"502 484 CURVE SMOOTH",
"502 641 OFFCURVE",
"411 700 OFFCURVE",
"268 700 CURVE SMOOTH",
"98 700 LINE",
"98 0 LINE",
"208 0 LINE",
"208 560 LINE",
"183 535 LINE",
"281 535 LINE SMOOTH",
"356 535 OFFCURVE",
"389 517 OFFCURVE",
"389 452 CURVE SMOOTH",
"389 394 OFFCURVE",
"361 360 OFFCURVE",
"265 360 CURVE SMOOTH",
"192 360 LINE"
);
}
);
};
hints = (
{
origin = "{0, 20}";
type = Corner;
name = _corner.serifBottomLeft;
},
{
origin = "{0, 0}";
type = Corner;
name = _corner.serifBottomRight;
options = 1;
},
{
origin = "{0, 19}";
type = Corner;
name = _corner.serifBottomRight;
options = 1;
}
);
layerId = "3CA830F5-1E41-4F35-86DC-34C8110F5ED1";
paths = (
{
closed = 1;
nodes = (
"208 0 LINE",
"208 560 LINE",
"183 535 LINE",
"301 535 LINE SMOOTH",
"376 535 OFFCURVE",
"409 517 OFFCURVE",
"409 452 CURVE SMOOTH",
"409 394 OFFCURVE",
"381 360 OFFCURVE",
"285 360 CURVE SMOOTH",
"192 360 LINE",
"192 265 LINE",
"274 265 LINE SMOOTH",
"412 265 OFFCURVE",
"522 312 OFFCURVE",
"522 484 CURVE SMOOTH",
"522 641 OFFCURVE",
"431 700 OFFCURVE",
"288 700 CURVE SMOOTH",
"98 700 LINE",
"98 0 LINE"
);
}
);
vertWidth = 750;
width = 549;
}
);
leftKerningGroup = H;
leftMetricsKey = H;
rightKerningGroup = P;
unicode = 0050;
},
{
glyphname = Thorn;
lastChange = "2023-05-21 19:03:38 +0000";
layers = (
{
hints = (
{
origin = "{0, 22}";
type = Corner;
name = _corner.serifBottomLeft;
},
{
origin = "{0, 0}";
type = Corner;
name = _corner.serifBottomRight;
options = 1;
},
{
origin = "{0, 21}";
type = Corner;
name = _corner.serifBottomRight;
options = 1;
},
{
origin = "{0, 20}";
type = Corner;
name = _corner.serifBottomLeft;
}
);
layerId = master01;
paths = (
{
closed = 1;
nodes = (
"122 0 LINE",
"122 522 LINE",
"114 511 LINE",
"266 511 LINE SMOOTH",
"374 511 OFFCURVE",
"422 466 OFFCURVE",
"422 369 CURVE SMOOTH",
"422 282 OFFCURVE",
"382 216 OFFCURVE",
"252 216 CURVE SMOOTH",
"117 216 LINE",
"117 196 LINE",
"252 196 LINE SMOOTH",
"351 196 OFFCURVE",
"441 239 OFFCURVE",
"441 369 CURVE SMOOTH",
"441 477 OFFCURVE",
"379 536 OFFCURVE",
"266 536 CURVE SMOOTH",
"122 536 LINE",
"122 700 LINE",
"106 700 LINE",
"106 0 LINE"
);
}
);
width = 476;
},
{
hints = (
{
origin = "{0, 22}";
type = Corner;
name = _corner.serifBottomLeft;
},
{
origin = "{0, 0}";
type = Corner;
name = _corner.serifBottomRight;
options = 1;
},
{
origin = "{0, 21}";
type = Corner;
name = _corner.serifBottomRight;
options = 1;
},
{
origin = "{0, 20}";
type = Corner;
name = _corner.serifBottomLeft;
}
);
layerId = "7F56E5C1-F146-4434-90E4-DA1B70285074";
paths = (
{
closed = 1;
nodes = (
"167 0 LINE",
"167 470 LINE",
"142 445 LINE",
"310 445 LINE SMOOTH",
"381 445 OFFCURVE",
"413 415 OFFCURVE",
"413 349 CURVE SMOOTH",
"413 288 OFFCURVE",
"386 240 OFFCURVE",
"294 240 CURVE SMOOTH",
"153 240 LINE",
"153 185 LINE",
"283 185 LINE SMOOTH",
"372 185 OFFCURVE",
"471 223 OFFCURVE",
"471 359 CURVE SMOOTH",
"471 483 OFFCURVE",
"388 530 OFFCURVE",
"297 530 CURVE SMOOTH",
"167 530 LINE",
"167 700 LINE",
"112 700 LINE",
"112 0 LINE"
);
}
);
width = 511;
},
{
hints = (
{
origin = "{0, 22}";
scale = "{1, 0.8}";
type = Corner;
name = _corner.serifBottomLeft;
},
{
origin = "{0, 0}";
scale = "{1, 0.8}";
type = Corner;
name = _corner.serifBottomRight;
options = 1;
},
{
origin = "{0, 21}";
scale = "{1, 0.8}";
type = Corner;
name = _corner.serifBottomRight;
options = 1;
},
{
origin = "{0, 20}";
scale = "{1, 0.8}";
type = Corner;
name = _corner.serifBottomLeft;
}
);
layerId = "3CA830F5-1E41-4F35-86DC-34C8110F5ED1";
paths = (
{
closed = 1;
nodes = (
"208 0 LINE",
"208 414 LINE",
"183 389 LINE",
"311 389 LINE SMOOTH",
"358 389 OFFCURVE",
"379 377 OFFCURVE",
"379 338 CURVE SMOOTH",
"379 302 OFFCURVE",
"362 284 OFFCURVE",
"305 284 CURVE SMOOTH",
"192 284 LINE",
"192 189 LINE",
"294 189 LINE SMOOTH",
"405 189 OFFCURVE",
"492 226 OFFCURVE",
"492 363 CURVE SMOOTH",
"492 487 OFFCURVE",
"420 534 OFFCURVE",
"308 534 CURVE SMOOTH",
"209 534 LINE",
"209 700 LINE",
"98 700 LINE",
"98 0 LINE"
);
}
);
width = 517;
}
);
leftKerningGroup = H;
leftMetricsKey = H;
unicode = 00DE;
},
{
glyphname = Q;
lastChange = "2023-05-24 10:54:05 +0000";
layers = (
{
background = {
components = (
{
name = O;
}
);
paths = (
{
closed = 1;
nodes = (
"428 10 LINE",
"470 -101 OFFCURVE",
"516 -129 OFFCURVE",
"646 -129 CURVE",
"646 -101 LINE",
"528 -101 OFFCURVE",
"487 -93 OFFCURVE",
"443 20 CURVE"
);
}
);
};
components = (
{
name = O;
},
{
name = _tail.Q;
transform = "{1, 0, 0, 1, 383, 0}";
}
);
layerId = master01;
width = 720;
},
{
background = {
components = (
{
name = O;
}
);
paths = (
{
closed = 1;
nodes = (
"431 0 LINE",
"467 -111 OFFCURVE",
"561 -149 OFFCURVE",
"676 -149 CURVE",
"676 -61 LINE",
"553 -61 OFFCURVE",
"521 -51 OFFCURVE",
"484 22 CURVE"
);
}
);
};
components = (
{
name = O;
},
{
name = _tail.Q;
transform = "{1, 0, 0, 1, 386, 0}";
}
);
layerId = "7F56E5C1-F146-4434-90E4-DA1B70285074";
width = 744;
},
{
background = {
components = (
{
name = O;
}
);
paths = (
{
closed = 1;
nodes = (
"391 0 LINE",
"431 -148 OFFCURVE",
"512 -199 OFFCURVE",
"666 -199 CURVE",
"666 -31 LINE",
"543 -31 OFFCURVE",
"511 -22 OFFCURVE",
"484 42 CURVE"
);
}
);
};
components = (
{
name = O;
},
{
name = _tail.Q;
transform = "{1, 0, 0, 1, 346, 0}";
}
);
layerId = "3CA830F5-1E41-4F35-86DC-34C8110F5ED1";
width = 720;
},
{
associatedMasterId = master01;
background = {
paths = (
{
closed = 1;
nodes = (
"719 -123 LINE",
"517 -123 OFFCURVE",
"544 8 OFFCURVE",
"360 8 CURVE",
"360 -5 LINE",
"519 -5 OFFCURVE",
"509 -149 OFFCURVE",
"705 -149 CURVE"
);
}
);
};
components = (
{
name = O;
}
);
layerId = "1B5DCDDA-B89A-427C-9846-1FEF7D31F5A6";
name = "22 May 23 03.00";
paths = (
{
closed = 1;
nodes = (
"428 10 LINE",
"470 -101 OFFCURVE",
"516 -129 OFFCURVE",
"646 -129 CURVE",
"646 -101 LINE",
"528 -101 OFFCURVE",
"487 -93 OFFCURVE",
"443 20 CURVE"
);
}
);
width = 720;
},
{
associatedMasterId = "7F56E5C1-F146-4434-90E4-DA1B70285074";
background = {
components = (
{
name = O;
}
);
paths = (
{
closed = 1;
nodes = (
"730 -63 LINE",
"558 -63 OFFCURVE",
"591 14 OFFCURVE",
"375 14 CURVE",
"375 -10 LINE",
"543 -10 OFFCURVE",
"542 -149 OFFCURVE",
"730 -149 CURVE"
);
}
);
};
components = (
{
name = O;
}
);
layerId = "A032C3EE-F56C-4DB2-9207-3ADFAFBDBEFB";
name = "22 May 23 03.00";
paths = (
{
closed = 1;
nodes = (
"431 0 LINE",
"467 -111 OFFCURVE",
"561 -149 OFFCURVE",
"676 -149 CURVE",
"676 -61 LINE",
"553 -61 OFFCURVE",
"521 -51 OFFCURVE",
"484 22 CURVE"
);
}
);
vertWidth = 750;
width = 749;
},
{
associatedMasterId = "3CA830F5-1E41-4F35-86DC-34C8110F5ED1";
background = {
paths = (
{
closed = 1;
nodes = (
"765 -23 LINE",
"515 -23 OFFCURVE",
"534 104 OFFCURVE",
"380 104 CURVE",
"380 -10 LINE",
"485 -10 OFFCURVE",
"501 -199 OFFCURVE",
"685 -199 CURVE"
);
}
);
};
components = (
{
name = O;
}
);
layerId = "09B26D23-7543-4EB5-996A-DD98E676189B";
name = "22 May 23 03.00";
paths = (
{
closed = 1;
nodes = (
"391 0 LINE",
"431 -148 OFFCURVE",
"512 -199 OFFCURVE",
"666 -199 CURVE",
"666 -31 LINE",
"543 -31 OFFCURVE",
"511 -22 OFFCURVE",
"484 42 CURVE"
);
}
);
width = 720;
}
);
leftKerningGroup = O;
leftMetricsKey = O;
rightKerningGroup = O;
unicode = 0051;
},
{
glyphname = R;
lastChange = "2023-05-24 02:04:15 +0000";
layers = (
{
anchors = (
{
name = bottom;
position = "{274, 0}";
},
{
name = top;
position = "{274, 700}";
}
);
background = {
paths = (
{
closed = 1;
nodes = (
"548 18 LINE",
"361 38 OFFCURVE",
"387 314 OFFCURVE",
"241 314 CURVE",
"241 300 LINE",
"364 300 OFFCURVE",
"354 19 OFFCURVE",
"534 -5 CURVE"
);
}
);
};
layerId = master01;
paths = (
{
closed = 1;
nodes = (
"188 0 LINE",
"188 16 LINE",
"122 34 LINE",
"122 683 LINE",
"114 675 LINE",
"266 675 LINE SMOOTH",
"381 675 OFFCURVE",
"442 619 OFFCURVE",
"442 503 CURVE SMOOTH",
"442 397 OFFCURVE",
"389 320 OFFCURVE",
"252 320 CURVE SMOOTH",
"117 320 LINE",
"117 300 LINE",
"252 300 LINE SMOOTH",
"345 300 OFFCURVE",
"461 340 OFFCURVE",
"461 503 CURVE SMOOTH",
"461 641 OFFCURVE",
"375 700 OFFCURVE",
"266 700 CURVE SMOOTH",
"40 700 LINE",
"40 684 LINE",
"106 666 LINE",
"106 34 LINE",
"40 16 LINE",
"40 0 LINE"
);
},
{
closed = 1;
nodes = (
"528 0 LINE",
"528 16 LINE",
"462 34 LINE",
"286 313 LINE",
"272 305 LINE",
"464 0 LINE {name = \"🧨\";}"
);
}
);
vertWidth = 750;
width = 548;
},
{
anchors = (
{
name = bottom;
position = "{284, 0}";
},
{
name = top;
position = "{284, 700}";
}
);
background = {
paths = (
{
closed = 1;
nodes = (
"268 295 LINE",
"271 306 LINE",
"369 307 OFFCURVE",
"476 351 OFFCURVE",
"476 502 CURVE SMOOTH",
"476 645 OFFCURVE",
"384 700 OFFCURVE",
"282 700 CURVE SMOOTH",
"114 700 LINE",
"114 615 LINE",
"295 615 LINE SMOOTH",
"380 615 OFFCURVE",
"418 575 OFFCURVE",
"418 494 CURVE SMOOTH",
"418 411 OFFCURVE",
"378 350 OFFCURVE",
"279 350 CURVE SMOOTH",
"151 350 LINE",
"151 295 LINE"
);
},
{
closed = 1;
nodes = (
"572 75 LINE",
"403 105 OFFCURVE",
"424 325 OFFCURVE",
"247 325 CURVE",
"247 295 LINE",
"370 295 OFFCURVE",
"360 16 OFFCURVE",
"535 -10 CURVE"
);
},
{
closed = 1;
nodes = (
"112 700 LINE",
"112 0 LINE",
"167 0 LINE",
"167 700 LINE"
);
}
);
};
layerId = "7F56E5C1-F146-4434-90E4-DA1B70285074";
paths = (
{
closed = 1;
nodes = (
"244 0 LINE",
"244 58 LINE",
"167 81 LINE",
"167 640 LINE",
"142 615 LINE",
"310 615 LINE SMOOTH",
"395 615 OFFCURVE",
"433 575 OFFCURVE",
"433 489 CURVE SMOOTH",
"433 411 OFFCURVE",
"402 350 OFFCURVE",
"294 350 CURVE SMOOTH",
"153 350 LINE",
"153 295 LINE",
"283 295 LINE SMOOTH",
"382 295 OFFCURVE",
"491 340 OFFCURVE",
"491 499 CURVE SMOOTH",
"491 645 OFFCURVE",
"399 700 OFFCURVE",
"297 700 CURVE SMOOTH",
"35 700 LINE",
"35 642 LINE",
"112 619 LINE",
"112 79 LINE",
"35 58 LINE",
"35 0 LINE"
);
},
{
closed = 1;
nodes = (
"539 0 LINE",
"539 58 LINE",
"462 81 LINE",
"328 324 LINE",
"274 298 LINE {name = \"🧨\";}",
"441 0 LINE {name = \"🧨\";}"
);
}
);
vertWidth = 750;
width = 567;
},
{
anchors = (
{
name = bottom;
position = "{288, 0}";
},
{
name = top;
position = "{288, 700}";
}
);
layerId = "3CA830F5-1E41-4F35-86DC-34C8110F5ED1";
paths = (
{
closed = 1;
nodes = (
"276 0 LINE",
"276 138 LINE",
"208 169 LINE",
"208 560 LINE",
"183 535 LINE",
"301 535 LINE SMOOTH",
"376 535 OFFCURVE",
"409 517 OFFCURVE",
"409 452 CURVE SMOOTH",
"409 394 OFFCURVE",
"381 360 OFFCURVE",
"285 360 CURVE SMOOTH",
"192 360 LINE",
"192 265 LINE",
"274 265 LINE SMOOTH",
"412 265 OFFCURVE",
"522 312 OFFCURVE",
"522 484 CURVE SMOOTH",
"522 641 OFFCURVE",
"431 700 OFFCURVE",
"288 700 CURVE SMOOTH",
"30 700 LINE",
"30 562 LINE",
"98 531 LINE",
"98 169 LINE",
"30 138 LINE",
"30 0 LINE"
);
},
{
closed = 1;
nodes = (
"565 0 LINE",
"565 138 LINE",
"463 169 LINE",
"375 319 LINE",
"280 295 LINE",
"434 0 LINE {name = \"🧨\";}"
);
}
);
vertWidth = 750;
width = 576;
},
{
anchors = (
{
name = bottom;
position = "{289, 0}";
},
{
name = top;
position = "{259, 700}";
}
);
associatedMasterId = "7F56E5C1-F146-4434-90E4-DA1B70285074";
background = {
paths = (
{
closed = 1;
nodes = (
"268 295 LINE",
"271 306 LINE",
"369 307 OFFCURVE",
"476 351 OFFCURVE",
"476 502 CURVE SMOOTH",
"476 645 OFFCURVE",
"384 700 OFFCURVE",
"282 700 CURVE SMOOTH",
"114 700 LINE",
"114 615 LINE",
"295 615 LINE SMOOTH",
"380 615 OFFCURVE",
"418 575 OFFCURVE",
"418 494 CURVE SMOOTH",
"418 411 OFFCURVE",
"378 350 OFFCURVE",
"279 350 CURVE SMOOTH",
"151 350 LINE",
"151 295 LINE"
);
},
{
closed = 1;
nodes = (
"572 75 LINE",
"403 105 OFFCURVE",
"424 325 OFFCURVE",
"247 325 CURVE",
"247 295 LINE",
"370 295 OFFCURVE",
"360 16 OFFCURVE",
"535 -10 CURVE"
);
},
{
closed = 1;
nodes = (
"112 700 LINE",
"112 0 LINE",
"167 0 LINE",
"167 700 LINE"
);
}
);
};
components = (
{
name = _corner.serifBottomLeft;
transform = "{1, 0, 0, -1, 112, 700}";
},
{
name = _corner.serifBottomLeft;
transform = "{1, 0, 0, 1, 112, 0}";
},
{
name = _corner.serifBottomRight;
transform = "{1, 0, 0, 1, 167, 0}";
},
{
name = P;
}
);
layerId = "FDAE7F1B-7416-4CFD-B6DD-4D9A43674C8C";
name = "29 Jan 23 16.57";
paths = (
{
closed = 1;
nodes = (
"268 295 LINE",
"271 306 LINE",
"369 307 OFFCURVE",
"476 351 OFFCURVE",
"476 502 CURVE SMOOTH",
"476 645 OFFCURVE",
"384 700 OFFCURVE",
"282 700 CURVE SMOOTH",
"114 700 LINE",
"114 615 LINE",
"295 615 LINE SMOOTH",
"380 615 OFFCURVE",
"418 575 OFFCURVE",
"418 494 CURVE SMOOTH",
"418 411 OFFCURVE",
"378 350 OFFCURVE",
"279 350 CURVE SMOOTH",
"151 350 LINE",
"151 295 LINE"
);
},
{
closed = 1;
nodes = (
"572 75 LINE",
"403 105 OFFCURVE",
"424 325 OFFCURVE",
"247 325 CURVE",
"247 295 LINE",
"370 295 OFFCURVE",
"360 16 OFFCURVE",
"535 -10 CURVE"
);
},
{
closed = 1;
nodes = (
"112 700 LINE",
"112 0 LINE",
"167 0 LINE",
"167 700 LINE"
);
}
);
vertWidth = 750;
width = 577;
}
);
leftKerningGroup = H;
leftMetricsKey = H;
rightKerningGroup = R;
unicode = 0052;
},
{
glyphname = S;
lastChange = "2023-05-24 10:54:09 +0000";
layers = (
{
anchors = (
{
name = bottom;
position = "{261, 0}";
},
{
name = cedilla;
position = "{251, 0}";
},
{
name = top;
position = "{261, 700}";
}
);
layerId = master01;
paths = (
{
closed = 1;
nodes = (
"390 -5 OFFCURVE",
"472 63 OFFCURVE",
"472 183 CURVE SMOOTH",
"472 300 OFFCURVE",
"397 343 OFFCURVE",
"316 366 CURVE SMOOTH",
"193 401 LINE SMOOTH",
"130 419 OFFCURVE",
"86 457 OFFCURVE",
"86 533 CURVE SMOOTH",
"86 636 OFFCURVE",
"165 677 OFFCURVE",
"273 677 CURVE SMOOTH",
"346 677 OFFCURVE",
"397 656 OFFCURVE",
"421 639 CURVE",
"394 667 LINE",
"422 550 LINE",
"440 552 LINE",
"431 660 LINE",
"397 692 OFFCURVE",
"332 705 OFFCURVE",
"272 705 CURVE SMOOTH",
"131 705 OFFCURVE",
"68 636 OFFCURVE",
"68 532 CURVE SMOOTH",
"68 442 OFFCURVE",
"114 394 OFFCURVE",
"203 369 CURVE SMOOTH",
"321 336 LINE SMOOTH",
"381 319 OFFCURVE",
"454 283 OFFCURVE",
"454 183 CURVE SMOOTH",
"454 61 OFFCURVE",
"347 23 OFFCURVE",
"243 23 CURVE SMOOTH",
"179 23 OFFCURVE",
"127 38 OFFCURVE",
"71 69 CURVE",
"89 35 LINE",
"64 186 LINE",
"45 184 LINE",
"54 51 LINE",
"101 14 OFFCURVE",
"166 -5 OFFCURVE",
"243 -5 CURVE SMOOTH"
);
}
);
vertWidth = 750;
width = 522;
},
{
anchors = (
{
name = bottom;
position = "{261, 0}";
},
{
name = cedilla;
position = "{251, 0}";
},
{
name = top;
position = "{261, 700}";
}
);
background = {
paths = (
{
closed = 1;
nodes = (
"386 -10 OFFCURVE",
"480 63 OFFCURVE",
"480 201 CURVE SMOOTH",
"480 323 OFFCURVE",
"407 373 OFFCURVE",
"326 396 CURVE SMOOTH",
"196 433 LINE SMOOTH",
"139 449 OFFCURVE",
"117 477 OFFCURVE",
"117 521 CURVE SMOOTH",
"117 593 OFFCURVE",
"174 622 OFFCURVE",
"266 622 CURVE SMOOTH",
"326 622 OFFCURVE",
"372 610 OFFCURVE",
"396 592 CURVE",
"436 670 LINE",
"398 695 OFFCURVE",
"333 710 OFFCURVE",
"268 710 CURVE SMOOTH",
"125 710 OFFCURVE",
"59 633 OFFCURVE",
"59 517 CURVE SMOOTH",
"59 421 OFFCURVE",
"104 362 OFFCURVE",
"198 335 CURVE SMOOTH",
"323 299 LINE SMOOTH",
"380 283 OFFCURVE",
"422 257 OFFCURVE",
"422 194 CURVE SMOOTH",
"422 101 OFFCURVE",
"336 78 OFFCURVE",
"252 78 CURVE SMOOTH",
"191 78 OFFCURVE",
"135 90 OFFCURVE",
"85 132 CURVE",
"49 51 LINE",
"95 12 OFFCURVE",
"169 -10 OFFCURVE",
"246 -10 CURVE SMOOTH"
);
},
{
closed = 1;
nodes = (
"125 84 LINE",
"88 206 LINE",
"40 199 LINE",
"49 51 LINE"
);
},
{
closed = 1;
nodes = (
"445 537 LINE",
"436 670 LINE",
"362 614 LINE",
"397 530 LINE"
);
}
);
};
layerId = "7F56E5C1-F146-4434-90E4-DA1B70285074";
paths = (
{
closed = 1;
nodes = (
"386 -10 OFFCURVE",
"480 64 OFFCURVE",
"480 197 CURVE SMOOTH",
"480 315 OFFCURVE",
"407 358 OFFCURVE",
"326 381 CURVE SMOOTH",
"196 418 LINE SMOOTH",
"132 436 OFFCURVE",
"107 471 OFFCURVE",
"107 519 CURVE SMOOTH",
"107 593 OFFCURVE",
"167 622 OFFCURVE",
"264 622 CURVE SMOOTH",
"314 622 OFFCURVE",
"353 614 OFFCURVE",
"379 602 CURVE",
"359 623 LINE",
"397 530 LINE",
"445 537 LINE",
"436 670 LINE",
"398 695 OFFCURVE",
"333 710 OFFCURVE",
"268 710 CURVE SMOOTH",
"118 710 OFFCURVE",
"49 632 OFFCURVE",
"49 521 CURVE SMOOTH",
"49 427 OFFCURVE",
"98 379 OFFCURVE",
"198 350 CURVE SMOOTH",
"323 314 LINE SMOOTH",
"379 298 OFFCURVE",
"422 266 OFFCURVE",
"422 197 CURVE SMOOTH",
"422 101 OFFCURVE",
"338 78 OFFCURVE",
"253 78 CURVE SMOOTH",
"195 78 OFFCURVE",
"143 88 OFFCURVE",
"96 123 CURVE",
"122 94 LINE",
"88 206 LINE",
"40 199 LINE",
"49 51 LINE",
"95 12 OFFCURVE",
"169 -10 OFFCURVE",
"246 -10 CURVE SMOOTH"
);
}
);
vertWidth = 750;
width = 522;
},
{
anchors = (
{
name = bottom;
position = "{289, 0}";
},
{
name = cedilla;
position = "{287, 0}";
},
{
name = top;
position = "{289, 700}";
}
);
background = {
paths = (
{
closed = 1;
nodes = (
"416 -10 OFFCURVE",
"502 77 OFFCURVE",
"502 212 CURVE SMOOTH",
"502 324 OFFCURVE",
"443 375 OFFCURVE",
"363 395 CURVE SMOOTH",
"218 432 LINE SMOOTH",
"186 440 OFFCURVE",
"172 462 OFFCURVE",
"172 491 CURVE SMOOTH",
"172 540 OFFCURVE",
"210 552 OFFCURVE",
"268 552 CURVE SMOOTH",
"339 552 OFFCURVE",
"379 534 OFFCURVE",
"409 514 CURVE",
"456 665 LINE",
"415 696 OFFCURVE",
"343 710 OFFCURVE",
"278 710 CURVE SMOOTH",
"126 710 OFFCURVE",
"59 632 OFFCURVE",
"59 510 CURVE SMOOTH",
"59 415 OFFCURVE",
"100 353 OFFCURVE",
"203 327 CURVE SMOOTH",
"332 294 LINE SMOOTH",
"372 284 OFFCURVE",
"389 258 OFFCURVE",
"389 224 CURVE SMOOTH",
"389 159 OFFCURVE",
"325 148 OFFCURVE",
"262 148 CURVE SMOOTH",
"196 148 OFFCURVE",
"145 160 OFFCURVE",
"90 202 CURVE",
"54 44 LINE",
"101 11 OFFCURVE",
"174 -10 OFFCURVE",
"254 -10 CURVE SMOOTH"
);
},
{
closed = 1;
nodes = (
"176 84 LINE",
"133 276 LINE",
"35 259 LINE",
"54 44 LINE"
);
},
{
closed = 1;
nodes = (
"465 487 LINE",
"456 665 LINE",
"333 571 LINE",
"377 470 LINE"
);
}
);
};
layerId = "3CA830F5-1E41-4F35-86DC-34C8110F5ED1";
paths = (
{
closed = 1;
nodes = (
"441 -10 OFFCURVE",
"534 82 OFFCURVE",
"534 217 CURVE SMOOTH",
"534 328 OFFCURVE",
"471 395 OFFCURVE",
"366 420 CURVE SMOOTH",
"230 452 LINE SMOOTH",
"185 463 OFFCURVE",
"167 477 OFFCURVE",
"167 502 CURVE SMOOTH",
"167 541 OFFCURVE",
"215 552 OFFCURVE",
"281 552 CURVE SMOOTH",
"353 552 OFFCURVE",
"382 539 OFFCURVE",
"408 524 CURVE",
"369 571 LINE",
"406 480 LINE",
"495 497 LINE",
"485 665 LINE",
"438 696 OFFCURVE",
"371 710 OFFCURVE",
"304 710 CURVE SMOOTH",
"127 710 OFFCURVE",
"53 614 OFFCURVE",
"53 494 CURVE SMOOTH",
"53 384 OFFCURVE",
"115 320 OFFCURVE",
"234 292 CURVE SMOOTH",
"354 264 LINE SMOOTH",
"397 254 OFFCURVE",
"420 233 OFFCURVE",
"420 205 CURVE SMOOTH",
"420 156 OFFCURVE",
"350 148 OFFCURVE",
"286 148 CURVE SMOOTH",
"207 148 OFFCURVE",
"154 160 OFFCURVE",
"96 202 CURVE",
"182 84 LINE",
"137 256 LINE",
"38 239 LINE",
"57 44 LINE",
"107 11 OFFCURVE",
"186 -10 OFFCURVE",
"269 -10 CURVE SMOOTH"
);
}
);
vertWidth = 750;
width = 577;
},
{
anchors = (
{
name = bottom;
position = "{261, 0}";
},
{
name = cedilla;
position = "{251, 0}";
},
{
name = top;
position = "{261, 700}";
}
);
associatedMasterId = "7F56E5C1-F146-4434-90E4-DA1B70285074";
layerId = "5F365042-876E-4A9E-94AE-AA936F50083B";
name = "29 Jan 23 16.52";
paths = (
{
closed = 1;
nodes = (
"386 -10 OFFCURVE",
"480 63 OFFCURVE",
"480 201 CURVE SMOOTH",
"480 323 OFFCURVE",
"407 373 OFFCURVE",
"326 396 CURVE SMOOTH",
"196 433 LINE SMOOTH",
"139 449 OFFCURVE",
"117 477 OFFCURVE",
"117 521 CURVE SMOOTH",
"117 593 OFFCURVE",
"174 622 OFFCURVE",
"266 622 CURVE SMOOTH",
"326 622 OFFCURVE",
"372 610 OFFCURVE",
"396 592 CURVE",
"436 670 LINE",
"398 695 OFFCURVE",
"333 710 OFFCURVE",
"268 710 CURVE SMOOTH",
"125 710 OFFCURVE",
"59 633 OFFCURVE",
"59 517 CURVE SMOOTH",
"59 421 OFFCURVE",
"104 362 OFFCURVE",
"198 335 CURVE SMOOTH",
"323 299 LINE SMOOTH",
"380 283 OFFCURVE",
"422 257 OFFCURVE",
"422 194 CURVE SMOOTH",
"422 101 OFFCURVE",
"336 78 OFFCURVE",
"252 78 CURVE SMOOTH",
"191 78 OFFCURVE",
"135 90 OFFCURVE",
"85 132 CURVE",
"49 51 LINE",
"95 12 OFFCURVE",
"169 -10 OFFCURVE",
"246 -10 CURVE SMOOTH"
);
},
{
closed = 1;
nodes = (
"125 84 LINE",
"88 206 LINE",
"40 199 LINE",
"49 51 LINE"
);
},
{
closed = 1;
nodes = (
"445 537 LINE",
"436 670 LINE",
"362 614 LINE",
"397 530 LINE"
);
}
);
vertWidth = 750;
width = 522;
}
);
leftKerningGroup = S;
rightKerningGroup = S;
unicode = 0053;
},
{
glyphname = Germandbls;
lastChange = "2023-05-24 11:25:50 +0000";
layers = (
{
background = {
paths = (
{
closed = 1;
nodes = (
"112 0 LINE",
"112 440 LINE SMOOTH",
"112 630 OFFCURVE",
"187 677 OFFCURVE",
"287 677 CURVE SMOOTH",
"351 677 OFFCURVE",
"407 658 OFFCURVE",
"439 617 CURVE",
"450 631 LINE",
"416 680 OFFCURVE",
"359 705 OFFCURVE",
"289 705 CURVE SMOOTH",
"181 705 OFFCURVE",
"96 646 OFFCURVE",
"96 440 CURVE SMOOTH",
"96 0 LINE"
);
},
{
closed = 1;
nodes = (
"270 33 LINE",
"245 164 LINE",
"226 162 LINE",
"235 49 LINE"
);
},
{
closed = 1;
nodes = (
"476 -5 OFFCURVE",
"531 59 OFFCURVE",
"531 151 CURVE SMOOTH",
"531 257 OFFCURVE",
"460 293 OFFCURVE",
"404 323 CURVE SMOOTH",
"330 363 OFFCURVE",
"301 399 OFFCURVE",
"301 469 CURVE SMOOTH",
"301 576 OFFCURVE",
"367 611 OFFCURVE",
"439 617 CURVE",
"440 623 LINE",
"433 630 LINE",
"363 629 OFFCURVE",
"283 586 OFFCURVE",
"283 469 CURVE SMOOTH",
"283 383 OFFCURVE",
"325 346 OFFCURVE",
"392 309 CURVE SMOOTH",
"458 272 OFFCURVE",
"513 244 OFFCURVE",
"513 151 CURVE SMOOTH",
"513 55 OFFCURVE",
"451 23 OFFCURVE",
"378 23 CURVE SMOOTH",
"331 23 OFFCURVE",
"288 37 OFFCURVE",
"251 73 CURVE",
"235 49 LINE",
"273 18 OFFCURVE",
"318 -5 OFFCURVE",
"378 -5 CURVE SMOOTH"
);
}
);
};
hints = (
{
origin = "{0, 9}";
type = Corner;
name = _corner.serifBottomRight;
options = 1;
},
{
origin = "{0, 10}";
type = Corner;
name = _corner.serifBottomLeft;
}
);
layerId = master01;
paths = (
{
closed = 1;
nodes = (
"491 -5 OFFCURVE",
"551 77 OFFCURVE",
"551 197 CURVE SMOOTH",
"551 339 OFFCURVE",
"461 403 OFFCURVE",
"299 413 CURVE",
"301 409 LINE",
"532 685 LINE",
"532 700 LINE",
"106 700 LINE",
"106 0 LINE",
"122 0 LINE",
"122 684 LINE",
"116 675 LINE",
"509 675 LINE",
"509 681 LINE",
"282 409 LINE",
"282 391 LINE",
"458 381 OFFCURVE",
"533 322 OFFCURVE",
"533 195 CURVE SMOOTH",
"533 67 OFFCURVE",
"462 23 OFFCURVE",
"372 23 CURVE SMOOTH",
"333 23 OFFCURVE",
"291 31 OFFCURVE",
"254 53 CURVE",
"266 32 LINE",
"247 126 LINE",
"228 124 LINE",
"235 31 LINE",
"273 10 OFFCURVE",
"320 -5 OFFCURVE",
"371 -5 CURVE SMOOTH"
);
}
);
width = 604;
},
{
background = {
paths = (
{
closed = 1;
nodes = (
"167 0 LINE",
"167 440 LINE SMOOTH",
"167 587 OFFCURVE",
"227 622 OFFCURVE",
"322 622 CURVE SMOOTH",
"392 622 OFFCURVE",
"436 605 OFFCURVE",
"466 567 CURVE",
"491 616 LINE",
"455 675 OFFCURVE",
"409 710 OFFCURVE",
"322 710 CURVE SMOOTH",
"199 710 OFFCURVE",
"112 640 OFFCURVE",
"112 440 CURVE SMOOTH",
"112 0 LINE"
);
},
{
closed = 1;
nodes = (
"345 74 LINE",
"308 176 LINE",
"260 169 LINE",
"269 41 LINE"
);
},
{
closed = 1;
nodes = (
"531 -10 OFFCURVE",
"587 65 OFFCURVE",
"587 162 CURVE SMOOTH",
"587 273 OFFCURVE",
"517 314 OFFCURVE",
"444 346 CURVE SMOOTH",
"377 375 OFFCURVE",
"357 404 OFFCURVE",
"357 453 CURVE SMOOTH",
"357 528 OFFCURVE",
"404 549 OFFCURVE",
"466 567 CURVE",
"455 591 LINE",
"436 600 LINE",
"363 589 OFFCURVE",
"299 547 OFFCURVE",
"299 446 CURVE SMOOTH",
"299 358 OFFCURVE",
"348 326 OFFCURVE",
"419 294 CURVE SMOOTH",
"489 262 OFFCURVE",
"529 239 OFFCURVE",
"529 171 CURVE SMOOTH",
"529 102 OFFCURVE",
"486 78 OFFCURVE",
"425 78 CURVE SMOOTH",
"384 78 OFFCURVE",
"339 89 OFFCURVE",
"305 122 CURVE",
"269 41 LINE",
"308 12 OFFCURVE",
"359 -10 OFFCURVE",
"420 -10 CURVE SMOOTH"
);
}
);
};
hints = (
{
origin = "{0, 9}";
type = Corner;
name = _corner.serifBottomRight;
options = 1;
},
{
origin = "{0, 10}";
type = Corner;
name = _corner.serifBottomLeft;
}
);
layerId = "7F56E5C1-F146-4434-90E4-DA1B70285074";
paths = (
{
closed = 1;
nodes = (
"525 -10 OFFCURVE",
"587 77 OFFCURVE",
"587 192 CURVE SMOOTH",
"587 323 OFFCURVE",
"502 398 OFFCURVE",
"364 414 CURVE",
"373 397 LINE",
"551 635 LINE",
"551 700 LINE",
"112 700 LINE",
"112 0 LINE",
"167 0 LINE",
"167 645 LINE",
"146 615 LINE",
"491 615 LINE",
"491 658 LINE",
"309 411 LINE",
"309 334 LINE",
"480 322 OFFCURVE",
"529 283 OFFCURVE",
"529 199 CURVE SMOOTH",
"529 115 OFFCURVE",
"481 78 OFFCURVE",
"409 78 CURVE SMOOTH",
"382 78 OFFCURVE",
"349 84 OFFCURVE",
"318 101 CURVE",
"343 69 LINE",
"308 176 LINE",
"260 169 LINE",
"269 26 LINE",
"305 3 OFFCURVE",
"354 -10 OFFCURVE",
"402 -10 CURVE SMOOTH"
);
}
);
width = 642;
},
{
background = {
paths = (
{
closed = 1;
nodes = (
"198 0 LINE",
"198 430 LINE SMOOTH",
"198 520 OFFCURVE",
"238 552 OFFCURVE",
"328 552 CURVE SMOOTH",
"395 552 OFFCURVE",
"437 535 OFFCURVE",
"467 497 CURVE",
"522 606 LINE",
"480 671 OFFCURVE",
"418 710 OFFCURVE",
"319 710 CURVE SMOOTH",
"187 710 OFFCURVE",
"88 640 OFFCURVE",
"88 430 CURVE SMOOTH",
"88 0 LINE"
);
},
{
closed = 1;
nodes = (
"386 144 LINE",
"349 246 LINE",
"261 229 LINE",
"270 41 LINE"
);
},
{
closed = 1;
nodes = (
"545 -10 OFFCURVE",
"608 68 OFFCURVE",
"608 186 CURVE SMOOTH",
"608 296 OFFCURVE",
"557 338 OFFCURVE",
"463 370 CURVE SMOOTH",
"406 389 OFFCURVE",
"383 407 OFFCURVE",
"383 440 CURVE SMOOTH",
"383 480 OFFCURVE",
"417 496 OFFCURVE",
"467 497 CURVE",
"456 521 LINE",
"417 550 LINE",
"339 542 OFFCURVE",
"280 510 OFFCURVE",
"280 416 CURVE SMOOTH",
"280 339 OFFCURVE",
"320 307 OFFCURVE",
"402 279 CURVE SMOOTH",
"470 256 OFFCURVE",
"495 239 OFFCURVE",
"495 200 CURVE SMOOTH",
"495 159 OFFCURVE",
"466 148 OFFCURVE",
"431 148 CURVE SMOOTH",
"399 148 OFFCURVE",
"369 157 OFFCURVE",
"346 182 CURVE",
"270 41 LINE",
"309 12 OFFCURVE",
"360 -10 OFFCURVE",
"421 -10 CURVE SMOOTH"
);
}
);
};
hints = (
{
origin = "{0, 9}";
type = Corner;
name = _corner.serifBottomRight;
options = 1;
},
{
origin = "{0, 10}";
type = Corner;
name = _corner.serifBottomLeft;
}
);
layerId = "3CA830F5-1E41-4F35-86DC-34C8110F5ED1";
paths = (
{
closed = 1;
nodes = (
"553 -10 OFFCURVE",
"626 73 OFFCURVE",
"626 199 CURVE SMOOTH",
"626 321 OFFCURVE",
"557 384 OFFCURVE",
"420 402 CURVE",
"434 374 LINE",
"595 575 LINE",
"595 700 LINE",
"98 700 LINE",
"98 0 LINE",
"208 0 LINE",
"208 573 LINE",
"180 535 LINE",
"481 535 LINE",
"481 594 LINE",
"322 392 LINE",
"322 315 LINE",
"465 310 OFFCURVE",
"513 276 OFFCURVE",
"513 220 CURVE SMOOTH",
"513 169 OFFCURVE",
"473 148 OFFCURVE",
"426 148 CURVE SMOOTH",
"403 148 OFFCURVE",
"374 153 OFFCURVE",
"352 166 CURVE",
"379 136 LINE",
"349 216 LINE",
"261 199 LINE",
"270 28 LINE",
"309 6 OFFCURVE",
"362 -10 OFFCURVE",
"418 -10 CURVE SMOOTH"
);
}
);
width = 663;
},
{
associatedMasterId = "7F56E5C1-F146-4434-90E4-DA1B70285074";
components = (
{
name = _corner.serifBottomLeft;
transform = "{1, 0, 0, 1, 102, 0}";
}
);
layerId = "9E927096-7934-4D34-A64D-F183B64ACC15";
name = "Apr 18 19, 13:39";
paths = (
{
closed = 1;
nodes = (
"157 0 LINE",
"157 440 LINE SMOOTH",
"157 587 OFFCURVE",
"219 622 OFFCURVE",
"314 622 CURVE SMOOTH",
"379 622 OFFCURVE",
"417 605 OFFCURVE",
"445 567 CURVE",
"481 616 LINE",
"445 672 OFFCURVE",
"396 710 OFFCURVE",
"309 710 CURVE SMOOTH",
"191 710 OFFCURVE",
"102 640 OFFCURVE",
"102 440 CURVE SMOOTH",
"102 0 LINE"
);
},
{
closed = 1;
nodes = (
"335 74 LINE",
"298 176 LINE",
"250 169 LINE",
"259 41 LINE"
);
},
{
closed = 1;
nodes = (
"515 -10 OFFCURVE",
"577 61 OFFCURVE",
"577 171 CURVE SMOOTH",
"577 284 OFFCURVE",
"512 324 OFFCURVE",
"439 361 CURVE SMOOTH",
"384 389 OFFCURVE",
"347 409 OFFCURVE",
"347 469 CURVE SMOOTH",
"347 529 OFFCURVE",
"385 560 OFFCURVE",
"445 567 CURVE",
"445 591 LINE",
"418 600 LINE",
"349 589 OFFCURVE",
"289 547 OFFCURVE",
"289 442 CURVE SMOOTH",
"289 346 OFFCURVE",
"338 310 OFFCURVE",
"409 274 CURVE SMOOTH",
"468 243 OFFCURVE",
"519 222 OFFCURVE",
"519 160 CURVE SMOOTH",
"519 102 OFFCURVE",
"476 78 OFFCURVE",
"415 78 CURVE SMOOTH",
"374 78 OFFCURVE",
"329 89 OFFCURVE",
"295 122 CURVE",
"259 41 LINE",
"298 12 OFFCURVE",
"343 -10 OFFCURVE",
"404 -10 CURVE SMOOTH"
);
}
);
width = 602;
}
);
leftKerningGroup = H;
leftMetricsKey = H;
rightKerningGroup = Germandbls;
unicode = 1E9E;
},
{
glyphname = T;
lastChange = "2023-05-28 18:47:42 +0000";
layers = (
{
anchors = (
{
name = bottom;
position = "{282, 0}";
},
{
name = cedilla;
position = "{282, 0}";
},
{
name = center;
position = "{282, 350}";
},
{
name = top;
position = "{282, 700}";
}
);
hints = (
{
origin = "{1, 3}";
type = Corner;
name = _corner.serifBottomLeft;
},
{
origin = "{1, 0}";
type = Corner;
name = _corner.serifBottomRight;
options = 1;
}
);
layerId = master01;
paths = (
{
closed = 1;
nodes = (
"69 683 LINE",
"60 675 LINE",
"506 675 LINE",
"496 685 LINE",
"530 564 LINE",
"546 567 LINE",
"531 700 LINE",
"35 700 LINE",
"20 565 LINE",
"36 564 LINE"
);
},
{
closed = 1;
nodes = (
"288 0 LINE",
"288 679 LINE",
"272 679 LINE",
"272 0 LINE"
);
}
);
vertWidth = 750;
width = 566;
},
{
anchors = (
{
name = bottom;
position = "{278, 0}";
},
{
name = cedilla;
position = "{278, 0}";
},
{
name = center;
position = "{278, 350}";
},
{
name = top;
position = "{278, 700}";
}
);
hints = (
{
origin = "{1, 3}";
type = Corner;
name = _corner.serifBottomLeft;
},
{
origin = "{1, 0}";
type = Corner;
name = _corner.serifBottomRight;
options = 1;
}
);
layerId = "7F56E5C1-F146-4434-90E4-DA1B70285074";
paths = (
{
closed = 1;
nodes = (
"92 638 LINE",
"58 615 LINE",
"498 615 LINE",
"464 638 LINE",
"499 510 LINE",
"541 517 LINE",
"526 700 LINE",
"30 700 LINE",
"15 517 LINE",
"57 510 LINE"
);
},
{
closed = 1;
nodes = (
"303 0 LINE",
"303 629 LINE",
"248 629 LINE",
"248 0 LINE"
);
}
);
vertWidth = 750;
width = 556;
},
{
anchors = (
{
name = bottom;
position = "{301, 0}";
},
{
name = cedilla;
position = "{301, 0}";
},
{
name = center;
position = "{301, 350}";
},
{
name = top;
position = "{301, 700}";
}
);
hints = (
{
origin = "{1, 3}";
type = Corner;
name = _corner.serifBottomLeft;
},
{
origin = "{1, 0}";
type = Corner;
name = _corner.serifBottomRight;
options = 1;
}
);
layerId = "3CA830F5-1E41-4F35-86DC-34C8110F5ED1";
paths = (
{
closed = 1;
nodes = (
"132 554 LINE",
"88 535 LINE",
"513 535 LINE",
"469 554 LINE",
"504 443 LINE",
"586 457 LINE",
"571 700 LINE",
"30 700 LINE",
"15 457 LINE",
"97 443 LINE"
);
},
{
closed = 1;
nodes = (
"356 0 LINE",
"356 551 LINE",
"246 551 LINE",
"246 0 LINE"
);
}
);
vertWidth = 750;
width = 601;
}
);
leftKerningGroup = T;
rightKerningGroup = T;
rightMetricsKey = "=|";
unicode = 0054;
},
{
glyphname = U;
lastChange = "2023-05-28 18:47:47 +0000";
layers = (
{
anchors = (
{
name = bottom;
position = "{317, 0}";
},
{
name = ogonek;
position = "{385, 0}";
},
{
name = top;
position = "{317, 700}";
},
{
name = topright;
position = "{614, 700}";
}
);
hints = (
{
origin = "{0, 13}";
type = Corner;
name = _corner.serifBottomRight;
options = 1;
},
{
origin = "{0, 4}";
type = Corner;
name = _corner.serifBottomRight;
options = 1;
},
{
origin = "{0, 12}";
type = Corner;
name = _corner.serifBottomLeft;
},
{
origin = "{0, 3}";
type = Corner;
name = _corner.serifBottomLeft;
}
);
layerId = master01;
paths = (
{
closed = 1;
nodes = (
"454 -5 OFFCURVE",
"538 59 OFFCURVE",
"538 260 CURVE SMOOTH",
"538 700 LINE",
"522 700 LINE",
"522 260 LINE SMOOTH",
"522 69 OFFCURVE",
"443 23 OFFCURVE",
"315 23 CURVE SMOOTH",
"187 23 OFFCURVE",
"112 69 OFFCURVE",
"112 260 CURVE SMOOTH",
"112 700 LINE",
"96 700 LINE",
"96 260 LINE SMOOTH",
"96 59 OFFCURVE",
"175 -5 OFFCURVE",
"315 -5 CURVE SMOOTH"
);
}
);
userData = {
com.typemytype.robofont.guides = (
{
isGlobal = 0;
magnetic = 5;
x = 0;
y = 280;
}
);
};
vertWidth = 750;
width = 634;
},
{
anchors = (
{
name = bottom;
position = "{337, 0}";
},
{
name = ogonek;
position = "{419, 0}";
},
{
name = top;
position = "{337, 700}";
},
{
name = topright;
position = "{653, 700}";
}
);
hints = (
{
origin = "{0, 13}";
type = Corner;
name = _corner.serifBottomRight;
options = 1;
},
{
origin = "{0, 4}";
type = Corner;
name = _corner.serifBottomRight;
options = 1;
},
{
origin = "{0, 12}";
type = Corner;
name = _corner.serifBottomLeft;
},
{
origin = "{0, 3}";
type = Corner;
name = _corner.serifBottomLeft;
}
);
layerId = "7F56E5C1-F146-4434-90E4-DA1B70285074";
paths = (
{
closed = 1;
nodes = (
"483 -10 OFFCURVE",
"571 60 OFFCURVE",
"571 260 CURVE SMOOTH",
"571 700 LINE",
"516 700 LINE",
"516 260 LINE SMOOTH",
"516 113 OFFCURVE",
"452 78 OFFCURVE",
"336 78 CURVE SMOOTH",
"219 78 OFFCURVE",
"157 113 OFFCURVE",
"157 260 CURVE SMOOTH",
"157 700 LINE",
"102 700 LINE",
"102 260 LINE SMOOTH",
"102 60 OFFCURVE",
"188 -10 OFFCURVE",
"336 -10 CURVE SMOOTH"
);
}
);
vertWidth = 750;
width = 673;
},
{
anchors = (
{
name = bottom;
position = "{350, 0}";
},
{
name = ogonek;
position = "{442, 0}";
},
{
name = top;
position = "{350, 700}";
},
{
name = topright;
position = "{680, 700}";
}
);
hints = (
{
origin = "{0, 13}";
type = Corner;
name = _corner.serifBottomRight;
options = 1;
},
{
origin = "{0, 4}";
type = Corner;
name = _corner.serifBottomRight;
options = 1;
},
{
origin = "{0, 12}";
type = Corner;
name = _corner.serifBottomLeft;
},
{
origin = "{0, 3}";
type = Corner;
name = _corner.serifBottomLeft;
}
);
layerId = "3CA830F5-1E41-4F35-86DC-34C8110F5ED1";
paths = (
{
closed = 1;
nodes = (
"513 -10 OFFCURVE",
"612 68 OFFCURVE",
"612 290 CURVE SMOOTH",
"612 700 LINE",
"502 700 LINE",
"502 310 LINE SMOOTH",
"502 199 OFFCURVE",
"446 158 OFFCURVE",
"348 158 CURVE SMOOTH",
"249 158 OFFCURVE",
"198 199 OFFCURVE",
"198 310 CURVE SMOOTH",
"198 700 LINE",
"88 700 LINE",
"88 290 LINE SMOOTH",
"88 68 OFFCURVE",
"184 -10 OFFCURVE",
"348 -10 CURVE SMOOTH"
);
}
);
vertWidth = 750;
width = 700;
}
);
leftKerningGroup = U;
rightKerningGroup = U;
rightMetricsKey = "=|";
unicode = 0055;
},
{
glyphname = Uhorn;
lastChange = "2023-05-24 15:04:24 +0000";
layers = (
{
anchors = (
{
name = bottom;
position = "{317, 0}";
},
{
name = top;
position = "{317, 700}";
}
);
background = {
components = (
{
name = U;
},
{
name = horncomb;
transform = "{1, 0, 0, 1, 558, 205}";
}
);
};
hints = (
{
origin = "{0, 13}";
type = Corner;
name = _corner.serifBottomRight;
options = 1;
},
{
origin = "{0, 21}";
type = Corner;
name = _corner.serifBottomLeft;
},
{
origin = "{0, 22}";
type = Corner;
name = _corner.serifBottomRight;
options = 1;
}
);
layerId = master01;
paths = (
{
closed = 1;
nodes = (
"454 -5 OFFCURVE",
"538 59 OFFCURVE",
"538 260 CURVE SMOOTH",
"538 690 LINE",
"532 685 LINE",
"614 685 OFFCURVE",
"674 717 OFFCURVE",
"662 837 CURVE",
"648 844 LINE",
"640 842 LINE",
"652 720 OFFCURVE",
"603 700 OFFCURVE",
"538 700 CURVE SMOOTH {name = \"🧨\";}",
"522 700 LINE",
"522 260 LINE SMOOTH",
"522 69 OFFCURVE",
"443 23 OFFCURVE",
"315 23 CURVE SMOOTH",
"186 23 OFFCURVE",
"112 69 OFFCURVE",
"112 260 CURVE SMOOTH",
"112 700 LINE",
"96 700 LINE",
"96 260 LINE SMOOTH",
"96 59 OFFCURVE",
"175 -5 OFFCURVE",
"315 -5 CURVE SMOOTH"
);
}
);
width = 654;
},
{
anchors = (
{
name = bottom;
position = "{337, 0}";
},
{
name = top;
position = "{337, 700}";
}
);
background = {
components = (
{
name = U;
},
{
name = horncomb;
transform = "{1, 0, 0, 1, 598, 200}";
}
);
};
hints = (
{
origin = "{0, 13}";
type = Corner;
name = _corner.serifBottomRight;
options = 1;
},
{
origin = "{0, 21}";
type = Corner;
name = _corner.serifBottomLeft;
},
{
origin = "{0, 22}";
type = Corner;
name = _corner.serifBottomRight;
options = 1;
}
);
layerId = "7F56E5C1-F146-4434-90E4-DA1B70285074";
paths = (
{
closed = 1;
nodes = (
"483 -10 OFFCURVE",
"571 60 OFFCURVE",
"571 260 CURVE SMOOTH",
"571 680 LINE",
"551 664 LINE",
"677 664 OFFCURVE",
"722 715 OFFCURVE",
"722 820 CURVE",
"677 847 LINE",
"641 837 LINE",
"646 744 OFFCURVE",
"630 700 OFFCURVE",
"548 700 CURVE SMOOTH {name = \"🧨\";}",
"516 700 LINE",
"516 260 LINE SMOOTH",
"516 113 OFFCURVE",
"452 78 OFFCURVE",
"336 78 CURVE SMOOTH",
"219 78 OFFCURVE",
"157 113 OFFCURVE",
"157 260 CURVE SMOOTH",
"157 700 LINE",
"102 700 LINE",
"102 260 LINE SMOOTH",
"102 60 OFFCURVE",
"188 -10 OFFCURVE",
"336 -10 CURVE SMOOTH"
);
}
);
width = 713;
},
{
anchors = (
{
name = bottom;
position = "{350, 0}";
},
{
name = top;
position = "{350, 700}";
}
);
background = {
components = (
{
name = U;
},
{
name = horncomb;
transform = "{1, 0, 0, 1, 638, 190}";
}
);
};
hints = (
{
origin = "{0, 13}";
type = Corner;
name = _corner.serifBottomRight;
options = 1;
},
{
origin = "{0, 21}";
type = Corner;
name = _corner.serifBottomLeft;
},
{
origin = "{0, 22}";
type = Corner;
name = _corner.serifBottomRight;
options = 1;
}
);
layerId = "3CA830F5-1E41-4F35-86DC-34C8110F5ED1";
paths = (
{
closed = 1;
nodes = (
"513 -10 OFFCURVE",
"612 68 OFFCURVE",
"612 290 CURVE SMOOTH",
"612 677 LINE",
"566 639 LINE",
"708 639 OFFCURVE",
"767 711 OFFCURVE",
"767 826 CURVE",
"682 853 LINE",
"646 843 LINE",
"651 757 OFFCURVE",
"639 700 OFFCURVE",
"553 700 CURVE SMOOTH {name = \"🧨\";}",
"502 700 LINE",
"502 310 LINE SMOOTH",
"502 199 OFFCURVE",
"446 158 OFFCURVE",
"348 158 CURVE SMOOTH",
"249 158 OFFCURVE",
"198 199 OFFCURVE",
"198 310 CURVE SMOOTH",
"198 700 LINE",
"88 700 LINE",
"88 290 LINE SMOOTH",
"88 68 OFFCURVE",
"184 -10 OFFCURVE",
"348 -10 CURVE SMOOTH"
);
}
);
width = 730;
}
);
leftKerningGroup = U;
leftMetricsKey = U;
rightKerningGroup = Uhorn;
unicode = 01AF;
},
{
glyphname = V;
lastChange = "2023-05-28 18:48:41 +0000";
layers = (
{
anchors = (
{
name = bottom;
position = "{303, 0}";
},
{
name = top;
position = "{303, 700}";
}
);
background = {
paths = (
{
closed = 1;
nodes = (
"325 -5 LINE",
"572 678 LINE",
"559 660 LINE",
"625 686 LINE",
"625 700 LINE",
"476 700 LINE",
"476 686 LINE",
"554 661 LINE",
"552 672 LINE",
"311 -5 LINE"
);
},
{
closed = 1;
nodes = (
"322 6 LINE",
"347 73 LINE",
"287 73 LINE",
"312 6 LINE"
);
},
{
closed = 1;
nodes = (
"322 -5 LINE",
"80 680 LINE",
"83 661 LINE",
"161 686 LINE",
"161 700 LINE",
"10 700 LINE",
"10 686 LINE",
"76 660 LINE",
"60 686 LINE",
"308 -5 LINE"
);
}
);
};
hints = (
{
origin = "{0, 2}";
scale = "{1, -1}";
type = Corner;
name = _corner.serifBottomLeft;
options = 1;
},
{
origin = "{0, 8}";
scale = "{1, -1}";
type = Corner;
name = _corner.serifBottomLeft;
options = 1;
},
{
origin = "{0, 7}";
scale = "{1, -1}";
type = Corner;
name = _corner.serifBottomRight;
},
{
origin = "{0, 1}";
scale = "{1, -1}";
type = Corner;
name = _corner.serifBottomRight;
}
);
layerId = master01;
paths = (
{
closed = 1;
nodes = (
"309 -5 LINE {name = \"🧨\";}",
"544 700 LINE",
"526 700 LINE",
"314 56 LINE",
"328 68 LINE",
"273 68 LINE",
"287 57 LINE",
"75 700 LINE",
"57 700 LINE",
"293 -5 LINE {name = \"🧨\";}"
);
}
);
userData = {
com.typemytype.robofont.guides = (
{
isGlobal = 0;
magnetic = 5;
x = 0;
y = 629;
}
);
};
width = 605;
},
{
anchors = (
{
name = bottom;
position = "{332, 0}";
},
{
name = top;
position = "{332, 700}";
}
);
background = {
paths = (
{
closed = 1;
nodes = (
"363 -5 LINE",
"594 648 LINE",
"566 611 LINE",
"658 642 LINE",
"658 700 LINE",
"471 700 LINE",
"471 643 LINE",
"543 612 LINE",
"531 642 LINE",
"308 -5 LINE"
);
},
{
closed = 1;
nodes = (
"365 41 LINE",
"384 126 LINE",
"277 126 LINE",
"298 41 LINE"
);
},
{
closed = 1;
nodes = (
"355 -5 LINE",
"132 642 LINE",
"120 612 LINE",
"192 643 LINE",
"192 700 LINE",
"5 700 LINE",
"5 642 LINE",
"97 611 LINE",
"69 648 LINE",
"300 -5 LINE"
);
}
);
};
hints = (
{
origin = "{0, 8}";
scale = "{1, -1}";
type = Corner;
name = _corner.serifBottomLeft;
options = 1;
},
{
origin = "{0, 2}";
scale = "{1, -1}";
type = Corner;
name = _corner.serifBottomLeft;
options = 1;
},
{
origin = "{0, 1}";
scale = "{1, -1}";
type = Corner;
name = _corner.serifBottomRight;
},
{
origin = "{0, 7}";
scale = "{1, -1}";
type = Corner;
name = _corner.serifBottomRight;
}
);
layerId = "7F56E5C1-F146-4434-90E4-DA1B70285074";
paths = (
{
closed = 1;
nodes = (
"358 -5 LINE {name = \"🧨\";}",
"613 700 LINE",
"556 700 LINE",
"346 104 LINE",
"381 126 LINE",
"291 126 LINE",
"318 103 LINE",
"107 700 LINE",
"50 700 LINE",
"305 -5 LINE {name = \"🧨\";}"
);
}
);
userData = {
com.typemytype.robofont.guides = (
{
isGlobal = 0;
magnetic = 5;
x = 0;
y = 629;
}
);
};
width = 663;
},
{
anchors = (
{
name = bottom;
position = "{340, 0}";
},
{
name = top;
position = "{340, 700}";
}
);
background = {
paths = (
{
closed = 1;
nodes = (
"417 -5 LINE",
"676 648 LINE",
"618 531 LINE",
"710 562 LINE",
"710 700 LINE",
"449 700 LINE",
"449 563 LINE",
"521 532 LINE",
"543 642 LINE",
"307 -5 LINE"
);
},
{
closed = 1;
nodes = (
"400 44 LINE",
"421 204 LINE",
"314 204 LINE",
"333 44 LINE"
);
},
{
closed = 1;
nodes = (
"412 -5 LINE",
"176 642 LINE",
"198 532 LINE",
"270 563 LINE",
"270 700 LINE",
"5 700 LINE",
"5 562 LINE",
"97 531 LINE",
"39 648 LINE",
"298 -5 LINE"
);
}
);
};
hints = (
{
origin = "{0, 8}";
scale = "{1, -1}";
type = Corner;
name = _corner.serifBottomLeft;
options = 1;
},
{
origin = "{0, 2}";
scale = "{1, -1}";
type = Corner;
name = _corner.serifBottomLeft;
options = 1;
},
{
origin = "{0, 7}";
scale = "{1, -1}";
type = Corner;
name = _corner.serifBottomRight;
},
{
origin = "{0, 1}";
scale = "{1, -1}";
type = Corner;
name = _corner.serifBottomRight;
}
);
layerId = "3CA830F5-1E41-4F35-86DC-34C8110F5ED1";
paths = (
{
closed = 1;
nodes = (
"401 -5 LINE",
"659 700 LINE",
"537 700 LINE",
"356 164 LINE",
"383 186 LINE",
"293 186 LINE",
"323 163 LINE",
"142 700 LINE",
"20 700 LINE",
"278 -5 LINE"
);
}
);
userData = {
com.typemytype.robofont.guides = (
{
isGlobal = 0;
magnetic = 5;
x = 0;
y = 629;
}
);
};
width = 679;
}
);
leftKerningGroup = V;
rightKerningGroup = V;
rightMetricsKey = "=|";
unicode = 0056;
},
{
glyphname = W;
lastChange = "2023-05-28 18:48:18 +0000";
layers = (
{
anchors = (
{
name = bottom;
position = "{472, 0}";
},
{
name = top;
position = "{472, 700}";
}
);
hints = (
{
origin = "{0, 14}";
type = Corner;
name = _corner.serifBottomRight;
options = 1;
},
{
origin = "{0, 6}";
type = Corner;
name = _corner.serifBottomRight;
options = 1;
},
{
origin = "{0, 5}";
type = Corner;
name = _corner.serifBottomLeft;
},
{
origin = "{0, 13}";
type = Corner;
name = _corner.serifBottomLeft;
}
);
layerId = master01;
paths = (
{
closed = 1;
nodes = (
"278 0 LINE",
"455 626 LINE",
"487 626 LINE",
"664 0 LINE",
"683 0 LINE",
"875 700 LINE",
"857 700 LINE",
"689 78 LINE",
"658 78 LINE",
"482 700 LINE",
"460 700 LINE",
"284 78 LINE",
"253 78 LINE",
"86 700 LINE",
"68 700 LINE",
"259 0 LINE"
);
}
);
vertWidth = 750;
width = 943;
},
{
anchors = (
{
name = bottom;
position = "{496, 0}";
},
{
name = top;
position = "{496, 700}";
}
);
hints = (
{
origin = "{0, 6}";
type = Corner;
name = _corner.serifBottomRight;
options = 1;
},
{
origin = "{0, 14}";
type = Corner;
name = _corner.serifBottomRight;
options = 1;
},
{
origin = "{0, 13}";
type = Corner;
name = _corner.serifBottomLeft;
},
{
origin = "{0, 5}";
type = Corner;
name = _corner.serifBottomLeft;
}
);
layerId = "7F56E5C1-F146-4434-90E4-DA1B70285074";
paths = (
{
closed = 1;
nodes = (
"314 -5 LINE",
"475 550 LINE",
"515 550 LINE",
"676 -5 LINE",
"744 -5 LINE",
"926 700 LINE",
"865 700 LINE",
"725 131 LINE",
"690 131 LINE",
"528 700 LINE",
"462 700 LINE",
"302 131 LINE",
"269 131 LINE",
"127 700 LINE",
"65 700 LINE",
"248 -5 LINE"
);
}
);
vertWidth = 750;
width = 992;
},
{
anchors = (
{
name = bottom;
position = "{507, 0}";
},
{
name = top;
position = "{507, 700}";
}
);
hints = (
{
origin = "{0, 14}";
type = Corner;
name = _corner.serifBottomRight;
options = 1;
},
{
origin = "{0, 6}";
type = Corner;
name = _corner.serifBottomRight;
options = 1;
},
{
origin = "{0, 13}";
type = Corner;
name = _corner.serifBottomLeft;
},
{
origin = "{0, 5}";
type = Corner;
name = _corner.serifBottomLeft;
}
);
layerId = "3CA830F5-1E41-4F35-86DC-34C8110F5ED1";
paths = (
{
closed = 1;
nodes = (
"353 0 LINE",
"489 460 LINE",
"526 460 LINE",
"659 0 LINE",
"797 0 LINE",
"980 700 LINE",
"856 700 LINE",
"742 209 LINE",
"710 209 LINE",
"570 700 LINE",
"445 700 LINE",
"302 209 LINE",
"270 209 LINE",
"158 700 LINE",
"34 700 LINE",
"217 0 LINE"
);
}
);
vertWidth = 750;
width = 1014;
}
);
leftKerningGroup = W;
rightKerningGroup = W;
rightMetricsKey = "=|";
unicode = 0057;
},
{
glyphname = X;
lastChange = "2023-05-28 18:46:53 +0000";
layers = (
{
layerId = master01;
paths = (
{
closed = 1;
nodes = (
"594 0 LINE",
"594 14 LINE",
"527 37 LINE",
"537 27 LINE",
"315 356 LINE",
"311 360 LINE",
"101 669 LINE",
"101 662 LINE",
"159 686 LINE",
"159 700 LINE",
"22 700 LINE",
"22 686 LINE",
"92 663 LINE",
"80 670 LINE",
"300 346 LINE",
"305 341 LINE",
"515 30 LINE",
"517 38 LINE",
"456 14 LINE",
"456 0 LINE"
);
},
{
closed = 1;
nodes = (
"161 0 LINE",
"161 14 LINE",
"100 38 LINE",
"102 32 LINE",
"311 341 LINE",
"316 345 LINE",
"539 675 LINE",
"526 662 LINE",
"593 686 LINE",
"593 700 LINE",
"456 700 LINE",
"456 686 LINE",
"515 663 LINE",
"515 669 LINE",
"305 360 LINE",
"300 356 LINE",
"81 30 LINE",
"93 38 LINE",
"23 14 LINE",
"23 0 LINE"
);
}
);
vertWidth = 750;
width = 616;
},
{
layerId = "7F56E5C1-F146-4434-90E4-DA1B70285074";
paths = (
{
closed = 1;
nodes = (
"628 0 LINE",
"628 58 LINE",
"507 103 LINE",
"574 50 LINE",
"361 363 LINE",
"341 382 LINE",
"149 642 LINE",
"149 615 LINE",
"224 642 LINE",
"224 700 LINE",
"35 700 LINE",
"35 642 LINE",
"144 600 LINE",
"76 653 LINE",
"311 334 LINE",
"325 323 LINE",
"509 57 LINE",
"511 86 LINE",
"439 58 LINE",
"439 0 LINE"
);
},
{
closed = 1;
nodes = (
"224 0 LINE",
"224 58 LINE",
"153 87 LINE",
"156 59 LINE",
"342 323 LINE",
"349 329 LINE",
"587 652 LINE",
"519 600 LINE",
"628 642 LINE",
"628 700 LINE",
"442 700 LINE",
"442 642 LINE",
"515 614 LINE",
"518 644 LINE",
"320 374 LINE",
"307 362 LINE",
"102 70 LINE",
"136 95 LINE",
"35 58 LINE",
"35 0 LINE"
);
}
);
vertWidth = 750;
width = 663;
},
{
layerId = "3CA830F5-1E41-4F35-86DC-34C8110F5ED1";
paths = (
{
closed = 1;
nodes = (
"620 0 LINE",
"620 138 LINE",
"502 176 LINE",
"574 130 LINE",
"374 373 LINE",
"339 405 LINE",
"191 581 LINE",
"177 532 LINE",
"276 562 LINE",
"276 700 LINE",
"34 700 LINE",
"34 562 LINE",
"138 529 LINE",
"68 575 LINE",
"275 330 LINE",
"303 306 LINE",
"459 116 LINE",
"474 170 LINE",
"378 138 LINE",
"378 0 LINE"
);
},
{
closed = 1;
nodes = (
"274 0 LINE",
"274 138 LINE",
"179 172 LINE",
"193 117 LINE",
"342 300 LINE",
"375 327 LINE",
"583 575 LINE",
"515 529 LINE",
"619 562 LINE",
"619 700 LINE",
"376 700 LINE",
"376 562 LINE",
"475 531 LINE",
"458 579 LINE",
"310 398 LINE",
"271 364 LINE",
"81 132 LINE",
"152 176 LINE",
"32 138 LINE",
"32 0 LINE"
);
}
);
vertWidth = 750;
width = 652;
}
);
leftKerningGroup = X;
rightKerningGroup = X;
rightMetricsKey = "=|";
unicode = 0058;
},
{
glyphname = Y;
lastChange = "2023-05-28 18:48:55 +0000";
layers = (
{
anchors = (
{
name = bottom;
position = "{311, 0}";
},
{
name = top;
position = "{311, 700}";
},
{
name = topleft;
position = "{20, 700}";
}
);
hints = (
{
origin = "{0, 23}";
type = Corner;
name = _corner.serifBottomLeft;
},
{
origin = "{0, 0}";
type = Corner;
name = _corner.serifBottomRight;
options = 1;
}
);
layerId = master01;
paths = (
{
closed = 1;
nodes = (
"319 0 LINE",
"319 300 LINE",
"544 673 LINE",
"536 665 LINE",
"601 686 LINE",
"601 700 LINE",
"463 700 LINE",
"463 687 LINE",
"526 666 LINE",
"525 673 LINE",
"315 322 LINE",
"340 350 LINE",
"281 350 LINE",
"306 325 LINE",
"97 672 LINE",
"95 666 LINE",
"158 687 LINE",
"158 700 LINE",
"20 700 LINE",
"20 686 LINE",
"90 664 LINE",
"77 672 LINE",
"303 298 LINE",
"303 0 LINE"
);
}
);
vertWidth = 750;
width = 621;
},
{
anchors = (
{
name = bottom;
position = "{305, 0}";
},
{
name = top;
position = "{305, 700}";
},
{
name = topleft;
position = "{20, 700}";
}
);
hints = (
{
origin = "{0, 23}";
type = Corner;
name = _corner.serifBottomLeft;
},
{
origin = "{0, 0}";
type = Corner;
name = _corner.serifBottomRight;
options = 1;
}
);
layerId = "7F56E5C1-F146-4434-90E4-DA1B70285074";
paths = (
{
closed = 1;
nodes = (
"333 0 LINE",
"333 300 LINE",
"553 661 LINE",
"488 612 LINE",
"595 646 LINE",
"595 700 LINE",
"418 700 LINE",
"418 647 LINE",
"486 622 LINE",
"479 644 LINE",
"313 364 LINE",
"362 394 LINE",
"248 394 LINE",
"294 369 LINE",
"127 650 LINE",
"127 623 LINE",
"192 647 LINE",
"192 700 LINE",
"15 700 LINE",
"15 646 LINE",
"122 613 LINE",
"57 661 LINE",
"278 298 LINE",
"278 0 LINE"
);
}
);
vertWidth = 750;
width = 610;
},
{
anchors = (
{
name = bottom;
position = "{298, 0}";
},
{
name = top;
position = "{298, 700}";
},
{
name = topleft;
position = "{10, 700}";
}
);
hints = (
{
origin = "{0, 23}";
type = Corner;
name = _corner.serifBottomLeft;
},
{
origin = "{0, 0}";
type = Corner;
name = _corner.serifBottomRight;
options = 1;
}
);
layerId = "3CA830F5-1E41-4F35-86DC-34C8110F5ED1";
paths = (
{
closed = 1;
nodes = (
"353 0 LINE",
"353 280 LINE",
"540 583 LINE",
"472 537 LINE",
"580 566 LINE",
"580 700 LINE",
"358 700 LINE",
"358 567 LINE",
"446 537 LINE",
"427 592 LINE",
"311 393 LINE",
"348 414 LINE",
"246 414 LINE",
"283 393 LINE",
"169 592 LINE",
"149 537 LINE",
"237 567 LINE",
"237 700 LINE",
"15 700 LINE",
"15 566 LINE",
"123 540 LINE",
"56 581 LINE",
"243 278 LINE",
"243 0 LINE"
);
}
);
vertWidth = 750;
width = 595;
}
);
leftKerningGroup = Y;
rightKerningGroup = Y;
rightMetricsKey = "=|";
unicode = 0059;
},
{
glyphname = Z;
lastChange = "2023-05-24 15:56:15 +0000";
layers = (
{
anchors = (
{
name = bottom;
position = "{298, 0}";
},
{
name = center;
position = "{298, 350}";
},
{
name = top;
position = "{298, 700}";
}
);
layerId = master01;
paths = (
{
closed = 1;
nodes = (
"516 0 LINE",
"531 133 LINE",
"513 135 LINE",
"481 7 LINE",
"504 25 LINE",
"71 25 LINE",
"71 15 LINE",
"523 685 LINE",
"516 700 LINE",
"75 700 LINE",
"60 567 LINE",
"77 565 LINE",
"109 688 LINE",
"85 675 LINE",
"506 675 LINE",
"502 685 LINE",
"50 15 LINE",
"58 0 LINE"
);
}
);
vertWidth = 750;
width = 581;
},
{
anchors = (
{
name = bottom;
position = "{285, 0}";
},
{
name = center;
position = "{285, 350}";
},
{
name = top;
position = "{285, 700}";
}
);
background = {
paths = (
{
closed = 1;
nodes = (
"94 65 LINE",
"508 635 LINE",
"449 635 LINE",
"35 65 LINE"
);
},
{
closed = 1;
nodes = (
"501 0 LINE",
"501 85 LINE",
"103 85 LINE",
"35 65 LINE",
"45 0 LINE"
);
},
{
closed = 1;
nodes = (
"526 163 LINE",
"494 173 LINE",
"445 50 LINE",
"501 0 LINE"
);
},
{
closed = 1;
nodes = (
"116 650 LINE",
"60 700 LINE",
"35 537 LINE",
"67 527 LINE"
);
},
{
closed = 1;
nodes = (
"444 615 LINE",
"508 635 LINE",
"498 700 LINE",
"60 700 LINE",
"60 615 LINE"
);
}
);
};
layerId = "7F56E5C1-F146-4434-90E4-DA1B70285074";
paths = (
{
closed = 1;
nodes = (
"501 0 LINE",
"516 183 LINE",
"474 189 LINE",
"439 62 LINE",
"473 85 LINE",
"83 85 LINE",
"94 65 LINE",
"510 635 LINE",
"500 700 LINE",
"62 700 LINE",
"47 517 LINE",
"89 510 LINE",
"124 638 LINE",
"90 615 LINE",
"446 615 LINE",
"451 635 LINE",
"35 65 LINE",
"45 0 LINE"
);
}
);
vertWidth = 750;
width = 561;
},
{
anchors = (
{
name = bottom;
position = "{308, 0}";
},
{
name = center;
position = "{308, 350}";
},
{
name = top;
position = "{308, 700}";
}
);
layerId = "3CA830F5-1E41-4F35-86DC-34C8110F5ED1";
paths = (
{
closed = 1;
nodes = (
"521 0 LINE",
"546 243 LINE",
"454 253 LINE",
"405 50 LINE",
"501 165 LINE",
"118 165 LINE",
"189 125 LINE",
"528 595 LINE",
"518 700 LINE",
"75 700 LINE",
"50 477 LINE",
"142 467 LINE",
"191 650 LINE",
"105 555 LINE",
"464 555 LINE",
"389 595 LINE",
"50 125 LINE",
"60 0 LINE"
);
}
);
vertWidth = 750;
width = 576;
}
);
leftKerningGroup = Z;
rightKerningGroup = Z;
unicode = 005A;
},
{
glyphname = a;
lastChange = "2023-05-25 08:40:28 +0000";
layers = (
{
anchors = (
{
name = bottom;
position = "{221, 0}";
},
{
name = ogonek;
position = "{376, 0}";
},
{
name = top;
position = "{207, 495}";
}
);
background = {
paths = (
{
closed = 1;
nodes = (
"294 474 OFFCURVE",
"345 441 OFFCURVE",
"345 344 CURVE SMOOTH",
"345 34 LINE",
"334 6 LINE",
"344 -2 LINE",
"422 9 LINE",
"422 23 LINE",
"360 34 LINE",
"360 346 LINE SMOOTH",
"360 461 OFFCURVE",
"314 499 OFFCURVE",
"220 499 CURVE SMOOTH",
"150 499 OFFCURVE",
"95 479 OFFCURVE",
"61 455 CURVE",
"44 348 LINE",
"60 346 LINE",
"94 460 LINE",
"85 442 LINE",
"118 461 OFFCURVE",
"167 474 OFFCURVE",
"217 474 CURVE SMOOTH"
);
},
{
closed = 1;
nodes = (
"40 24 OFFCURVE",
"112 -6 OFFCURVE",
"180 -6 CURVE SMOOTH",
"263 -6 OFFCURVE",
"314 39 OFFCURVE",
"341 107 CURVE",
"345 107 LINE",
"345 139 LINE",
"313 62 OFFCURVE",
"273 19 OFFCURVE",
"182 19 CURVE SMOOTH",
"117 19 OFFCURVE",
"57 40 OFFCURVE",
"57 111 CURVE SMOOTH",
"57 222 OFFCURVE",
"204 251 OFFCURVE",
"345 251 CURVE",
"345 275 LINE",
"118 275 OFFCURVE",
"40 204 OFFCURVE",
"40 112 CURVE SMOOTH"
);
}
);
};
layerId = master01;
paths = (
{
closed = 1;
nodes = (
"264 -6 OFFCURVE",
"322 34 OFFCURVE",
"341 107 CURVE",
"345 107 LINE",
"340 3 LINE",
"350 -2 LINE",
"432 9 LINE",
"432 23 LINE",
"360 34 LINE",
"360 316 LINE SMOOTH",
"360 455 OFFCURVE",
"304 499 OFFCURVE",
"207 499 CURVE SMOOTH",
"145 499 OFFCURVE",
"102 480 OFFCURVE",
"70 460 CURVE",
"63 373 LINE",
"79 371 LINE",
"103 467 LINE",
"89 446 LINE",
"125 466 OFFCURVE",
"162 474 OFFCURVE",
"207 474 CURVE SMOOTH",
"285 474 OFFCURVE",
"345 445 OFFCURVE",
"345 314 CURVE SMOOTH",
"345 127 LINE",
"348 149 LINE",
"317 60 OFFCURVE",
"277 19 OFFCURVE",
"187 19 CURVE SMOOTH",
"125 19 OFFCURVE",
"67 38 OFFCURVE",
"67 115 CURVE SMOOTH",
"67 220 OFFCURVE",
"175 263 OFFCURVE",
"350 261 CURVE",
"354 285 LINE",
"149 287 OFFCURVE",
"50 228 OFFCURVE",
"50 116 CURVE SMOOTH",
"50 22 OFFCURVE",
"119 -6 OFFCURVE",
"185 -6 CURVE SMOOTH"
);
}
);
vertWidth = 750;
width = 467;
},
{
anchors = (
{
name = bottom;
position = "{232, 0}";
},
{
name = ogonek;
position = "{403, 10}";
},
{
name = top;
position = "{208, 500}";
}
);
background = {
paths = (
{
closed = 1;
nodes = (
"298 430 OFFCURVE",
"321 381 OFFCURVE",
"321 307 CURVE SMOOTH",
"321 100 LINE",
"313 7 LINE",
"336 -6 LINE",
"443 18 LINE",
"443 71 LINE",
"376 83 LINE",
"376 306 LINE SMOOTH",
"376 417 OFFCURVE",
"355 510 OFFCURVE",
"218 510 CURVE SMOOTH",
"144 510 OFFCURVE",
"87 483 OFFCURVE",
"49 426 CURVE",
"40 348 LINE",
"88 341 LINE",
"117 408 LINE",
"106 390 LINE",
"132 415 OFFCURVE",
"165 430 OFFCURVE",
"212 430 CURVE SMOOTH"
);
},
{
closed = 1;
nodes = (
"41 21 OFFCURVE",
"111 -10 OFFCURVE",
"174 -10 CURVE SMOOTH",
"249 -10 OFFCURVE",
"292 34 OFFCURVE",
"315 100 CURVE",
"321 100 LINE",
"321 159 LINE",
"291 103 OFFCURVE",
"259 75 OFFCURVE",
"187 75 CURVE SMOOTH",
"127 75 OFFCURVE",
"93 94 OFFCURVE",
"93 134 CURVE SMOOTH",
"93 193 OFFCURVE",
"167 221 OFFCURVE",
"321 221 CURVE",
"321 291 LINE",
"207 291 OFFCURVE",
"41 269 OFFCURVE",
"41 118 CURVE SMOOTH"
);
}
);
};
layerId = "7F56E5C1-F146-4434-90E4-DA1B70285074";
paths = (
{
closed = 1;
nodes = (
"249 -10 OFFCURVE",
"292 34 OFFCURVE",
"315 100 CURVE",
"321 100 LINE",
"308 7 LINE",
"331 -6 LINE",
"443 35 LINE",
"443 89 LINE",
"376 100 LINE",
"376 306 LINE SMOOTH",
"376 417 OFFCURVE",
"355 510 OFFCURVE",
"218 510 CURVE SMOOTH",
"148 510 OFFCURVE",
"95 486 OFFCURVE",
"59 453 CURVE",
"50 355 LINE",
"98 348 LINE",
"141 461 LINE",
"95 410 LINE",
"133 422 OFFCURVE",
"166 430 OFFCURVE",
"204 430 CURVE SMOOTH",
"298 430 OFFCURVE",
"321 384 OFFCURVE",
"321 307 CURVE SMOOTH",
"321 114 LINE",
"337 192 LINE",
"301 114 OFFCURVE",
"272 75 OFFCURVE",
"187 75 CURVE SMOOTH",
"127 75 OFFCURVE",
"93 94 OFFCURVE",
"93 134 CURVE SMOOTH",
"93 197 OFFCURVE",
"176 224 OFFCURVE",
"350 221 CURVE",
"335 291 LINE",
"222 293 OFFCURVE",
"41 276 OFFCURVE",
"41 118 CURVE SMOOTH",
"41 21 OFFCURVE",
"111 -10 OFFCURVE",
"174 -10 CURVE SMOOTH"
);
}
);
width = 470;
},
{
anchors = (
{
name = bottom;
position = "{246, 0}";
},
{
name = ogonek;
position = "{443, 10}";
},
{
name = top;
position = "{226, 510}";
}
);
layerId = "3CA830F5-1E41-4F35-86DC-34C8110F5ED1";
paths = (
{
closed = 1;
nodes = (
"232 -11 OFFCURVE",
"270 27 OFFCURVE",
"292 85 CURVE",
"300 85 LINE",
"292 7 LINE",
"355 -6 LINE",
"472 15 LINE",
"472 130 LINE",
"405 145 LINE",
"405 316 LINE SMOOTH",
"405 427 OFFCURVE",
"379 520 OFFCURVE",
"226 520 CURVE SMOOTH",
"143 520 OFFCURVE",
"90 493 OFFCURVE",
"58 456 CURVE",
"39 328 LINE",
"127 312 LINE",
"158 403 LINE",
"120 346 LINE",
"144 366 OFFCURVE",
"171 376 OFFCURVE",
"213 376 CURVE SMOOTH",
"284 376 OFFCURVE",
"300 349 OFFCURVE",
"300 307 CURVE SMOOTH",
"300 114 LINE",
"325 179 LINE",
"285 145 OFFCURVE",
"255 124 OFFCURVE",
"199 124 CURVE SMOOTH",
"154 124 OFFCURVE",
"142 138 OFFCURVE",
"142 157 CURVE SMOOTH",
"142 201 OFFCURVE",
"202 213 OFFCURVE",
"330 211 CURVE",
"314 291 LINE",
"204 293 OFFCURVE",
"30 276 OFFCURVE",
"30 117 CURVE SMOOTH",
"30 24 OFFCURVE",
"90 -11 OFFCURVE",
"160 -11 CURVE SMOOTH"
);
}
);
width = 492;
},
{
anchors = (
{
name = bottom;
position = "{338, 2}";
},
{
name = top;
position = "{218, 500}";
}
);
associatedMasterId = "7F56E5C1-F146-4434-90E4-DA1B70285074";
layerId = "C964C805-3D66-4F22-B9B3-91E0173142E6";
name = "Apr 16 19, 20:34";
paths = (
{
closed = 1;
nodes = (
"211 -10 OFFCURVE",
"248 52 OFFCURVE",
"278 123 CURVE {name = sh02;}",
"284 123 LINE {name = ah01;}",
"307 204 LINE {name = sh01;}",
"262 97 OFFCURVE",
"214 75 OFFCURVE",
"173 75 CURVE SMOOTH {name = dv02;}",
"113 75 OFFCURVE",
"92 123 OFFCURVE",
"92 194 CURVE SMOOTH {name = sh05;}",
"92 332 OFFCURVE",
"171 425 OFFCURVE",
"261 425 CURVE SMOOTH {name = dv03;}",
"302 425 OFFCURVE",
"336 405 OFFCURVE",
"350 373 CURVE {name = sh04;}",
"384 432 LINE",
"371 478 OFFCURVE",
"331 510 OFFCURVE",
"275 510 CURVE SMOOTH {name = dv04;}",
"152 510 OFFCURVE",
"35 359 OFFCURVE",
"35 169 CURVE SMOOTH {name = sh03;}",
"35 58 OFFCURVE",
"76 -10 OFFCURVE",
"146 -10 CURVE SMOOTH {name = dv01;}"
);
},
{
closed = 1;
nodes = (
"399 35 LINE",
"399 81 LINE",
"334 99 LINE {name = sh07;}",
"440 500 LINE {name = sh09;}",
"390 500 LINE",
"356 395 LINE",
"264 52 LINE",
"264 0 LINE",
"295 -7 LINE {name = sh06;}"
);
}
);
width = 480;
},
{
anchors = (
{
name = bottom;
position = "{338, 2}";
},
{
name = top;
position = "{218, 500}";
}
);
associatedMasterId = "7F56E5C1-F146-4434-90E4-DA1B70285074";
layerId = "F9E8A866-C6D7-4D24-8713-66408250C266";
name = "Apr 18 19, 10:22";
paths = (
{
closed = 1;
nodes = (
"303 430 OFFCURVE",
"326 381 OFFCURVE",
"326 307 CURVE",
"326 7 LINE",
"349 -6 LINE",
"448 18 LINE",
"448 71 LINE",
"381 83 LINE",
"381 306 LINE SMOOTH",
"381 417 OFFCURVE",
"360 510 OFFCURVE",
"223 510 CURVE SMOOTH",
"149 510 OFFCURVE",
"92 483 OFFCURVE",
"54 426 CURVE",
"45 348 LINE",
"93 341 LINE",
"122 408 LINE",
"111 390 LINE",
"137 415 OFFCURVE",
"170 430 OFFCURVE",
"217 430 CURVE SMOOTH"
);
},
{
closed = 1;
nodes = (
"46 20 OFFCURVE",
"116 -11 OFFCURVE",
"183 -11 CURVE SMOOTH",
"265 -11 OFFCURVE",
"314 37 OFFCURVE",
"340 110 CURVE",
"326 149 LINE",
"296 99 OFFCURVE",
"264 74 OFFCURVE",
"194 74 CURVE SMOOTH",
"132 74 OFFCURVE",
"98 93 OFFCURVE",
"98 134 CURVE SMOOTH",
"98 193 OFFCURVE",
"172 221 OFFCURVE",
"326 221 CURVE",
"326 291 LINE",
"212 291 OFFCURVE",
"46 269 OFFCURVE",
"46 118 CURVE SMOOTH"
);
}
);
width = 473;
}
);
leftKerningGroup = a;
rightKerningGroup = n;
rightMetricsKey = n;
unicode = 0061;
},
{
glyphname = adieresis;
lastChange = "2023-05-24 16:11:16 +0000";
layers = (
{
components = (
{
name = a;
},
{
name = dieresiscomb;
transform = "{1, 0, 0, 1, 61, 0}";
}
);
layerId = master01;
width = 467;
},
{
components = (
{
name = a;
},
{
name = dieresiscomb;
transform = "{1, 0, 0, 1, 18, 0}";
}
);
layerId = "7F56E5C1-F146-4434-90E4-DA1B70285074";
width = 470;
},
{
components = (
{
name = a;
},
{
name = dieresiscomb;
transform = "{1, 0, 0, 1, 7, 0}";
}
);
layerId = "3CA830F5-1E41-4F35-86DC-34C8110F5ED1";
width = 492;
},
{
associatedMasterId = "7F56E5C1-F146-4434-90E4-DA1B70285074";
components = (
{
name = dieresiscomb;
transform = "{1, 0, 0, 1, 152, 0}";
}
);
layerId = "EE301BE9-D468-4655-B136-B83C130DCA10";
name = "Jun 7 19, 18:56";
paths = (
{
closed = 1;
nodes = (
"211 -10 OFFCURVE",
"248 52 OFFCURVE",
"278 123 CURVE {name = sh02;}",
"284 123 LINE {name = ah01;}",
"307 204 LINE {name = sh01;}",
"262 97 OFFCURVE",
"214 75 OFFCURVE",
"173 75 CURVE SMOOTH {name = dv02;}",
"113 75 OFFCURVE",
"92 123 OFFCURVE",
"92 194 CURVE SMOOTH {name = sh05;}",
"92 332 OFFCURVE",
"171 425 OFFCURVE",
"261 425 CURVE SMOOTH {name = dv03;}",
"302 425 OFFCURVE",
"336 405 OFFCURVE",
"350 373 CURVE {name = sh04;}",
"384 432 LINE",
"371 478 OFFCURVE",
"331 510 OFFCURVE",
"275 510 CURVE SMOOTH {name = dv04;}",
"152 510 OFFCURVE",
"35 359 OFFCURVE",
"35 169 CURVE SMOOTH {name = sh03;}",
"35 58 OFFCURVE",
"76 -10 OFFCURVE",
"146 -10 CURVE SMOOTH {name = dv01;}"
);
},
{
closed = 1;
nodes = (
"399 35 LINE",
"399 81 LINE",
"334 99 LINE {name = sh07;}",
"440 500 LINE {name = sh09;}",
"390 500 LINE",
"356 395 LINE",
"264 52 LINE",
"264 0 LINE",
"295 -7 LINE {name = sh06;}"
);
}
);
width = 483;
}
);
leftKerningGroup = a;
rightKerningGroup = n;
unicode = 00E4;
},
{
glyphname = ae;
lastChange = "2023-05-24 12:49:22 +0000";
layers = (
{
anchors = (
{
name = bottom;
position = "{354, 0}";
},
{
name = top;
position = "{221, 500}";
}
);
layerId = master01;
paths = (
{
closed = 1;
nodes = (
"619 -5 OFFCURVE",
"678 38 OFFCURVE",
"707 108 CURVE",
"695 114 LINE",
"663 55 OFFCURVE",
"618 20 OFFCURVE",
"545 20 CURVE SMOOTH",
"427 20 OFFCURVE",
"363 111 OFFCURVE",
"363 248 CURVE SMOOTH {name = \"🧨\";}",
"363 385 OFFCURVE",
"427 475 OFFCURVE",
"538 475 CURVE SMOOTH",
"650 475 OFFCURVE",
"702 383 OFFCURVE",
"698 260 CURVE {name = \"🧨\";}",
"703 270 LINE",
"357 270 LINE",
"357 250 LINE",
"713 250 LINE {name = \"🧨\";}",
"720 422 OFFCURVE",
"643 500 OFFCURVE",
"539 500 CURVE SMOOTH",
"434 500 OFFCURVE",
"346 421 OFFCURVE",
"346 250 CURVE SMOOTH {name = \"🧨\";}",
"346 76 OFFCURVE",
"437 -5 OFFCURVE",
"542 -5 CURVE SMOOTH"
);
},
{
closed = 1;
nodes = (
"277 -6 OFFCURVE",
"336 42 OFFCURVE",
"360 121 CURVE",
"368 121 LINE",
"359 161 LINE",
"331 67 OFFCURVE",
"286 19 OFFCURVE",
"186 19 CURVE SMOOTH",
"115 19 OFFCURVE",
"67 43 OFFCURVE",
"67 109 CURVE SMOOTH",
"67 222 OFFCURVE",
"210 250 OFFCURVE",
"351 250 CURVE {name = \"🧨\";}",
"351 270 LINE {name = \"🧨\";}",
"127 270 OFFCURVE",
"50 201 OFFCURVE",
"50 108 CURVE SMOOTH",
"50 28 OFFCURVE",
"108 -6 OFFCURVE",
"185 -6 CURVE SMOOTH"
);
},
{
closed = 1;
nodes = (
"361 254 LINE",
"361 316 LINE SMOOTH",
"361 455 OFFCURVE",
"305 499 OFFCURVE",
"208 499 CURVE SMOOTH",
"146 499 OFFCURVE",
"103 480 OFFCURVE",
"71 460 CURVE",
"64 373 LINE",
"80 371 LINE",
"104 468 LINE",
"86 444 LINE",
"124 465 OFFCURVE",
"161 474 OFFCURVE",
"208 474 CURVE SMOOTH",
"286 474 OFFCURVE",
"346 445 OFFCURVE",
"346 314 CURVE SMOOTH",
"346 254 LINE"
);
}
);
vertWidth = 750;
width = 764;
},
{
anchors = (
{
name = bottom;
position = "{333, 2}";
},
{
name = top;
position = "{213, 500}";
}
);
background = {
paths = (
{
closed = 1;
nodes = (
"597 -10 OFFCURVE",
"654 22 OFFCURVE",
"695 81 CURVE",
"661 121 LINE",
"628 92 OFFCURVE",
"587 75 OFFCURVE",
"536 75 CURVE SMOOTH",
"427 75 OFFCURVE",
"373 144 OFFCURVE",
"373 251 CURVE SMOOTH {name = \"🧨\";}",
"373 354 OFFCURVE",
"423 425 OFFCURVE",
"514 425 CURVE SMOOTH",
"598 425 OFFCURVE",
"644 362 OFFCURVE",
"647 268 CURVE",
"674 300 LINE",
"359 300 LINE",
"359 232 LINE",
"701 232 LINE {name = \"🧨\";}",
"709 421 OFFCURVE",
"625 510 OFFCURVE",
"515 510 CURVE SMOOTH",
"408 510 OFFCURVE",
"321 427 OFFCURVE",
"321 253 CURVE SMOOTH {name = \"🧨\";}",
"321 73 OFFCURVE",
"412 -10 OFFCURVE",
"526 -10 CURVE SMOOTH"
);
},
{
closed = 1;
nodes = (
"271 -11 OFFCURVE",
"319 42 OFFCURVE",
"337 122 CURVE",
"353 122 LINE",
"332 181 LINE",
"310 102 OFFCURVE",
"273 69 OFFCURVE",
"191 69 CURVE SMOOTH",
"127 69 OFFCURVE",
"93 90 OFFCURVE",
"93 132 CURVE SMOOTH",
"93 193 OFFCURVE",
"167 221 OFFCURVE",
"341 221 CURVE",
"341 291 LINE {name = \"🧨\";}",
"207 291 OFFCURVE",
"41 269 OFFCURVE",
"41 118 CURVE SMOOTH",
"41 20 OFFCURVE",
"111 -11 OFFCURVE",
"180 -11 CURVE SMOOTH"
);
},
{
closed = 1;
nodes = (
"372 251 LINE",
"372 306 LINE SMOOTH",
"372 417 OFFCURVE",
"352 510 OFFCURVE",
"217 510 CURVE SMOOTH",
"144 510 OFFCURVE",
"87 483 OFFCURVE",
"49 426 CURVE",
"40 348 LINE",
"88 341 LINE",
"117 408 LINE",
"106 390 LINE",
"132 415 OFFCURVE",
"165 430 OFFCURVE",
"212 430 CURVE SMOOTH",
"298 430 OFFCURVE",
"321 381 OFFCURVE",
"321 307 CURVE SMOOTH",
"321 251 LINE {name = \"🔥\";}"
);
}
);
};
layerId = "7F56E5C1-F146-4434-90E4-DA1B70285074";
paths = (
{
closed = 1;
nodes = (
"597 -10 OFFCURVE",
"654 22 OFFCURVE",
"695 81 CURVE",
"661 121 LINE",
"628 92 OFFCURVE",
"587 75 OFFCURVE",
"536 75 CURVE SMOOTH",
"427 75 OFFCURVE",
"373 144 OFFCURVE",
"373 251 CURVE SMOOTH {name = \"🧨\";}",
"373 354 OFFCURVE",
"423 425 OFFCURVE",
"514 425 CURVE SMOOTH",
"598 425 OFFCURVE",
"644 362 OFFCURVE",
"647 268 CURVE",
"674 300 LINE",
"359 300 LINE",
"359 232 LINE",
"701 232 LINE {name = \"🧨\";}",
"709 421 OFFCURVE",
"625 510 OFFCURVE",
"515 510 CURVE SMOOTH",
"408 510 OFFCURVE",
"321 427 OFFCURVE",
"321 253 CURVE SMOOTH {name = \"🧨\";}",
"321 73 OFFCURVE",
"412 -10 OFFCURVE",
"526 -10 CURVE SMOOTH"
);
},
{
closed = 1;
nodes = (
"271 -11 OFFCURVE",
"319 42 OFFCURVE",
"337 122 CURVE",
"353 122 LINE",
"332 181 LINE",
"310 102 OFFCURVE",
"273 69 OFFCURVE",
"191 69 CURVE SMOOTH",
"127 69 OFFCURVE",
"93 90 OFFCURVE",
"93 132 CURVE SMOOTH",
"93 193 OFFCURVE",
"167 221 OFFCURVE",
"341 221 CURVE",
"341 291 LINE {name = \"🧨\";}",
"207 291 OFFCURVE",
"41 269 OFFCURVE",
"41 118 CURVE SMOOTH",
"41 20 OFFCURVE",
"111 -11 OFFCURVE",
"180 -11 CURVE SMOOTH"
);
},
{
closed = 1;
nodes = (
"370 251 LINE",
"370 306 LINE SMOOTH",
"370 418 OFFCURVE",
"350 510 OFFCURVE",
"216 510 CURVE SMOOTH",
"148 510 OFFCURVE",
"95 486 OFFCURVE",
"59 453 CURVE",
"50 355 LINE",
"98 348 LINE",
"141 461 LINE",
"95 410 LINE",
"133 422 OFFCURVE",
"166 430 OFFCURVE",
"204 430 CURVE SMOOTH",
"298 430 OFFCURVE",
"321 384 OFFCURVE",
"321 307 CURVE SMOOTH",
"321 251 LINE"
);
}
);
width = 747;
},
{
anchors = (
{
name = bottom;
position = "{322, 2}";
},
{
name = top;
position = "{223, 500}";
}
);
layerId = "3CA830F5-1E41-4F35-86DC-34C8110F5ED1";
paths = (
{
closed = 1;
nodes = (
"587 -10 OFFCURVE",
"644 28 OFFCURVE",
"695 97 CURVE",
"631 169 LINE",
"598 142 OFFCURVE",
"555 130 OFFCURVE",
"510 130 CURVE SMOOTH",
"420 130 OFFCURVE",
"392 178 OFFCURVE",
"392 248 CURVE SMOOTH",
"392 326 OFFCURVE",
"426 375 OFFCURVE",
"499 375 CURVE SMOOTH",
"560 375 OFFCURVE",
"596 337 OFFCURVE",
"597 250 CURVE",
"653 296 LINE",
"348 296 LINE",
"348 216 LINE",
"700 216 LINE {name = \"🧨\";}",
"718 431 OFFCURVE",
"622 520 OFFCURVE",
"508 520 CURVE SMOOTH",
"393 520 OFFCURVE",
"300 435 OFFCURVE",
"300 249 CURVE SMOOTH {name = \"🧨\";}",
"300 73 OFFCURVE",
"384 -10 OFFCURVE",
"505 -10 CURVE SMOOTH"
);
},
{
closed = 1;
nodes = (
"245 -11 OFFCURVE",
"301 19 OFFCURVE",
"317 115 CURVE",
"325 115 LINE",
"310 169 LINE",
"278 141 OFFCURVE",
"247 124 OFFCURVE",
"199 124 CURVE SMOOTH",
"154 124 OFFCURVE",
"142 138 OFFCURVE",
"142 157 CURVE SMOOTH",
"142 197 OFFCURVE",
"194 211 OFFCURVE",
"322 211 CURVE",
"322 291 LINE {name = \"🧨\";}",
"190 291 OFFCURVE",
"30 269 OFFCURVE",
"30 117 CURVE SMOOTH",
"30 24 OFFCURVE",
"90 -11 OFFCURVE",
"170 -11 CURVE SMOOTH"
);
},
{
closed = 1;
nodes = (
"385 254 LINE",
"385 316 LINE SMOOTH",
"385 427 OFFCURVE",
"362 520 OFFCURVE",
"220 520 CURVE SMOOTH",
"143 520 OFFCURVE",
"90 493 OFFCURVE",
"58 456 CURVE",
"39 328 LINE",
"127 312 LINE",
"166 425 LINE",
"117 344 LINE",
"141 365 OFFCURVE",
"168 376 OFFCURVE",
"213 376 CURVE SMOOTH",
"284 376 OFFCURVE",
"300 349 OFFCURVE",
"300 307 CURVE SMOOTH",
"300 254 LINE"
);
}
);
width = 730;
}
);
leftKerningGroup = a;
leftMetricsKey = a;
rightKerningGroup = e;
rightMetricsKey = e;
unicode = 00E6;
},
{
glyphname = b;
lastChange = "2023-05-28 10:46:28 +0000";
layers = (
{
background = {
paths = (
{
closed = 1;
nodes = (
"401 -5 OFFCURVE",
"469 73 OFFCURVE",
"469 250 CURVE SMOOTH",
"469 418 OFFCURVE",
"406 500 OFFCURVE",
"286 500 CURVE SMOOTH",
"202 500 OFFCURVE",
"132 458 OFFCURVE",
"92 375 CURVE",
"102 368 LINE {name = \"🧨\";}",
"137 435 OFFCURVE",
"202 475 OFFCURVE",
"282 475 CURVE SMOOTH",
"408 475 OFFCURVE",
"453 379 OFFCURVE",
"453 250 CURVE SMOOTH",
"453 105 OFFCURVE",
"398 20 OFFCURVE",
"284 20 CURVE SMOOTH",
"199 20 OFFCURVE",
"138 68 OFFCURVE",
"103 174 CURVE {name = \"🧨\";}",
"103 123 LINE",
"109 123 LINE",
"142 55 OFFCURVE",
"179 -5 OFFCURVE",
"283 -5 CURVE SMOOTH"
);
},
{
closed = 1;
nodes = (
"102 0 LINE",
"103 123 LINE {name = \"🔥\";}",
"103 687 LINE",
"114 748 LINE",
"105 755 LINE",
"20 712 LINE",
"20 697 LINE",
"88 687 LINE",
"88 0 LINE"
);
}
);
};
layerId = master01;
paths = (
{
closed = 1;
nodes = (
"401 -5 OFFCURVE",
"469 73 OFFCURVE",
"469 250 CURVE SMOOTH",
"469 418 OFFCURVE",
"406 500 OFFCURVE",
"286 500 CURVE SMOOTH",
"202 500 OFFCURVE",
"132 458 OFFCURVE",
"92 375 CURVE",
"99 363 LINE {name = \"🧨\";}",
"135 433 OFFCURVE",
"201 475 OFFCURVE",
"282 475 CURVE SMOOTH",
"408 475 OFFCURVE",
"453 379 OFFCURVE",
"453 250 CURVE SMOOTH",
"453 105 OFFCURVE",
"398 20 OFFCURVE",
"284 20 CURVE SMOOTH",
"196 20 OFFCURVE",
"133 71 OFFCURVE",
"98 190 CURVE {name = \"🧨\";}",
"96 123 LINE",
"109 123 LINE",
"142 55 OFFCURVE",
"179 -5 OFFCURVE",
"283 -5 CURVE SMOOTH"
);
},
{
closed = 1;
nodes = (
"102 0 LINE",
"103 126 LINE {name = \"🧨\";}",
"103 687 LINE",
"114 748 LINE",
"105 755 LINE",
"20 712 LINE",
"20 697 LINE",
"88 687 LINE",
"88 0 LINE"
);
}
);
vertWidth = 750;
width = 514;
},
{
background = {
paths = (
{
closed = 1;
nodes = (
"402 -10 OFFCURVE",
"494 69 OFFCURVE",
"494 254 CURVE SMOOTH",
"494 423 OFFCURVE",
"417 510 OFFCURVE",
"299 510 CURVE SMOOTH",
"208 510 OFFCURVE",
"143 460 OFFCURVE",
"119 346 CURVE",
"146 333 LINE {name = \"🧨\";}",
"172 401 OFFCURVE",
"228 425 OFFCURVE",
"290 425 CURVE SMOOTH",
"399 425 OFFCURVE",
"437 347 OFFCURVE",
"437 250 CURVE SMOOTH",
"437 135 OFFCURVE",
"383 75 OFFCURVE",
"287 75 CURVE SMOOTH",
"219 75 OFFCURVE",
"170 106 OFFCURVE",
"147 174 CURVE {name = \"🧨\";}",
"147 93 LINE",
"153 93 LINE",
"170 49 OFFCURVE",
"207 -10 OFFCURVE",
"296 -10 CURVE SMOOTH"
);
},
{
closed = 1;
nodes = (
"127 0 LINE",
"147 93 LINE {name = \"🔥\";}",
"147 647 LINE",
"168 748 LINE",
"142 760 LINE",
"25 712 LINE",
"25 657 LINE",
"92 647 LINE",
"92 0 LINE"
);
}
);
};
layerId = "7F56E5C1-F146-4434-90E4-DA1B70285074";
paths = (
{
closed = 1;
nodes = (
"402 -10 OFFCURVE",
"494 69 OFFCURVE",
"494 254 CURVE SMOOTH",
"494 423 OFFCURVE",
"417 510 OFFCURVE",
"299 510 CURVE SMOOTH",
"205 510 OFFCURVE",
"141 457 OFFCURVE",
"114 336 CURVE",
"141 320 LINE {name = \"🧨\";}",
"168 402 OFFCURVE",
"227 425 OFFCURVE",
"288 425 CURVE SMOOTH",
"400 425 OFFCURVE",
"437 346 OFFCURVE",
"437 250 CURVE SMOOTH",
"437 135 OFFCURVE",
"383 75 OFFCURVE",
"287 75 CURVE SMOOTH",
"215 75 OFFCURVE",
"163 107 OFFCURVE",
"139 197 CURVE {name = \"🧨\";}",
"137 93 LINE",
"153 93 LINE",
"170 49 OFFCURVE",
"207 -10 OFFCURVE",
"296 -10 CURVE SMOOTH"
);
},
{
closed = 1;
nodes = (
"127 0 LINE",
"147 97 LINE {name = \"🧨\";}",
"147 647 LINE",
"168 748 LINE",
"142 760 LINE",
"25 712 LINE",
"25 657 LINE",
"92 647 LINE",
"92 0 LINE"
);
}
);
vertWidth = 750;
width = 541;
},
{
background = {
paths = (
{
closed = 1;
nodes = (
"441 -9 OFFCURVE",
"509 98 OFFCURVE",
"509 266 CURVE SMOOTH",
"509 444 OFFCURVE",
"433 520 OFFCURVE",
"324 520 CURVE SMOOTH",
"226 520 OFFCURVE",
"167 458 OFFCURVE",
"134 321 CURVE",
"181 294 LINE {name = \"🧨\";}",
"207 351 OFFCURVE",
"245 365 OFFCURVE",
"291 365 CURVE SMOOTH",
"363 365 OFFCURVE",
"402 327 OFFCURVE",
"402 259 CURVE SMOOTH",
"402 192 OFFCURVE",
"364 146 OFFCURVE",
"291 146 CURVE SMOOTH",
"245 146 OFFCURVE",
"208 164 OFFCURVE",
"182 204 CURVE {name = \"🧨\";}",
"182 103 LINE",
"193 103 LINE",
"202 36 OFFCURVE",
"243 -9 OFFCURVE",
"321 -9 CURVE SMOOTH"
);
},
{
closed = 1;
nodes = (
"152 0 LINE",
"182 103 LINE {name = \"🔥\";}",
"182 567 LINE",
"203 748 LINE",
"137 760 LINE",
"10 712 LINE",
"10 577 LINE",
"77 567 LINE",
"77 0 LINE"
);
}
);
};
layerId = "3CA830F5-1E41-4F35-86DC-34C8110F5ED1";
paths = (
{
closed = 1;
nodes = (
"441 -9 OFFCURVE",
"509 98 OFFCURVE",
"509 266 CURVE SMOOTH",
"509 444 OFFCURVE",
"433 520 OFFCURVE",
"324 520 CURVE SMOOTH",
"224 520 OFFCURVE",
"165 455 OFFCURVE",
"131 311 CURVE",
"172 274 LINE {name = \"🧨\";}",
"201 350 OFFCURVE",
"241 365 OFFCURVE",
"291 365 CURVE SMOOTH",
"363 365 OFFCURVE",
"402 327 OFFCURVE",
"402 259 CURVE SMOOTH",
"402 192 OFFCURVE",
"364 146 OFFCURVE",
"291 146 CURVE SMOOTH",
"241 146 OFFCURVE",
"197 167 OFFCURVE",
"173 224 CURVE {name = \"🧨\";}",
"172 103 LINE",
"193 103 LINE",
"202 36 OFFCURVE",
"243 -9 OFFCURVE",
"321 -9 CURVE SMOOTH"
);
},
{
closed = 1;
nodes = (
"152 0 LINE",
"182 106 LINE {name = \"🧨\";}",
"182 567 LINE",
"203 748 LINE",
"137 760 LINE",
"10 712 LINE",
"10 577 LINE",
"77 567 LINE",
"77 0 LINE"
);
}
);
vertWidth = 750;
width = 544;
},
{
associatedMasterId = "3CA830F5-1E41-4F35-86DC-34C8110F5ED1";
background = {
paths = (
{
closed = 1;
nodes = (
"489 -9 OFFCURVE",
"554 91 OFFCURVE",
"554 252 CURVE SMOOTH",
"554 436 OFFCURVE",
"470 520 OFFCURVE",
"349 520 CURVE SMOOTH",
"250 520 OFFCURVE",
"188 462 OFFCURVE",
"154 335 CURVE",
"201 308 LINE",
"222 351 OFFCURVE",
"274 365 OFFCURVE",
"324 365 CURVE SMOOTH",
"414 365 OFFCURVE",
"447 313 OFFCURVE",
"447 250 CURVE SMOOTH",
"447 181 OFFCURVE",
"409 146 OFFCURVE",
"326 146 CURVE SMOOTH",
"274 146 OFFCURVE",
"234 159 OFFCURVE",
"202 214 CURVE",
"202 123 LINE",
"213 123 LINE",
"234 52 OFFCURVE",
"266 -9 OFFCURVE",
"361 -9 CURVE SMOOTH"
);
},
{
closed = 1;
nodes = (
"202 0 LINE",
"202 567 LINE",
"223 748 LINE",
"157 760 LINE",
"30 712 LINE",
"30 577 LINE",
"97 567 LINE",
"97 163 LINE",
"30 130 LINE",
"30 0 LINE"
);
}
);
};
layerId = "43C0CAFB-6FDF-4DA6-BA4E-2FAF39951554";
name = "29 Jan 23 17.14";
paths = (
{
closed = 1;
nodes = (
"465 -9 OFFCURVE",
"534 92 OFFCURVE",
"534 261 CURVE SMOOTH",
"534 438 OFFCURVE",
"458 520 OFFCURVE",
"347 520 CURVE SMOOTH",
"250 520 OFFCURVE",
"188 458 OFFCURVE",
"154 321 CURVE",
"201 294 LINE",
"228 351 OFFCURVE",
"268 365 OFFCURVE",
"316 365 CURVE SMOOTH",
"397 365 OFFCURVE",
"427 325 OFFCURVE",
"427 258 CURVE SMOOTH",
"427 190 OFFCURVE",
"397 146 OFFCURVE",
"320 146 CURVE SMOOTH",
"267 146 OFFCURVE",
"229 167 OFFCURVE",
"202 214 CURVE",
"202 123 LINE",
"213 123 LINE",
"223 44 OFFCURVE",
"264 -9 OFFCURVE",
"349 -9 CURVE SMOOTH"
);
},
{
closed = 1;
nodes = (
"202 0 LINE",
"202 567 LINE",
"223 748 LINE",
"157 760 LINE",
"30 712 LINE",
"30 577 LINE",
"97 567 LINE",
"97 163 LINE",
"30 130 LINE",
"30 0 LINE"
);
}
);
vertWidth = 750;
width = 564;
},
{
associatedMasterId = "7F56E5C1-F146-4434-90E4-DA1B70285074";
layerId = "FD5A5494-871C-4E2A-9B8B-397F129F27E7";
name = "29 Jan 23 17.15";
paths = (
{
closed = 1;
nodes = (
"432 -10 OFFCURVE",
"524 73 OFFCURVE",
"524 253 CURVE SMOOTH",
"524 427 OFFCURVE",
"438 510 OFFCURVE",
"317 510 CURVE SMOOTH",
"226 510 OFFCURVE",
"154 463 OFFCURVE",
"129 366 CURVE",
"156 353 LINE",
"182 398 OFFCURVE",
"240 425 OFFCURVE",
"309 425 CURVE SMOOTH",
"422 425 OFFCURVE",
"467 350 OFFCURVE",
"467 250 CURVE SMOOTH",
"467 140 OFFCURVE",
"412 75 OFFCURVE",
"314 75 CURVE SMOOTH",
"238 75 OFFCURVE",
"183 115 OFFCURVE",
"157 204 CURVE",
"157 123 LINE",
"163 123 LINE",
"187 52 OFFCURVE",
"225 -10 OFFCURVE",
"320 -10 CURVE SMOOTH"
);
},
{
closed = 1;
nodes = (
"137 0 LINE",
"157 123 LINE",
"157 647 LINE",
"178 748 LINE",
"152 760 LINE",
"35 712 LINE",
"35 657 LINE",
"102 647 LINE",
"102 0 LINE"
);
}
);
vertWidth = 750;
width = 569;
}
);
leftKerningGroup = b;
rightKerningGroup = o;
rightMetricsKey = o;
unicode = 0062;
},
{
glyphname = c;
lastChange = "2023-05-24 17:25:53 +0000";
layers = (
{
anchors = (
{
name = cedilla;
position = "{239, 0}";
},
{
name = top;
position = "{256, 500}";
}
);
background = {
paths = (
{
closed = 1;
nodes = (
"323 -5 OFFCURVE",
"389 34 OFFCURVE",
"423 112 CURVE",
"411 118 LINE",
"380 48 OFFCURVE",
"317 20 OFFCURVE",
"247 20 CURVE SMOOTH",
"121 20 OFFCURVE",
"62 111 OFFCURVE",
"62 249 CURVE SMOOTH",
"62 384 OFFCURVE",
"119 475 OFFCURVE",
"256 475 CURVE SMOOTH",
"312 475 OFFCURVE",
"355 459 OFFCURVE",
"384 434 CURVE",
"378 447 LINE",
"369 465 LINE",
"396 344 LINE",
"414 346 LINE",
"404 451 LINE",
"366 485 OFFCURVE",
"309 500 OFFCURVE",
"256 500 CURVE SMOOTH",
"133 500 OFFCURVE",
"45 421 OFFCURVE",
"45 249 CURVE SMOOTH",
"45 76 OFFCURVE",
"132 -5 OFFCURVE",
"245 -5 CURVE SMOOTH"
);
}
);
};
layerId = master01;
paths = (
{
closed = 1;
nodes = (
"316 -5 OFFCURVE",
"375 25 OFFCURVE",
"409 78 CURVE",
"399 85 LINE",
"368 42 OFFCURVE",
"312 20 OFFCURVE",
"249 20 CURVE SMOOTH",
"122 20 OFFCURVE",
"62 111 OFFCURVE",
"62 249 CURVE SMOOTH",
"62 384 OFFCURVE",
"119 475 OFFCURVE",
"256 475 CURVE SMOOTH",
"312 475 OFFCURVE",
"355 459 OFFCURVE",
"384 434 CURVE",
"378 447 LINE",
"369 465 LINE",
"396 344 LINE",
"414 346 LINE",
"404 451 LINE",
"366 485 OFFCURVE",
"309 500 OFFCURVE",
"256 500 CURVE SMOOTH",
"133 500 OFFCURVE",
"45 421 OFFCURVE",
"45 249 CURVE SMOOTH",
"45 76 OFFCURVE",
"133 -5 OFFCURVE",
"247 -5 CURVE SMOOTH"
);
}
);
userData = {
com.typemytype.robofont.guides = (
{
isGlobal = 0;
magnetic = 5;
x = 0;
y = -213;
}
);
};
vertWidth = 750;
width = 463;
},
{
anchors = (
{
name = cedilla;
position = "{260, 0}";
},
{
name = top;
position = "{265, 500}";
}
);
layerId = "7F56E5C1-F146-4434-90E4-DA1B70285074";
paths = (
{
closed = 1;
nodes = (
"332 -10 OFFCURVE",
"392 18 OFFCURVE",
"439 81 CURVE",
"405 121 LINE",
"371 92 OFFCURVE",
"324 75 OFFCURVE",
"268 75 CURVE SMOOTH",
"155 75 OFFCURVE",
"104 140 OFFCURVE",
"104 245 CURVE SMOOTH",
"104 350 OFFCURVE",
"156 425 OFFCURVE",
"262 425 CURVE SMOOTH",
"320 425 OFFCURVE",
"362 403 OFFCURVE",
"387 366 CURVE",
"367 396 LINE",
"348 425 LINE",
"386 341 LINE",
"434 348 LINE",
"425 456 LINE",
"387 493 OFFCURVE",
"330 510 OFFCURVE",
"271 510 CURVE SMOOTH",
"143 510 OFFCURVE",
"47 422 OFFCURVE",
"47 245 CURVE SMOOTH",
"47 68 OFFCURVE",
"141 -10 OFFCURVE",
"262 -10 CURVE SMOOTH"
);
}
);
userData = {
com.typemytype.robofont.guides = (
{
isGlobal = 0;
magnetic = 5;
x = 0;
y = -213;
}
);
};
width = 484;
},
{
anchors = (
{
name = cedilla;
position = "{249, 0}";
},
{
name = top;
position = "{254, 500}";
}
);
background = {
paths = (
{
closed = 1;
nodes = (
"341 -10 OFFCURVE",
"408 24 OFFCURVE",
"460 97 CURVE",
"396 184 LINE",
"359 154 OFFCURVE",
"312 145 OFFCURVE",
"268 145 CURVE SMOOTH",
"179 145 OFFCURVE",
"142 187 OFFCURVE",
"142 253 CURVE SMOOTH",
"142 319 OFFCURVE",
"178 365 OFFCURVE",
"262 365 CURVE SMOOTH",
"305 365 OFFCURVE",
"341 353 OFFCURVE",
"362 333 CURVE",
"352 370 LINE",
"301 400 LINE",
"345 290 LINE",
"433 311 LINE",
"414 466 LINE",
"376 503 OFFCURVE",
"319 520 OFFCURVE",
"260 520 CURVE SMOOTH",
"131 520 OFFCURVE",
"35 434 OFFCURVE",
"35 253 CURVE SMOOTH",
"35 73 OFFCURVE",
"129 -10 OFFCURVE",
"259 -10 CURVE SMOOTH"
);
}
);
};
layerId = "3CA830F5-1E41-4F35-86DC-34C8110F5ED1";
paths = (
{
closed = 1;
nodes = (
"330 -10 OFFCURVE",
"398 24 OFFCURVE",
"450 97 CURVE",
"386 184 LINE",
"349 154 OFFCURVE",
"301 145 OFFCURVE",
"261 145 CURVE SMOOTH",
"176 145 OFFCURVE",
"142 188 OFFCURVE",
"142 254 CURVE SMOOTH",
"142 320 OFFCURVE",
"178 365 OFFCURVE",
"262 365 CURVE SMOOTH",
"305 365 OFFCURVE",
"341 353 OFFCURVE",
"362 333 CURVE",
"352 370 LINE",
"301 400 LINE",
"345 290 LINE",
"433 311 LINE",
"414 479 LINE",
"376 507 OFFCURVE",
"318 520 OFFCURVE",
"265 520 CURVE SMOOTH",
"130 520 OFFCURVE",
"35 425 OFFCURVE",
"35 251 CURVE SMOOTH",
"35 83 OFFCURVE",
"124 -10 OFFCURVE",
"252 -10 CURVE SMOOTH"
);
}
);
userData = {
com.typemytype.robofont.guides = (
{
isGlobal = 0;
magnetic = 5;
x = 0;
y = -213;
}
);
};
width = 470;
},
{
anchors = (
{
name = cedilla;
position = "{244, 0}";
},
{
name = top;
position = "{249, 500}";
}
);
associatedMasterId = "3CA830F5-1E41-4F35-86DC-34C8110F5ED1";
layerId = "E8D8F661-E0BC-463A-AB2D-EF7279C649EB";
name = "26 Jan 23 17.54";
paths = (
{
closed = 1;
nodes = (
"336 -10 OFFCURVE",
"403 24 OFFCURVE",
"455 97 CURVE",
"391 184 LINE",
"354 154 OFFCURVE",
"307 145 OFFCURVE",
"263 145 CURVE SMOOTH",
"174 145 OFFCURVE",
"137 187 OFFCURVE",
"137 253 CURVE SMOOTH",
"137 319 OFFCURVE",
"173 365 OFFCURVE",
"251 365 CURVE SMOOTH",
"309 365 OFFCURVE",
"354 343 OFFCURVE",
"381 306 CURVE",
"384 334 LINE",
"296 400 LINE",
"340 290 LINE",
"428 311 LINE",
"409 466 LINE",
"371 503 OFFCURVE",
"314 520 OFFCURVE",
"255 520 CURVE SMOOTH",
"126 520 OFFCURVE",
"30 434 OFFCURVE",
"30 253 CURVE SMOOTH",
"30 73 OFFCURVE",
"124 -10 OFFCURVE",
"254 -10 CURVE SMOOTH"
);
}
);
userData = {
com.typemytype.robofont.guides = (
{
isGlobal = 0;
magnetic = 5;
x = 0;
y = -213;
}
);
};
width = 485;
},
{
anchors = (
{
name = cedilla;
position = "{244, 0}";
},
{
name = top;
position = "{249, 500}";
}
);
associatedMasterId = "3CA830F5-1E41-4F35-86DC-34C8110F5ED1";
background = {
paths = (
{
closed = 1;
nodes = (
"336 -10 OFFCURVE",
"403 24 OFFCURVE",
"455 97 CURVE",
"391 184 LINE",
"354 154 OFFCURVE",
"307 145 OFFCURVE",
"263 145 CURVE SMOOTH",
"174 145 OFFCURVE",
"137 187 OFFCURVE",
"137 253 CURVE SMOOTH",
"137 319 OFFCURVE",
"173 365 OFFCURVE",
"251 365 CURVE SMOOTH",
"309 365 OFFCURVE",
"354 343 OFFCURVE",
"381 306 CURVE",
"384 334 LINE",
"296 400 LINE",
"340 290 LINE",
"428 311 LINE",
"409 466 LINE",
"371 503 OFFCURVE",
"314 520 OFFCURVE",
"255 520 CURVE SMOOTH",
"126 520 OFFCURVE",
"30 434 OFFCURVE",
"30 253 CURVE SMOOTH",
"30 73 OFFCURVE",
"124 -10 OFFCURVE",
"254 -10 CURVE SMOOTH"
);
}
);
};
layerId = "5E837601-8DD6-4184-8516-7876B878E768";
name = "29 Jan 23 16.27";
paths = (
{
closed = 1;
nodes = (
"336 -10 OFFCURVE",
"403 24 OFFCURVE",
"455 97 CURVE",
"391 184 LINE",
"354 154 OFFCURVE",
"307 145 OFFCURVE",
"263 145 CURVE SMOOTH",
"174 145 OFFCURVE",
"137 187 OFFCURVE",
"137 253 CURVE SMOOTH",
"137 319 OFFCURVE",
"173 365 OFFCURVE",
"257 365 CURVE SMOOTH",
"300 365 OFFCURVE",
"336 353 OFFCURVE",
"357 333 CURVE",
"347 370 LINE",
"296 400 LINE",
"340 290 LINE",
"428 311 LINE",
"409 466 LINE",
"371 503 OFFCURVE",
"314 520 OFFCURVE",
"255 520 CURVE SMOOTH",
"126 520 OFFCURVE",
"30 434 OFFCURVE",
"30 253 CURVE SMOOTH",
"30 73 OFFCURVE",
"124 -10 OFFCURVE",
"254 -10 CURVE SMOOTH"
);
}
);
userData = {
com.typemytype.robofont.guides = (
{
isGlobal = 0;
magnetic = 5;
x = 0;
y = -213;
}
);
};
width = 485;
}
);
leftKerningGroup = o;
leftMetricsKey = o;
rightKerningGroup = c;
unicode = 0063;
},
{
glyphname = d;
lastChange = "2023-05-24 17:04:59 +0000";
layers = (
{
anchors = (
{
name = bottom;
position = "{254, 0}";
},
{
name = center;
position = "{254, 495}";
},
{
name = top;
position = "{254, 750}";
},
{
name = topright;
position = "{435, 495}";
}
);
background = {
paths = (
{
closed = 1;
nodes = (
"333 -5 OFFCURVE",
"381 56 OFFCURVE",
"405 123 CURVE {name = sh02;}",
"411 123 LINE {name = \"🧨\";}",
"411 204 LINE {name = \"🧨\";}",
"384 50 OFFCURVE",
"310 20 OFFCURVE",
"239 20 CURVE SMOOTH {name = dv02;}",
"108 20 OFFCURVE",
"62 121 OFFCURVE",
"62 247 CURVE SMOOTH {name = sh05;}",
"62 393 OFFCURVE",
"124 475 OFFCURVE",
"245 475 CURVE SMOOTH {name = dv03;}",
"334 475 OFFCURVE",
"388 427 OFFCURVE",
"412 348 CURVE {name = \"🧨\";}",
"423 352 LINE",
"400 452 OFFCURVE",
"332 500 OFFCURVE",
"245 500 CURVE SMOOTH {name = dv04;}",
"129 500 OFFCURVE",
"45 421 OFFCURVE",
"45 249 CURVE SMOOTH {name = sh03;}",
"45 79 OFFCURVE",
"127 -5 OFFCURVE",
"238 -5 CURVE SMOOTH {name = dv01;}"
);
},
{
closed = 1;
nodes = (
"488 15 LINE",
"488 30 LINE",
"426 40 LINE {name = sh07;}",
"426 697 LINE",
"438 758 LINE",
"429 765 LINE",
"339 722 LINE",
"339 707 LINE",
"411 697 LINE",
"411 40 LINE",
"400 6 LINE",
"410 -2 LINE"
);
}
);
};
layerId = master01;
paths = (
{
closed = 1;
nodes = (
"333 -5 OFFCURVE",
"381 56 OFFCURVE",
"405 123 CURVE {name = sh02;}",
"419 123 LINE {name = \"🧨\";}",
"415 221 LINE {name = \"🧨\";}",
"386 51 OFFCURVE",
"311 20 OFFCURVE",
"239 20 CURVE SMOOTH {name = dv02;}",
"108 20 OFFCURVE",
"62 121 OFFCURVE",
"62 247 CURVE SMOOTH {name = sh05;}",
"62 393 OFFCURVE",
"124 475 OFFCURVE",
"245 475 CURVE SMOOTH {name = dv03;}",
"334 475 OFFCURVE",
"388 427 OFFCURVE",
"414 345 CURVE {name = \"🧨\";}",
"425 349 LINE {name = \"🧨\";}",
"400 452 OFFCURVE",
"332 500 OFFCURVE",
"245 500 CURVE SMOOTH {name = dv04;}",
"129 500 OFFCURVE",
"45 421 OFFCURVE",
"45 249 CURVE SMOOTH {name = sh03;}",
"45 79 OFFCURVE",
"127 -5 OFFCURVE",
"238 -5 CURVE SMOOTH {name = dv01;}"
);
},
{
closed = 1;
nodes = (
"488 15 LINE",
"488 30 LINE",
"426 40 LINE {name = sh07;}",
"426 697 LINE",
"438 758 LINE",
"429 765 LINE",
"339 722 LINE",
"339 707 LINE",
"411 697 LINE",
"411 127 LINE",
"405 6 LINE",
"415 -2 LINE"
);
}
);
vertWidth = 750;
width = 523;
},
{
anchors = (
{
name = bottom;
position = "{260, 0}";
},
{
name = center;
position = "{260, 500}";
},
{
name = top;
position = "{260, 750}";
},
{
name = topright;
position = "{464, 500}";
}
);
background = {
paths = (
{
closed = 1;
nodes = (
"325 -10 OFFCURVE",
"364 52 OFFCURVE",
"388 123 CURVE {name = sh02;}",
"394 123 LINE {name = ah01;}",
"394 204 LINE {name = sh01;}",
"367 96 OFFCURVE",
"303 75 OFFCURVE",
"242 75 CURVE SMOOTH {name = dv02;}",
"129 75 OFFCURVE",
"84 145 OFFCURVE",
"84 250 CURVE SMOOTH {name = sh05;}",
"84 355 OFFCURVE",
"129 425 OFFCURVE",
"242 425 CURVE SMOOTH {name = dv03;}",
"311 425 OFFCURVE",
"369 398 OFFCURVE",
"395 353 CURVE {name = sh04;}",
"422 366 LINE",
"397 463 OFFCURVE",
"335 510 OFFCURVE",
"244 510 CURVE SMOOTH {name = dv04;}",
"123 510 OFFCURVE",
"27 427 OFFCURVE",
"27 248 CURVE SMOOTH {name = sh03;}",
"27 73 OFFCURVE",
"118 -10 OFFCURVE",
"229 -10 CURVE SMOOTH {name = dv01;}"
);
},
{
closed = 1;
nodes = (
"516 35 LINE",
"516 90 LINE",
"449 100 LINE {name = sh07;}",
"449 740 LINE {name = sh09;}",
"394 696 LINE",
"394 100 LINE",
"373 5 LINE",
"399 -7 LINE {name = sh06;}"
);
},
{
closed = 1;
nodes = (
"449 652 LINE",
"449 750 LINE",
"411 760 LINE",
"307 712 LINE",
"307 662 LINE",
"394 652 LINE {name = sh08;}"
);
}
);
};
layerId = "7F56E5C1-F146-4434-90E4-DA1B70285074";
paths = (
{
closed = 1;
nodes = (
"327 -10 OFFCURVE",
"367 48 OFFCURVE",
"384 123 CURVE {name = sh02;}",
"398 123 LINE {name = \"🧨\";}",
"397 220 LINE {name = \"🧨\";}",
"369 102 OFFCURVE",
"310 75 OFFCURVE",
"248 75 CURVE SMOOTH {name = dv02;}",
"147 75 OFFCURVE",
"104 145 OFFCURVE",
"104 251 CURVE SMOOTH {name = sh05;}",
"104 355 OFFCURVE",
"146 425 OFFCURVE",
"252 425 CURVE SMOOTH {name = dv03;}",
"316 425 OFFCURVE",
"371 398 OFFCURVE",
"396 352 CURVE {name = \"🧨\";}",
"423 365 LINE",
"398 463 OFFCURVE",
"341 510 OFFCURVE",
"252 510 CURVE SMOOTH {name = dv04;}",
"133 510 OFFCURVE",
"47 424 OFFCURVE",
"47 247 CURVE SMOOTH {name = sh03;}",
"47 70 OFFCURVE",
"133 -10 OFFCURVE",
"239 -10 CURVE SMOOTH {name = dv01;}"
);
},
{
closed = 1;
nodes = (
"516 35 LINE",
"516 90 LINE",
"449 100 LINE {name = sh07;}",
"449 647 LINE",
"470 748 LINE",
"444 760 LINE",
"317 712 LINE",
"317 657 LINE",
"394 647 LINE",
"394 133 LINE",
"378 5 LINE",
"404 -7 LINE {name = sh06;}"
);
}
);
width = 543;
},
{
anchors = (
{
name = bottom;
position = "{282, 0}";
},
{
name = center;
position = "{282, 510}";
},
{
name = top;
position = "{282, 750}";
},
{
name = topright;
position = "{491, 510}";
}
);
background = {
components = (
{
name = p;
transform = "{-1, 0, 0, 1, 576, 0}";
}
);
};
layerId = "3CA830F5-1E41-4F35-86DC-34C8110F5ED1";
paths = (
{
closed = 1;
nodes = (
"309 -10 OFFCURVE",
"337 52 OFFCURVE",
"356 123 CURVE",
"374 123 LINE {name = \"🧨\";}",
"372 217 LINE {name = \"🧨\";}",
"340 159 OFFCURVE",
"292 145 OFFCURVE",
"250 145 CURVE SMOOTH",
"181 145 OFFCURVE",
"142 183 OFFCURVE",
"142 257 CURVE SMOOTH",
"142 317 OFFCURVE",
"168 365 OFFCURVE",
"249 365 CURVE SMOOTH",
"291 365 OFFCURVE",
"347 352 OFFCURVE",
"368 308 CURVE {name = \"🧨\";}",
"415 335 LINE",
"383 453 OFFCURVE",
"332 520 OFFCURVE",
"230 520 CURVE SMOOTH",
"117 520 OFFCURVE",
"35 436 OFFCURVE",
"35 253 CURVE SMOOTH",
"35 88 OFFCURVE",
"99 -10 OFFCURVE",
"217 -10 CURVE SMOOTH"
);
},
{
closed = 1;
nodes = (
"539 15 LINE",
"539 130 LINE",
"472 140 LINE {name = sh07;}",
"472 567 LINE",
"493 748 LINE",
"437 760 LINE",
"293 712 LINE",
"293 577 LINE",
"367 567 LINE",
"367 100 LINE",
"346 6 LINE",
"402 -6 LINE {name = sh06;}"
);
}
);
width = 559;
},
{
associatedMasterId = "7F56E5C1-F146-4434-90E4-DA1B70285074";
layerId = "D632BF32-58DB-4F7B-8293-8C0700931742";
name = "Apr 18 19, 10:22";
paths = (
{
closed = 1;
nodes = (
"360 -10 OFFCURVE",
"404 52 OFFCURVE",
"431 123 CURVE {name = sh02;}",
"417 204 LINE {name = sh01;}",
"390 96 OFFCURVE",
"326 75 OFFCURVE",
"265 75 CURVE SMOOTH {name = dv02;}",
"152 75 OFFCURVE",
"107 145 OFFCURVE",
"107 250 CURVE SMOOTH {name = sh05;}",
"107 355 OFFCURVE",
"152 425 OFFCURVE",
"265 425 CURVE SMOOTH {name = dv03;}",
"334 425 OFFCURVE",
"392 398 OFFCURVE",
"418 353 CURVE {name = sh04;}",
"445 366 LINE",
"420 463 OFFCURVE",
"358 510 OFFCURVE",
"267 510 CURVE SMOOTH {name = dv04;}",
"146 510 OFFCURVE",
"50 427 OFFCURVE",
"50 248 CURVE SMOOTH {name = sh03;}",
"50 73 OFFCURVE",
"141 -10 OFFCURVE",
"252 -10 CURVE SMOOTH {name = dv01;}"
);
},
{
closed = 1;
nodes = (
"539 35 LINE",
"539 90 LINE",
"472 100 LINE {name = sh07;}",
"472 740 LINE {name = sh09;}",
"417 696 LINE",
"417 5 LINE",
"443 -7 LINE {name = sh06;}"
);
},
{
closed = 1;
nodes = (
"472 652 LINE",
"472 750 LINE",
"434 760 LINE",
"330 712 LINE",
"330 662 LINE",
"417 652 LINE {name = sh08;}"
);
}
);
width = 564;
},
{
associatedMasterId = "7F56E5C1-F146-4434-90E4-DA1B70285074";
layerId = "8F70A06D-98FD-4071-84BE-2B26072AE208";
name = "Jun 7 19, 18:55";
paths = (
{
closed = 1;
nodes = (
"475 652 LINE",
"495 750 LINE",
"459 760 LINE",
"345 712 LINE",
"335 662 LINE",
"420 652 LINE {name = sh08;}"
);
},
{
closed = 1;
nodes = (
"227 -10 OFFCURVE",
"268 52 OFFCURVE",
"301 123 CURVE {name = sh02;}",
"307 123 LINE {name = ah01;}",
"325 204 LINE {name = sh01;}",
"277 97 OFFCURVE",
"226 75 OFFCURVE",
"182 75 CURVE SMOOTH {name = dv02;}",
"115 75 OFFCURVE",
"92 123 OFFCURVE",
"92 194 CURVE SMOOTH {name = sh05;}",
"92 332 OFFCURVE",
"177 425 OFFCURVE",
"273 425 CURVE SMOOTH {name = dv03;}",
"318 425 OFFCURVE",
"355 405 OFFCURVE",
"370 373 CURVE {name = sh04;}",
"404 432 LINE",
"390 478 OFFCURVE",
"347 510 OFFCURVE",
"287 510 CURVE SMOOTH {name = dv04;}",
"158 510 OFFCURVE",
"35 359 OFFCURVE",
"35 169 CURVE SMOOTH {name = sh03;}",
"35 58 OFFCURVE",
"79 -10 OFFCURVE",
"155 -10 CURVE SMOOTH {name = dv01;}"
);
},
{
closed = 1;
nodes = (
"428 696 LINE",
"302 100 LINE",
"284 0 LINE",
"315 -7 LINE",
"419 35 LINE",
"419 81 LINE",
"357 100 LINE",
"492 740 LINE"
);
}
);
width = 520;
}
);
leftKerningGroup = o;
leftMetricsKey = o;
rightKerningGroup = d;
rightMetricsKey = a;
unicode = 0064;
},
{
glyphname = dcroat;
lastChange = "2023-05-24 15:57:10 +0000";
layers = (
{
background = {
components = (
{
name = strokeshortcomb;
transform = "{1, 0, 0, 1, -10, 0}";
}
);
paths = (
{
closed = 1;
nodes = (
"338 -5 OFFCURVE",
"377 56 OFFCURVE",
"401 123 CURVE {name = sh02;}",
"407 123 LINE {name = \"🧨\";}",
"407 204 LINE {name = \"🧨\";}",
"380 50 OFFCURVE",
"315 20 OFFCURVE",
"244 20 CURVE SMOOTH {name = dv02;}",
"116 20 OFFCURVE",
"62 120 OFFCURVE",
"62 250 CURVE SMOOTH {name = sh05;}",
"62 393 OFFCURVE",
"132 475 OFFCURVE",
"250 475 CURVE SMOOTH {name = dv03;}",
"339 475 OFFCURVE",
"384 427 OFFCURVE",
"408 348 CURVE {name = \"🧨\";}",
"419 352 LINE",
"396 452 OFFCURVE",
"337 500 OFFCURVE",
"250 500 CURVE SMOOTH {name = dv04;}",
"136 500 OFFCURVE",
"45 421 OFFCURVE",
"45 250 CURVE SMOOTH {name = sh03;}",
"45 78 OFFCURVE",
"134 -5 OFFCURVE",
"244 -5 CURVE SMOOTH {name = dv01;}"
);
},
{
closed = 1;
nodes = (
"484 15 LINE",
"484 30 LINE",
"422 40 LINE {name = sh07;}",
"422 745 LINE {name = \"🧨\";}",
"407 717 LINE {name = sh08;}",
"407 40 LINE",
"396 6 LINE",
"406 -2 LINE"
);
},
{
closed = 1;
nodes = (
"422 709 LINE {name = \"🧨\";}",
"422 755 LINE",
"411 760 LINE",
"328 732 LINE",
"328 718 LINE",
"407 709 LINE {name = \"🧨\";}"
);
}
);
};
layerId = master01;
paths = (
{
closed = 1;
nodes = (
"333 -5 OFFCURVE",
"381 56 OFFCURVE",
"405 123 CURVE {name = sh02;}",
"414 123 LINE {name = \"🧨\";}",
"413 212 LINE {name = \"🧨\";}",
"384 50 OFFCURVE",
"310 20 OFFCURVE",
"239 20 CURVE SMOOTH {name = dv02;}",
"108 20 OFFCURVE",
"62 121 OFFCURVE",
"62 247 CURVE SMOOTH {name = sh05;}",
"62 393 OFFCURVE",
"124 475 OFFCURVE",
"245 475 CURVE SMOOTH {name = dv03;}",
"334 475 OFFCURVE",
"388 427 OFFCURVE",
"412 348 CURVE {name = \"🧨\";}",
"423 352 LINE",
"400 452 OFFCURVE",
"332 500 OFFCURVE",
"245 500 CURVE SMOOTH {name = dv04;}",
"129 500 OFFCURVE",
"45 421 OFFCURVE",
"45 249 CURVE SMOOTH {name = sh03;}",
"45 79 OFFCURVE",
"127 -5 OFFCURVE",
"238 -5 CURVE SMOOTH {name = dv01;}"
);
},
{
closed = 1;
nodes = (
"488 15 LINE",
"488 30 LINE",
"426 40 LINE {name = sh07;}",
"426 697 LINE",
"438 758 LINE",
"429 765 LINE",
"339 722 LINE",
"339 707 LINE",
"411 697 LINE",
"411 40 LINE",
"400 6 LINE",
"410 -2 LINE"
);
},
{
closed = 1;
nodes = (
"510 593 LINE",
"514 598 LINE",
"506 609 LINE",
"226 609 LINE",
"222 605 LINE",
"231 593 LINE"
);
}
);
width = 528;
},
{
background = {
components = (
{
name = strokeshortcomb;
}
);
paths = (
{
closed = 1;
nodes = (
"345 -10 OFFCURVE",
"384 52 OFFCURVE",
"408 123 CURVE {name = sh02;}",
"414 123 LINE {name = \"🧨\";}",
"414 204 LINE {name = \"🧨\";}",
"387 96 OFFCURVE",
"323 75 OFFCURVE",
"262 75 CURVE SMOOTH {name = dv02;}",
"149 75 OFFCURVE",
"104 145 OFFCURVE",
"104 250 CURVE SMOOTH {name = sh05;}",
"104 355 OFFCURVE",
"149 425 OFFCURVE",
"262 425 CURVE SMOOTH {name = dv03;}",
"331 425 OFFCURVE",
"389 398 OFFCURVE",
"415 353 CURVE {name = \"🧨\";}",
"442 366 LINE",
"417 463 OFFCURVE",
"355 510 OFFCURVE",
"264 510 CURVE SMOOTH {name = dv04;}",
"143 510 OFFCURVE",
"47 427 OFFCURVE",
"47 248 CURVE SMOOTH {name = sh03;}",
"47 73 OFFCURVE",
"138 -10 OFFCURVE",
"249 -10 CURVE SMOOTH {name = dv01;}"
);
},
{
closed = 1;
nodes = (
"536 35 LINE",
"536 90 LINE",
"469 100 LINE {name = sh07;}",
"469 740 LINE {name = \"🧨\";}",
"414 696 LINE",
"414 100 LINE",
"393 5 LINE",
"419 -7 LINE {name = sh06;}"
);
},
{
closed = 1;
nodes = (
"469 652 LINE {name = \"🧨\";}",
"469 750 LINE",
"431 760 LINE",
"327 712 LINE",
"327 662 LINE",
"414 652 LINE {name = \"🧨\";}"
);
}
);
};
layerId = "7F56E5C1-F146-4434-90E4-DA1B70285074";
paths = (
{
closed = 1;
nodes = (
"329 -10 OFFCURVE",
"366 52 OFFCURVE",
"388 123 CURVE {name = sh02;}",
"398 123 LINE {name = \"🧨\";}",
"397 213 LINE {name = \"🧨\";}",
"369 96 OFFCURVE",
"309 75 OFFCURVE",
"252 75 CURVE SMOOTH {name = dv02;}",
"146 75 OFFCURVE",
"104 145 OFFCURVE",
"104 250 CURVE SMOOTH {name = sh05;}",
"104 355 OFFCURVE",
"146 425 OFFCURVE",
"252 425 CURVE SMOOTH {name = dv03;}",
"316 425 OFFCURVE",
"371 398 OFFCURVE",
"396 352 CURVE {name = \"🧨\";}",
"423 365 LINE",
"398 463 OFFCURVE",
"341 510 OFFCURVE",
"252 510 CURVE SMOOTH {name = dv04;}",
"133 510 OFFCURVE",
"47 424 OFFCURVE",
"47 247 CURVE SMOOTH {name = sh03;}",
"47 70 OFFCURVE",
"133 -10 OFFCURVE",
"239 -10 CURVE SMOOTH {name = dv01;}"
);
},
{
closed = 1;
nodes = (
"516 35 LINE",
"516 90 LINE",
"449 100 LINE {name = sh07;}",
"449 647 LINE",
"470 748 LINE",
"444 760 LINE",
"317 712 LINE",
"317 657 LINE",
"394 647 LINE",
"394 100 LINE",
"373 5 LINE",
"399 -7 LINE {name = sh06;}"
);
},
{
closed = 1;
nodes = (
"527 553 LINE",
"551 598 LINE",
"543 609 LINE",
"283 609 LINE",
"259 565 LINE",
"268 553 LINE"
);
}
);
width = 543;
},
{
background = {
components = (
{
name = strokeshortcomb;
}
);
paths = (
{
closed = 1;
nodes = (
"323 -10 OFFCURVE",
"355 52 OFFCURVE",
"376 123 CURVE",
"387 123 LINE {name = \"🧨\";}",
"387 214 LINE {name = \"🧨\";}",
"355 158 OFFCURVE",
"315 145 OFFCURVE",
"262 145 CURVE SMOOTH",
"180 145 OFFCURVE",
"142 180 OFFCURVE",
"142 249 CURVE SMOOTH",
"142 313 OFFCURVE",
"175 365 OFFCURVE",
"266 365 CURVE SMOOTH",
"315 365 OFFCURVE",
"367 351 OFFCURVE",
"388 308 CURVE {name = \"🧨\";}",
"435 335 LINE",
"401 462 OFFCURVE",
"344 520 OFFCURVE",
"245 520 CURVE SMOOTH",
"124 520 OFFCURVE",
"35 436 OFFCURVE",
"35 249 CURVE SMOOTH",
"35 90 OFFCURVE",
"100 -10 OFFCURVE",
"228 -10 CURVE SMOOTH"
);
},
{
closed = 1;
nodes = (
"549 15 LINE",
"549 130 LINE",
"482 140 LINE {name = sh07;}",
"482 730 LINE {name = \"🧨\";}",
"387 696 LINE",
"387 100 LINE",
"366 6 LINE",
"422 -6 LINE {name = sh06;}"
);
},
{
closed = 1;
nodes = (
"482 642 LINE {name = \"🧨\";}",
"482 740 LINE",
"424 760 LINE",
"300 712 LINE",
"300 652 LINE",
"387 642 LINE {name = \"🧨\";}"
);
}
);
};
layerId = "3CA830F5-1E41-4F35-86DC-34C8110F5ED1";
paths = (
{
closed = 1;
nodes = (
"309 -10 OFFCURVE",
"337 52 OFFCURVE",
"356 123 CURVE",
"374 123 LINE {name = \"🧨\";}",
"372 217 LINE {name = \"🧨\";}",
"340 159 OFFCURVE",
"292 145 OFFCURVE",
"250 145 CURVE SMOOTH",
"181 145 OFFCURVE",
"142 183 OFFCURVE",
"142 257 CURVE SMOOTH",
"142 317 OFFCURVE",
"168 365 OFFCURVE",
"249 365 CURVE SMOOTH",
"293 365 OFFCURVE",
"352 351 OFFCURVE",
"374 302 CURVE {name = \"🧨\";}",
"421 329 LINE",
"388 451 OFFCURVE",
"335 520 OFFCURVE",
"230 520 CURVE SMOOTH",
"117 520 OFFCURVE",
"35 436 OFFCURVE",
"35 253 CURVE SMOOTH",
"35 88 OFFCURVE",
"99 -10 OFFCURVE",
"217 -10 CURVE SMOOTH"
);
},
{
closed = 1;
nodes = (
"539 15 LINE",
"539 130 LINE",
"472 140 LINE {name = sh07;}",
"472 567 LINE",
"493 748 LINE",
"437 760 LINE",
"293 712 LINE",
"293 647 LINE",
"367 637 LINE",
"367 100 LINE",
"346 6 LINE",
"402 -6 LINE {name = sh06;}"
);
},
{
closed = 1;
nodes = (
"540 553 LINE",
"564 598 LINE",
"556 609 LINE",
"296 609 LINE",
"272 565 LINE",
"281 553 LINE"
);
}
);
width = 559;
}
);
leftKerningGroup = o;
leftMetricsKey = o;
rightKerningGroup = d;
unicode = 0111;
},
{
glyphname = eth;
lastChange = "2023-05-24 15:22:45 +0000";
layers = (
{
background = {
paths = (
{
closed = 1;
nodes = (
"405 -5 OFFCURVE",
"463 120 OFFCURVE",
"463 311 CURVE SMOOTH",
"463 560 OFFCURVE",
"364 697 OFFCURVE",
"165 763 CURVE",
"155 741 LINE",
"311 691 OFFCURVE",
"445 588 OFFCURVE",
"445 303 CURVE SMOOTH",
"445 146 OFFCURVE",
"405 20 OFFCURVE",
"249 20 CURVE SMOOTH",
"160 20 OFFCURVE",
"63 62 OFFCURVE",
"63 236 CURVE SMOOTH",
"63 397 OFFCURVE",
"145 455 OFFCURVE",
"246 455 CURVE SMOOTH",
"356 455 OFFCURVE",
"414 386 OFFCURVE",
"445 271 CURVE",
"458 274 LINE",
"456 288 OFFCURVE",
"453 301 OFFCURVE",
"448 317 CURVE",
"442 317 LINE",
"406 429 OFFCURVE",
"337 480 OFFCURVE",
"246 480 CURVE SMOOTH",
"119 480 OFFCURVE",
"45 382 OFFCURVE",
"45 236 CURVE SMOOTH",
"45 83 OFFCURVE",
"126 -5 OFFCURVE",
"253 -5 CURVE SMOOTH"
);
},
{
closed = 1;
nodes = (
"459 727 LINE",
"446 746 LINE",
"193 569 LINE",
"202 555 LINE"
);
}
);
};
layerId = master01;
paths = (
{
closed = 1;
nodes = (
"405 -5 OFFCURVE",
"463 121 OFFCURVE",
"463 308 CURVE SMOOTH",
"463 559 OFFCURVE",
"357 694 OFFCURVE",
"105 760 CURVE",
"95 738 LINE",
"302 688 OFFCURVE",
"445 587 OFFCURVE",
"445 300 CURVE SMOOTH",
"445 145 OFFCURVE",
"404 20 OFFCURVE",
"249 20 CURVE SMOOTH",
"160 20 OFFCURVE",
"63 62 OFFCURVE",
"63 237 CURVE SMOOTH",
"63 396 OFFCURVE",
"144 455 OFFCURVE",
"250 455 CURVE SMOOTH",
"355 455 OFFCURVE",
"424 396 OFFCURVE",
"445 271 CURVE",
"458 274 LINE",
"456 294 OFFCURVE",
"452 312 OFFCURVE",
"446 334 CURVE",
"440 334 LINE",
"418 430 OFFCURVE",
"348 480 OFFCURVE",
"252 480 CURVE SMOOTH",
"118 480 OFFCURVE",
"45 382 OFFCURVE",
"45 236 CURVE SMOOTH",
"45 83 OFFCURVE",
"126 -5 OFFCURVE",
"253 -5 CURVE SMOOTH"
);
},
{
closed = 1;
nodes = (
"449 736 LINE",
"436 755 LINE",
"183 578 LINE",
"192 564 LINE"
);
}
);
width = 523;
},
{
background = {
paths = (
{
closed = 1;
nodes = (
"417 -10 OFFCURVE",
"473 125 OFFCURVE",
"473 322 CURVE SMOOTH",
"473 479 OFFCURVE",
"437 720 OFFCURVE",
"154 776 CURVE",
"123 701 LINE",
"370 677 OFFCURVE",
"421 508 OFFCURVE",
"421 317 CURVE SMOOTH",
"421 159 OFFCURVE",
"386 75 OFFCURVE",
"252 75 CURVE SMOOTH",
"167 75 OFFCURVE",
"104 112 OFFCURVE",
"104 245 CURVE SMOOTH",
"104 386 OFFCURVE",
"174 415 OFFCURVE",
"255 415 CURVE SMOOTH",
"351 415 OFFCURVE",
"393 377 OFFCURVE",
"422 313 CURVE",
"442 328 LINE",
"438 342 OFFCURVE",
"427 371 OFFCURVE",
"423 379 CURVE",
"414 379 LINE",
"379 460 OFFCURVE",
"323 500 OFFCURVE",
"245 500 CURVE SMOOTH",
"122 500 OFFCURVE",
"47 400 OFFCURVE",
"47 244 CURVE SMOOTH",
"47 85 OFFCURVE",
"125 -10 OFFCURVE",
"258 -10 CURVE SMOOTH"
);
},
{
closed = 1;
nodes = (
"478 700 LINE",
"445 757 LINE",
"193 593 LINE",
"214 558 LINE"
);
}
);
};
layerId = "7F56E5C1-F146-4434-90E4-DA1B70285074";
paths = (
{
closed = 1;
nodes = (
"417 -10 OFFCURVE",
"473 125 OFFCURVE",
"473 322 CURVE SMOOTH",
"473 473 OFFCURVE",
"432 706 OFFCURVE",
"114 760 CURVE",
"83 685 LINE",
"363 662 OFFCURVE",
"421 500 OFFCURVE",
"421 317 CURVE SMOOTH",
"421 159 OFFCURVE",
"386 75 OFFCURVE",
"252 75 CURVE SMOOTH",
"167 75 OFFCURVE",
"104 112 OFFCURVE",
"104 245 CURVE SMOOTH",
"104 386 OFFCURVE",
"174 415 OFFCURVE",
"255 415 CURVE SMOOTH",
"351 415 OFFCURVE",
"393 377 OFFCURVE",
"422 313 CURVE",
"442 328 LINE",
"438 342 OFFCURVE",
"427 371 OFFCURVE",
"423 379 CURVE",
"414 379 LINE",
"379 460 OFFCURVE",
"323 500 OFFCURVE",
"245 500 CURVE SMOOTH",
"122 500 OFFCURVE",
"47 400 OFFCURVE",
"47 244 CURVE SMOOTH",
"47 85 OFFCURVE",
"125 -10 OFFCURVE",
"258 -10 CURVE SMOOTH"
);
},
{
closed = 1;
nodes = (
"458 701 LINE",
"425 758 LINE",
"173 594 LINE",
"194 559 LINE"
);
}
);
width = 533;
},
{
background = {
paths = (
{
closed = 1;
nodes = (
"450 -10 OFFCURVE",
"513 132 OFFCURVE",
"513 328 CURVE SMOOTH",
"513 552 OFFCURVE",
"431 706 OFFCURVE",
"184 768 CURVE",
"122 647 LINE",
"325 600 OFFCURVE",
"400 507 OFFCURVE",
"400 324 CURVE SMOOTH",
"400 200 OFFCURVE",
"366 145 OFFCURVE",
"263 145 CURVE SMOOTH",
"203 145 OFFCURVE",
"148 164 OFFCURVE",
"148 243 CURVE SMOOTH",
"148 319 OFFCURVE",
"198 350 OFFCURVE",
"263 350 CURVE SMOOTH",
"334 350 OFFCURVE",
"375 313 OFFCURVE",
"400 229 CURVE",
"426 246 LINE",
"419 276 OFFCURVE",
"411 303 OFFCURVE",
"402 326 CURVE",
"388 326 LINE",
"367 452 OFFCURVE",
"305 498 OFFCURVE",
"227 498 CURVE SMOOTH",
"111 498 OFFCURVE",
"35 395 OFFCURVE",
"35 243 CURVE SMOOTH",
"35 82 OFFCURVE",
"120 -10 OFFCURVE",
"266 -10 CURVE SMOOTH"
);
},
{
closed = 1;
nodes = (
"500 680 LINE",
"448 759 LINE",
"194 560 LINE",
"224 513 LINE"
);
}
);
};
layerId = "3CA830F5-1E41-4F35-86DC-34C8110F5ED1";
paths = (
{
closed = 1;
nodes = (
"450 -10 OFFCURVE",
"513 135 OFFCURVE",
"513 323 CURVE SMOOTH",
"513 552 OFFCURVE",
"419 698 OFFCURVE",
"134 760 CURVE",
"72 639 LINE",
"315 592 OFFCURVE",
"400 502 OFFCURVE",
"400 319 CURVE SMOOTH",
"400 200 OFFCURVE",
"364 145 OFFCURVE",
"264 145 CURVE SMOOTH",
"203 145 OFFCURVE",
"148 166 OFFCURVE",
"148 238 CURVE SMOOTH",
"148 307 OFFCURVE",
"198 330 OFFCURVE",
"261 330 CURVE SMOOTH",
"334 330 OFFCURVE",
"375 299 OFFCURVE",
"400 229 CURVE",
"426 246 LINE",
"419 276 OFFCURVE",
"411 303 OFFCURVE",
"402 326 CURVE",
"388 326 LINE",
"367 437 OFFCURVE",
"305 478 OFFCURVE",
"227 478 CURVE SMOOTH",
"111 478 OFFCURVE",
"35 385 OFFCURVE",
"35 238 CURVE SMOOTH",
"35 83 OFFCURVE",
"120 -10 OFFCURVE",
"267 -10 CURVE SMOOTH"
);
},
{
closed = 1;
nodes = (
"496 682 LINE",
"448 759 LINE",
"154 558 LINE",
"184 511 LINE"
);
}
);
width = 563;
}
);
leftKerningGroup = o;
leftMetricsKey = o;
rightKerningGroup = o;
unicode = 00F0;
},
{
glyphname = e;
lastChange = "2023-05-24 16:25:59 +0000";
layers = (
{
anchors = (
{
name = bottom;
position = "{239, 0}";
},
{
name = ogonek;
position = "{295, 0}";
},
{
name = top;
position = "{245, 500}";
}
);
layerId = master01;
paths = (
{
closed = 1;
nodes = (
"333 -5 OFFCURVE",
"401 38 OFFCURVE",
"426 108 CURVE",
"414 114 LINE",
"385 55 OFFCURVE",
"333 20 OFFCURVE",
"251 20 CURVE SMOOTH",
"124 20 OFFCURVE",
"62 112 OFFCURVE",
"62 248 CURVE SMOOTH",
"62 386 OFFCURVE",
"126 475 OFFCURVE",
"244 475 CURVE SMOOTH",
"360 475 OFFCURVE",
"422 390 OFFCURVE",
"417 264 CURVE",
"422 270 LINE",
"53 270 LINE",
"53 250 LINE",
"432 250 LINE {name = \"🧨\";}",
"442 423 OFFCURVE",
"355 500 OFFCURVE",
"245 500 CURVE SMOOTH",
"134 500 OFFCURVE",
"45 421 OFFCURVE",
"45 250 CURVE SMOOTH",
"45 76 OFFCURVE",
"133 -5 OFFCURVE",
"247 -5 CURVE SMOOTH"
);
}
);
vertWidth = 750;
width = 484;
},
{
anchors = (
{
name = bottom;
position = "{248, 0}";
},
{
name = ogonek;
position = "{436, 0}";
},
{
name = top;
position = "{253, 500}";
}
);
layerId = "7F56E5C1-F146-4434-90E4-DA1B70285074";
paths = (
{
closed = 1;
nodes = (
"338 -10 OFFCURVE",
"396 21 OFFCURVE",
"441 81 CURVE",
"407 121 LINE",
"372 92 OFFCURVE",
"324 75 OFFCURVE",
"267 75 CURVE SMOOTH",
"155 75 OFFCURVE",
"102 144 OFFCURVE",
"102 250 CURVE SMOOTH",
"102 355 OFFCURVE",
"155 425 OFFCURVE",
"251 425 CURVE SMOOTH",
"341 425 OFFCURVE",
"390 364 OFFCURVE",
"393 272 CURVE",
"422 300 LINE",
"95 300 LINE",
"95 232 LINE",
"447 232 LINE {name = \"🧨\";}",
"457 410 OFFCURVE",
"378 510 OFFCURVE",
"255 510 CURVE SMOOTH",
"134 510 OFFCURVE",
"47 412 OFFCURVE",
"47 244 CURVE SMOOTH",
"47 70 OFFCURVE",
"139 -10 OFFCURVE",
"264 -10 CURVE SMOOTH"
);
}
);
width = 493;
},
{
anchors = (
{
name = bottom;
position = "{250, 0}";
},
{
name = ogonek;
position = "{432, 0}";
},
{
name = top;
position = "{250, 510}";
}
);
background = {
paths = (
{
closed = 1;
nodes = (
"354 -10 OFFCURVE",
"419 24 OFFCURVE",
"470 97 CURVE",
"406 169 LINE",
"369 139 OFFCURVE",
"322 130 OFFCURVE",
"276 130 CURVE SMOOTH",
"178 130 OFFCURVE",
"147 178 OFFCURVE",
"147 251 CURVE SMOOTH",
"147 325 OFFCURVE",
"178 375 OFFCURVE",
"251 375 CURVE SMOOTH",
"323 375 OFFCURVE",
"366 327 OFFCURVE",
"356 216 CURVE",
"465 216 LINE",
"475 436 OFFCURVE",
"379 520 OFFCURVE",
"259 520 CURVE SMOOTH",
"138 520 OFFCURVE",
"45 432 OFFCURVE",
"45 251 CURVE SMOOTH",
"45 71 OFFCURVE",
"139 -10 OFFCURVE",
"270 -10 CURVE SMOOTH"
);
},
{
closed = 1;
nodes = (
"451 216 LINE",
"451 296 LINE",
"93 296 LINE",
"93 216 LINE"
);
}
);
};
layerId = "3CA830F5-1E41-4F35-86DC-34C8110F5ED1";
paths = (
{
closed = 1;
nodes = (
"340 -10 OFFCURVE",
"403 18 OFFCURVE",
"460 97 CURVE",
"396 169 LINE",
"358 139 OFFCURVE",
"308 130 OFFCURVE",
"265 130 CURVE SMOOTH",
"167 130 OFFCURVE",
"137 177 OFFCURVE",
"137 250 CURVE SMOOTH",
"137 325 OFFCURVE",
"169 375 OFFCURVE",
"250 375 CURVE SMOOTH",
"312 375 OFFCURVE",
"361 346 OFFCURVE",
"360 260 CURVE",
"389 296 LINE",
"83 296 LINE",
"83 216 LINE",
"465 216 LINE {name = \"🧨\";}",
"485 443 OFFCURVE",
"376 520 OFFCURVE",
"260 520 CURVE SMOOTH",
"130 520 OFFCURVE",
"35 422 OFFCURVE",
"35 250 CURVE SMOOTH",
"35 81 OFFCURVE",
"126 -10 OFFCURVE",
"264 -10 CURVE SMOOTH"
);
}
);
width = 495;
},
{
anchors = (
{
name = top;
position = "{285, 500}";
}
);
associatedMasterId = "7F56E5C1-F146-4434-90E4-DA1B70285074";
layerId = "722849D7-64AC-4FF1-90AA-282A9EE029EB";
name = "Apr 16 19, 20:53";
paths = (
{
closed = 1;
nodes = (
"83 209 LINE",
"293 221 OFFCURVE",
"350 236 OFFCURVE",
"419 306 CURVE",
"431 354 LINE",
"431 459 OFFCURVE",
"370 510 OFFCURVE",
"291 510 CURVE SMOOTH",
"152 510 OFFCURVE",
"45 350 OFFCURVE",
"45 179 CURVE SMOOTH",
"45 52 OFFCURVE",
"105 -10 OFFCURVE",
"195 -10 CURVE SMOOTH",
"266 -10 OFFCURVE",
"333 28 OFFCURVE",
"378 103 CURVE",
"362 123 LINE",
"322 93 OFFCURVE",
"271 75 OFFCURVE",
"219 75 CURVE SMOOTH",
"136 75 OFFCURVE",
"98 119 OFFCURVE",
"98 203 CURVE SMOOTH",
"98 319 OFFCURVE",
"169 425 OFFCURVE",
"279 425 CURVE SMOOTH",
"352 425 OFFCURVE",
"387 379 OFFCURVE",
"387 341 CURVE",
"342 302 OFFCURVE",
"246 296 OFFCURVE",
"97 284 CURVE"
);
}
);
width = 476;
}
);
leftKerningGroup = o;
leftMetricsKey = o;
rightKerningGroup = e;
unicode = 0065;
},
{
glyphname = f;
lastChange = "2023-05-24 16:44:48 +0000";
layers = (
{
background = {
paths = (
{
closed = 1;
nodes = (
"227 0 LINE",
"227 14 LINE",
"111 33 LINE",
"119 14 LINE",
"119 552 LINE SMOOTH",
"119 676 OFFCURVE",
"164 729 OFFCURVE",
"255 729 CURVE SMOOTH",
"285 729 OFFCURVE",
"315 723 OFFCURVE",
"336 712 CURVE",
"331 722 LINE",
"351 625 LINE",
"368 628 LINE",
"360 728 LINE",
"336 743 OFFCURVE",
"301 755 OFFCURVE",
"254 755 CURVE SMOOTH",
"143 755 OFFCURVE",
"104 689 OFFCURVE",
"104 552 CURVE SMOOTH",
"104 8 LINE",
"108 33 LINE",
"30 14 LINE",
"30 0 LINE"
);
},
{
closed = 1;
nodes = (
"289 473 LINE",
"289 495 LINE",
"115 495 LINE",
"32 489 LINE",
"32 473 LINE"
);
}
);
};
layerId = master01;
paths = (
{
closed = 1;
nodes = (
"197 0 LINE",
"197 14 LINE",
"111 33 LINE",
"119 14 LINE",
"119 582 LINE SMOOTH",
"119 685 OFFCURVE",
"156 729 OFFCURVE",
"235 729 CURVE SMOOTH",
"258 729 OFFCURVE",
"280 725 OFFCURVE",
"296 717 CURVE",
"291 727 LINE",
"311 630 LINE",
"328 633 LINE",
"320 733 LINE",
"301 745 OFFCURVE",
"272 755 OFFCURVE",
"234 755 CURVE SMOOTH",
"144 755 OFFCURVE",
"104 699 OFFCURVE",
"104 582 CURVE SMOOTH",
"104 8 LINE",
"108 33 LINE",
"30 14 LINE",
"30 0 LINE"
);
},
{
closed = 1;
nodes = (
"249 473 LINE",
"249 495 LINE",
"115 495 LINE",
"32 489 LINE",
"32 473 LINE"
);
}
);
vertWidth = 750;
width = 328;
},
{
background = {
paths = (
{
closed = 1;
nodes = (
"268 0 LINE",
"268 52 LINE",
"152 83 LINE",
"160 53 LINE",
"160 540 LINE SMOOTH",
"160 629 OFFCURVE",
"195 675 OFFCURVE",
"265 675 CURVE SMOOTH",
"307 675 OFFCURVE",
"335 658 OFFCURVE",
"352 641 CURVE",
"336 671 LINE",
"361 591 LINE",
"409 598 LINE",
"402 704 LINE",
"368 739 OFFCURVE",
"334 760 OFFCURVE",
"275 760 CURVE SMOOTH",
"169 760 OFFCURVE",
"105 688 OFFCURVE",
"105 540 CURVE SMOOTH",
"105 47 LINE",
"129 84 LINE",
"31 53 LINE",
"31 0 LINE"
);
},
{
closed = 1;
nodes = (
"330 425 LINE",
"330 500 LINE",
"126 500 LINE",
"33 483 LINE",
"33 425 LINE"
);
}
);
};
layerId = "7F56E5C1-F146-4434-90E4-DA1B70285074";
paths = (
{
closed = 1;
nodes = (
"252 0 LINE",
"252 52 LINE",
"157 83 LINE",
"165 53 LINE",
"165 570 LINE SMOOTH",
"165 644 OFFCURVE",
"195 675 OFFCURVE",
"257 675 CURVE SMOOTH",
"275 675 OFFCURVE",
"291 672 OFFCURVE",
"305 667 CURVE",
"286 697 LINE",
"311 617 LINE",
"359 624 LINE",
"352 743 LINE",
"325 754 OFFCURVE",
"294 760 OFFCURVE",
"263 760 CURVE SMOOTH",
"159 760 OFFCURVE",
"110 703 OFFCURVE",
"110 570 CURVE SMOOTH",
"110 47 LINE",
"134 84 LINE",
"37 53 LINE",
"37 0 LINE"
);
},
{
closed = 1;
nodes = (
"310 425 LINE",
"310 500 LINE",
"131 500 LINE",
"37 483 LINE",
"37 425 LINE"
);
}
);
width = 364;
},
{
background = {
paths = (
{
closed = 1;
nodes = (
"317 0 LINE",
"317 132 LINE",
"201 163 LINE",
"209 133 LINE",
"209 540 LINE SMOOTH",
"209 584 OFFCURVE",
"231 605 OFFCURVE",
"282 605 CURVE SMOOTH",
"314 605 OFFCURVE",
"334 597 OFFCURVE",
"353 581 CURVE",
"325 639 LINE",
"350 541 LINE",
"438 548 LINE",
"431 719 LINE",
"390 745 OFFCURVE",
"350 760 OFFCURVE",
"293 760 CURVE SMOOTH",
"170 760 OFFCURVE",
"104 688 OFFCURVE",
"104 540 CURVE SMOOTH",
"104 127 LINE",
"128 164 LINE",
"30 133 LINE",
"30 0 LINE"
);
},
{
closed = 1;
nodes = (
"339 355 LINE",
"339 510 LINE",
"125 510 LINE",
"32 493 LINE",
"32 355 LINE"
);
}
);
};
layerId = "3CA830F5-1E41-4F35-86DC-34C8110F5ED1";
paths = (
{
closed = 1;
nodes = (
"317 0 LINE",
"317 132 LINE",
"201 163 LINE",
"209 133 LINE",
"209 540 LINE SMOOTH",
"209 585 OFFCURVE",
"225 605 OFFCURVE",
"266 605 CURVE SMOOTH",
"284 605 OFFCURVE",
"299 601 OFFCURVE",
"313 589 CURVE",
"285 647 LINE",
"310 549 LINE",
"398 556 LINE",
"391 727 LINE",
"356 749 OFFCURVE",
"321 760 OFFCURVE",
"276 760 CURVE SMOOTH",
"163 760 OFFCURVE",
"104 689 OFFCURVE",
"104 540 CURVE SMOOTH",
"104 127 LINE",
"128 164 LINE",
"30 133 LINE",
"30 0 LINE"
);
},
{
closed = 1;
nodes = (
"319 355 LINE",
"319 510 LINE",
"125 510 LINE",
"32 493 LINE",
"32 355 LINE"
);
}
);
width = 395;
}
);
leftKerningGroup = f;
rightKerningGroup = f;
unicode = 0066;
},
